%TF.GenerationSoftware,KiCad,Pcbnew,8.0.3*%
%TF.CreationDate,2024-08-07T15:39:48+03:00*%
%TF.ProjectId,Thermometer Schematic,54686572-6d6f-46d6-9574-657220536368,rev?*%
%TF.SameCoordinates,Original*%
%TF.FileFunction,Legend,Top*%
%TF.FilePolarity,Positive*%
%FSLAX46Y46*%
G04 Gerber Fmt 4.6, Leading zero omitted, Abs format (unit mm)*
G04 Created by KiCad (PCBNEW 8.0.3) date 2024-08-07 15:39:48*
%MOMM*%
%LPD*%
G01*
G04 APERTURE LIST*
%ADD10C,0.200000*%
%ADD11C,0.254000*%
%ADD12C,0.127000*%
%ADD13C,0.180000*%
%ADD14C,0.120000*%
%ADD15C,0.100000*%
%ADD16C,0.152400*%
G04 APERTURE END LIST*
D10*
X96111101Y-105539790D02*
X96034911Y-105501695D01*
X96034911Y-105501695D02*
X95920625Y-105501695D01*
X95920625Y-105501695D02*
X95806339Y-105539790D01*
X95806339Y-105539790D02*
X95730149Y-105615980D01*
X95730149Y-105615980D02*
X95692054Y-105692171D01*
X95692054Y-105692171D02*
X95653958Y-105844552D01*
X95653958Y-105844552D02*
X95653958Y-105958838D01*
X95653958Y-105958838D02*
X95692054Y-106111219D01*
X95692054Y-106111219D02*
X95730149Y-106187409D01*
X95730149Y-106187409D02*
X95806339Y-106263600D01*
X95806339Y-106263600D02*
X95920625Y-106301695D01*
X95920625Y-106301695D02*
X95996816Y-106301695D01*
X95996816Y-106301695D02*
X96111101Y-106263600D01*
X96111101Y-106263600D02*
X96149197Y-106225504D01*
X96149197Y-106225504D02*
X96149197Y-105958838D01*
X96149197Y-105958838D02*
X95996816Y-105958838D01*
X96492054Y-106301695D02*
X96492054Y-105501695D01*
X96492054Y-105501695D02*
X96949197Y-106301695D01*
X96949197Y-106301695D02*
X96949197Y-105501695D01*
X97330149Y-106301695D02*
X97330149Y-105501695D01*
X97330149Y-105501695D02*
X97520625Y-105501695D01*
X97520625Y-105501695D02*
X97634911Y-105539790D01*
X97634911Y-105539790D02*
X97711101Y-105615980D01*
X97711101Y-105615980D02*
X97749196Y-105692171D01*
X97749196Y-105692171D02*
X97787292Y-105844552D01*
X97787292Y-105844552D02*
X97787292Y-105958838D01*
X97787292Y-105958838D02*
X97749196Y-106111219D01*
X97749196Y-106111219D02*
X97711101Y-106187409D01*
X97711101Y-106187409D02*
X97634911Y-106263600D01*
X97634911Y-106263600D02*
X97520625Y-106301695D01*
X97520625Y-106301695D02*
X97330149Y-106301695D01*
X93177768Y-105511695D02*
X93444435Y-106311695D01*
X93444435Y-106311695D02*
X93711101Y-105511695D01*
X93977768Y-106311695D02*
X93977768Y-105778361D01*
X93977768Y-105511695D02*
X93939672Y-105549790D01*
X93939672Y-105549790D02*
X93977768Y-105587885D01*
X93977768Y-105587885D02*
X94015863Y-105549790D01*
X94015863Y-105549790D02*
X93977768Y-105511695D01*
X93977768Y-105511695D02*
X93977768Y-105587885D01*
X94358720Y-105778361D02*
X94358720Y-106311695D01*
X94358720Y-105854552D02*
X94396815Y-105816457D01*
X94396815Y-105816457D02*
X94473005Y-105778361D01*
X94473005Y-105778361D02*
X94587291Y-105778361D01*
X94587291Y-105778361D02*
X94663482Y-105816457D01*
X94663482Y-105816457D02*
X94701577Y-105892647D01*
X94701577Y-105892647D02*
X94701577Y-106311695D01*
X125931695Y-91077945D02*
X125131695Y-91077945D01*
X125131695Y-91077945D02*
X125131695Y-90887469D01*
X125131695Y-90887469D02*
X125169790Y-90773183D01*
X125169790Y-90773183D02*
X125245980Y-90696993D01*
X125245980Y-90696993D02*
X125322171Y-90658898D01*
X125322171Y-90658898D02*
X125474552Y-90620802D01*
X125474552Y-90620802D02*
X125588838Y-90620802D01*
X125588838Y-90620802D02*
X125741219Y-90658898D01*
X125741219Y-90658898D02*
X125817409Y-90696993D01*
X125817409Y-90696993D02*
X125893600Y-90773183D01*
X125893600Y-90773183D02*
X125931695Y-90887469D01*
X125931695Y-90887469D02*
X125931695Y-91077945D01*
X125131695Y-90125564D02*
X125131695Y-89973183D01*
X125131695Y-89973183D02*
X125169790Y-89896993D01*
X125169790Y-89896993D02*
X125245980Y-89820802D01*
X125245980Y-89820802D02*
X125398361Y-89782707D01*
X125398361Y-89782707D02*
X125665028Y-89782707D01*
X125665028Y-89782707D02*
X125817409Y-89820802D01*
X125817409Y-89820802D02*
X125893600Y-89896993D01*
X125893600Y-89896993D02*
X125931695Y-89973183D01*
X125931695Y-89973183D02*
X125931695Y-90125564D01*
X125931695Y-90125564D02*
X125893600Y-90201755D01*
X125893600Y-90201755D02*
X125817409Y-90277945D01*
X125817409Y-90277945D02*
X125665028Y-90316041D01*
X125665028Y-90316041D02*
X125398361Y-90316041D01*
X125398361Y-90316041D02*
X125245980Y-90277945D01*
X125245980Y-90277945D02*
X125169790Y-90201755D01*
X125169790Y-90201755D02*
X125131695Y-90125564D01*
X125131695Y-89439850D02*
X125779314Y-89439850D01*
X125779314Y-89439850D02*
X125855504Y-89401755D01*
X125855504Y-89401755D02*
X125893600Y-89363660D01*
X125893600Y-89363660D02*
X125931695Y-89287469D01*
X125931695Y-89287469D02*
X125931695Y-89135088D01*
X125931695Y-89135088D02*
X125893600Y-89058898D01*
X125893600Y-89058898D02*
X125855504Y-89020803D01*
X125855504Y-89020803D02*
X125779314Y-88982707D01*
X125779314Y-88982707D02*
X125131695Y-88982707D01*
X125131695Y-88716041D02*
X125131695Y-88258898D01*
X125931695Y-88487470D02*
X125131695Y-88487470D01*
X125093600Y-87420803D02*
X126122171Y-88106517D01*
X125931695Y-86696993D02*
X125550742Y-86963660D01*
X125931695Y-87154136D02*
X125131695Y-87154136D01*
X125131695Y-87154136D02*
X125131695Y-86849374D01*
X125131695Y-86849374D02*
X125169790Y-86773184D01*
X125169790Y-86773184D02*
X125207885Y-86735089D01*
X125207885Y-86735089D02*
X125284076Y-86696993D01*
X125284076Y-86696993D02*
X125398361Y-86696993D01*
X125398361Y-86696993D02*
X125474552Y-86735089D01*
X125474552Y-86735089D02*
X125512647Y-86773184D01*
X125512647Y-86773184D02*
X125550742Y-86849374D01*
X125550742Y-86849374D02*
X125550742Y-87154136D01*
X125931695Y-86354136D02*
X125131695Y-86354136D01*
X125131695Y-86354136D02*
X125131695Y-86163660D01*
X125131695Y-86163660D02*
X125169790Y-86049374D01*
X125169790Y-86049374D02*
X125245980Y-85973184D01*
X125245980Y-85973184D02*
X125322171Y-85935089D01*
X125322171Y-85935089D02*
X125474552Y-85896993D01*
X125474552Y-85896993D02*
X125588838Y-85896993D01*
X125588838Y-85896993D02*
X125741219Y-85935089D01*
X125741219Y-85935089D02*
X125817409Y-85973184D01*
X125817409Y-85973184D02*
X125893600Y-86049374D01*
X125893600Y-86049374D02*
X125931695Y-86163660D01*
X125931695Y-86163660D02*
X125931695Y-86354136D01*
X125550742Y-85401755D02*
X125931695Y-85401755D01*
X125131695Y-85668422D02*
X125550742Y-85401755D01*
X125550742Y-85401755D02*
X125131695Y-85135089D01*
X125863600Y-102376041D02*
X125901695Y-102261755D01*
X125901695Y-102261755D02*
X125901695Y-102071279D01*
X125901695Y-102071279D02*
X125863600Y-101995088D01*
X125863600Y-101995088D02*
X125825504Y-101956993D01*
X125825504Y-101956993D02*
X125749314Y-101918898D01*
X125749314Y-101918898D02*
X125673123Y-101918898D01*
X125673123Y-101918898D02*
X125596933Y-101956993D01*
X125596933Y-101956993D02*
X125558838Y-101995088D01*
X125558838Y-101995088D02*
X125520742Y-102071279D01*
X125520742Y-102071279D02*
X125482647Y-102223660D01*
X125482647Y-102223660D02*
X125444552Y-102299850D01*
X125444552Y-102299850D02*
X125406457Y-102337945D01*
X125406457Y-102337945D02*
X125330266Y-102376041D01*
X125330266Y-102376041D02*
X125254076Y-102376041D01*
X125254076Y-102376041D02*
X125177885Y-102337945D01*
X125177885Y-102337945D02*
X125139790Y-102299850D01*
X125139790Y-102299850D02*
X125101695Y-102223660D01*
X125101695Y-102223660D02*
X125101695Y-102033183D01*
X125101695Y-102033183D02*
X125139790Y-101918898D01*
X125520742Y-101423659D02*
X125901695Y-101423659D01*
X125101695Y-101690326D02*
X125520742Y-101423659D01*
X125520742Y-101423659D02*
X125101695Y-101156993D01*
X125901695Y-100890326D02*
X125101695Y-100890326D01*
X125101695Y-100890326D02*
X125901695Y-100433183D01*
X125901695Y-100433183D02*
X125101695Y-100433183D01*
X125825504Y-99595088D02*
X125863600Y-99633184D01*
X125863600Y-99633184D02*
X125901695Y-99747469D01*
X125901695Y-99747469D02*
X125901695Y-99823660D01*
X125901695Y-99823660D02*
X125863600Y-99937946D01*
X125863600Y-99937946D02*
X125787409Y-100014136D01*
X125787409Y-100014136D02*
X125711219Y-100052231D01*
X125711219Y-100052231D02*
X125558838Y-100090327D01*
X125558838Y-100090327D02*
X125444552Y-100090327D01*
X125444552Y-100090327D02*
X125292171Y-100052231D01*
X125292171Y-100052231D02*
X125215980Y-100014136D01*
X125215980Y-100014136D02*
X125139790Y-99937946D01*
X125139790Y-99937946D02*
X125101695Y-99823660D01*
X125101695Y-99823660D02*
X125101695Y-99747469D01*
X125101695Y-99747469D02*
X125139790Y-99633184D01*
X125139790Y-99633184D02*
X125177885Y-99595088D01*
X120181101Y-78217219D02*
X119847768Y-77741028D01*
X119609673Y-78217219D02*
X119609673Y-77217219D01*
X119609673Y-77217219D02*
X119990625Y-77217219D01*
X119990625Y-77217219D02*
X120085863Y-77264838D01*
X120085863Y-77264838D02*
X120133482Y-77312457D01*
X120133482Y-77312457D02*
X120181101Y-77407695D01*
X120181101Y-77407695D02*
X120181101Y-77550552D01*
X120181101Y-77550552D02*
X120133482Y-77645790D01*
X120133482Y-77645790D02*
X120085863Y-77693409D01*
X120085863Y-77693409D02*
X119990625Y-77741028D01*
X119990625Y-77741028D02*
X119609673Y-77741028D01*
X120609673Y-77693409D02*
X120943006Y-77693409D01*
X121085863Y-78217219D02*
X120609673Y-78217219D01*
X120609673Y-78217219D02*
X120609673Y-77217219D01*
X120609673Y-77217219D02*
X121085863Y-77217219D01*
X121847768Y-77693409D02*
X121514435Y-77693409D01*
X121514435Y-78217219D02*
X121514435Y-77217219D01*
X121514435Y-77217219D02*
X121990625Y-77217219D01*
X82711101Y-78217219D02*
X82377768Y-77741028D01*
X82139673Y-78217219D02*
X82139673Y-77217219D01*
X82139673Y-77217219D02*
X82520625Y-77217219D01*
X82520625Y-77217219D02*
X82615863Y-77264838D01*
X82615863Y-77264838D02*
X82663482Y-77312457D01*
X82663482Y-77312457D02*
X82711101Y-77407695D01*
X82711101Y-77407695D02*
X82711101Y-77550552D01*
X82711101Y-77550552D02*
X82663482Y-77645790D01*
X82663482Y-77645790D02*
X82615863Y-77693409D01*
X82615863Y-77693409D02*
X82520625Y-77741028D01*
X82520625Y-77741028D02*
X82139673Y-77741028D01*
X83139673Y-77693409D02*
X83473006Y-77693409D01*
X83615863Y-78217219D02*
X83139673Y-78217219D01*
X83139673Y-78217219D02*
X83139673Y-77217219D01*
X83139673Y-77217219D02*
X83615863Y-77217219D01*
X84377768Y-77693409D02*
X84044435Y-77693409D01*
X84044435Y-78217219D02*
X84044435Y-77217219D01*
X84044435Y-77217219D02*
X84520625Y-77217219D01*
X125805504Y-98520802D02*
X125843600Y-98558898D01*
X125843600Y-98558898D02*
X125881695Y-98673183D01*
X125881695Y-98673183D02*
X125881695Y-98749374D01*
X125881695Y-98749374D02*
X125843600Y-98863660D01*
X125843600Y-98863660D02*
X125767409Y-98939850D01*
X125767409Y-98939850D02*
X125691219Y-98977945D01*
X125691219Y-98977945D02*
X125538838Y-99016041D01*
X125538838Y-99016041D02*
X125424552Y-99016041D01*
X125424552Y-99016041D02*
X125272171Y-98977945D01*
X125272171Y-98977945D02*
X125195980Y-98939850D01*
X125195980Y-98939850D02*
X125119790Y-98863660D01*
X125119790Y-98863660D02*
X125081695Y-98749374D01*
X125081695Y-98749374D02*
X125081695Y-98673183D01*
X125081695Y-98673183D02*
X125119790Y-98558898D01*
X125119790Y-98558898D02*
X125157885Y-98520802D01*
X125843600Y-98216041D02*
X125881695Y-98101755D01*
X125881695Y-98101755D02*
X125881695Y-97911279D01*
X125881695Y-97911279D02*
X125843600Y-97835088D01*
X125843600Y-97835088D02*
X125805504Y-97796993D01*
X125805504Y-97796993D02*
X125729314Y-97758898D01*
X125729314Y-97758898D02*
X125653123Y-97758898D01*
X125653123Y-97758898D02*
X125576933Y-97796993D01*
X125576933Y-97796993D02*
X125538838Y-97835088D01*
X125538838Y-97835088D02*
X125500742Y-97911279D01*
X125500742Y-97911279D02*
X125462647Y-98063660D01*
X125462647Y-98063660D02*
X125424552Y-98139850D01*
X125424552Y-98139850D02*
X125386457Y-98177945D01*
X125386457Y-98177945D02*
X125310266Y-98216041D01*
X125310266Y-98216041D02*
X125234076Y-98216041D01*
X125234076Y-98216041D02*
X125157885Y-98177945D01*
X125157885Y-98177945D02*
X125119790Y-98139850D01*
X125119790Y-98139850D02*
X125081695Y-98063660D01*
X125081695Y-98063660D02*
X125081695Y-97873183D01*
X125081695Y-97873183D02*
X125119790Y-97758898D01*
X125863600Y-97126041D02*
X125901695Y-97011755D01*
X125901695Y-97011755D02*
X125901695Y-96821279D01*
X125901695Y-96821279D02*
X125863600Y-96745088D01*
X125863600Y-96745088D02*
X125825504Y-96706993D01*
X125825504Y-96706993D02*
X125749314Y-96668898D01*
X125749314Y-96668898D02*
X125673123Y-96668898D01*
X125673123Y-96668898D02*
X125596933Y-96706993D01*
X125596933Y-96706993D02*
X125558838Y-96745088D01*
X125558838Y-96745088D02*
X125520742Y-96821279D01*
X125520742Y-96821279D02*
X125482647Y-96973660D01*
X125482647Y-96973660D02*
X125444552Y-97049850D01*
X125444552Y-97049850D02*
X125406457Y-97087945D01*
X125406457Y-97087945D02*
X125330266Y-97126041D01*
X125330266Y-97126041D02*
X125254076Y-97126041D01*
X125254076Y-97126041D02*
X125177885Y-97087945D01*
X125177885Y-97087945D02*
X125139790Y-97049850D01*
X125139790Y-97049850D02*
X125101695Y-96973660D01*
X125101695Y-96973660D02*
X125101695Y-96783183D01*
X125101695Y-96783183D02*
X125139790Y-96668898D01*
X125825504Y-95868897D02*
X125863600Y-95906993D01*
X125863600Y-95906993D02*
X125901695Y-96021278D01*
X125901695Y-96021278D02*
X125901695Y-96097469D01*
X125901695Y-96097469D02*
X125863600Y-96211755D01*
X125863600Y-96211755D02*
X125787409Y-96287945D01*
X125787409Y-96287945D02*
X125711219Y-96326040D01*
X125711219Y-96326040D02*
X125558838Y-96364136D01*
X125558838Y-96364136D02*
X125444552Y-96364136D01*
X125444552Y-96364136D02*
X125292171Y-96326040D01*
X125292171Y-96326040D02*
X125215980Y-96287945D01*
X125215980Y-96287945D02*
X125139790Y-96211755D01*
X125139790Y-96211755D02*
X125101695Y-96097469D01*
X125101695Y-96097469D02*
X125101695Y-96021278D01*
X125101695Y-96021278D02*
X125139790Y-95906993D01*
X125139790Y-95906993D02*
X125177885Y-95868897D01*
X125901695Y-95145088D02*
X125901695Y-95526040D01*
X125901695Y-95526040D02*
X125101695Y-95526040D01*
X125901695Y-94878421D02*
X125101695Y-94878421D01*
X125901695Y-94421278D02*
X125444552Y-94764136D01*
X125101695Y-94421278D02*
X125558838Y-94878421D01*
X125901695Y-93817945D02*
X125101695Y-93817945D01*
X125101695Y-93817945D02*
X125101695Y-93627469D01*
X125101695Y-93627469D02*
X125139790Y-93513183D01*
X125139790Y-93513183D02*
X125215980Y-93436993D01*
X125215980Y-93436993D02*
X125292171Y-93398898D01*
X125292171Y-93398898D02*
X125444552Y-93360802D01*
X125444552Y-93360802D02*
X125558838Y-93360802D01*
X125558838Y-93360802D02*
X125711219Y-93398898D01*
X125711219Y-93398898D02*
X125787409Y-93436993D01*
X125787409Y-93436993D02*
X125863600Y-93513183D01*
X125863600Y-93513183D02*
X125901695Y-93627469D01*
X125901695Y-93627469D02*
X125901695Y-93817945D01*
X125901695Y-93017945D02*
X125101695Y-93017945D01*
X125901695Y-92636993D02*
X125101695Y-92636993D01*
X125101695Y-92636993D02*
X125901695Y-92179850D01*
X125901695Y-92179850D02*
X125101695Y-92179850D01*
D11*
X112798067Y-82535318D02*
X112798067Y-83442461D01*
X112798067Y-83442461D02*
X112737590Y-83623889D01*
X112737590Y-83623889D02*
X112616638Y-83744842D01*
X112616638Y-83744842D02*
X112435209Y-83805318D01*
X112435209Y-83805318D02*
X112314257Y-83805318D01*
X113947114Y-82958651D02*
X113947114Y-83805318D01*
X113644733Y-82474842D02*
X113342352Y-83381984D01*
X113342352Y-83381984D02*
X114128543Y-83381984D01*
X89711467Y-82519518D02*
X89711467Y-83426661D01*
X89711467Y-83426661D02*
X89650990Y-83608089D01*
X89650990Y-83608089D02*
X89530038Y-83729042D01*
X89530038Y-83729042D02*
X89348609Y-83789518D01*
X89348609Y-83789518D02*
X89227657Y-83789518D01*
X90195276Y-82519518D02*
X90981467Y-82519518D01*
X90981467Y-82519518D02*
X90558133Y-83003327D01*
X90558133Y-83003327D02*
X90739562Y-83003327D01*
X90739562Y-83003327D02*
X90860514Y-83063803D01*
X90860514Y-83063803D02*
X90920990Y-83124280D01*
X90920990Y-83124280D02*
X90981467Y-83245232D01*
X90981467Y-83245232D02*
X90981467Y-83547613D01*
X90981467Y-83547613D02*
X90920990Y-83668565D01*
X90920990Y-83668565D02*
X90860514Y-83729042D01*
X90860514Y-83729042D02*
X90739562Y-83789518D01*
X90739562Y-83789518D02*
X90376705Y-83789518D01*
X90376705Y-83789518D02*
X90255752Y-83729042D01*
X90255752Y-83729042D02*
X90195276Y-83668565D01*
D12*
%TO.C,U1*%
X108050000Y-96395000D02*
X103550000Y-96395000D01*
X108050000Y-104315000D02*
X103550000Y-104315000D01*
D13*
X101710000Y-96420000D02*
G75*
G02*
X101530000Y-96420000I-90000J0D01*
G01*
X101530000Y-96420000D02*
G75*
G02*
X101710000Y-96420000I90000J0D01*
G01*
D12*
%TO.C,R18*%
X119105000Y-89905000D02*
X118545000Y-89905000D01*
X119105000Y-91155000D02*
X118545000Y-91155000D01*
D14*
%TO.C,J5*%
X92650000Y-102448000D02*
X92650000Y-102388000D01*
X95100000Y-102388000D02*
X92480000Y-102388000D01*
X95100000Y-102448000D02*
X92650000Y-102448000D01*
X95100000Y-102448000D02*
X95100000Y-102388000D01*
X95100000Y-103718000D02*
X95100000Y-105048000D01*
X95100000Y-105048000D02*
X93980000Y-105048000D01*
D12*
%TO.C,R17*%
X111958800Y-89980000D02*
X111958800Y-90420000D01*
X113358800Y-89980000D02*
X113358800Y-90420000D01*
D10*
%TO.C,J4*%
X102921400Y-79431000D02*
X123521400Y-79431000D01*
X102921400Y-87031000D02*
X102921400Y-79431000D01*
D15*
X120421400Y-78881000D02*
X120421400Y-78881000D01*
X120421400Y-78981000D02*
X120421400Y-78981000D01*
D10*
X123521400Y-79431000D02*
X123521400Y-87031000D01*
X123521400Y-87031000D02*
X102921400Y-87031000D01*
D15*
X120421400Y-78881000D02*
G75*
G02*
X120421400Y-78981000I0J-50000D01*
G01*
X120421400Y-78981000D02*
G75*
G02*
X120421400Y-78881000I0J50000D01*
G01*
D16*
%TO.C,IC1*%
X80474600Y-91075400D02*
X80474600Y-94275800D01*
X83675000Y-92370800D02*
X83675000Y-91075400D01*
X83675000Y-92980400D02*
X83675000Y-92370800D01*
X83675000Y-94275800D02*
X83675000Y-92980400D01*
D10*
%TO.C,J3*%
X79834800Y-79415200D02*
X100434800Y-79415200D01*
X79834800Y-87015200D02*
X79834800Y-79415200D01*
D15*
X82934800Y-87465200D02*
X82934800Y-87465200D01*
X82934800Y-87565200D02*
X82934800Y-87565200D01*
D10*
X100434800Y-79415200D02*
X100434800Y-87015200D01*
X100434800Y-87015200D02*
X79834800Y-87015200D01*
D15*
X82934800Y-87465200D02*
G75*
G02*
X82934800Y-87565200I0J-50000D01*
G01*
X82934800Y-87565200D02*
G75*
G02*
X82934800Y-87465200I0J50000D01*
G01*
D12*
%TO.C,R7*%
X119055000Y-92465000D02*
X118495000Y-92465000D01*
X119055000Y-93715000D02*
X118495000Y-93715000D01*
%TO.C,R3*%
X97880000Y-90000000D02*
X97880000Y-90440000D01*
X99280000Y-90000000D02*
X99280000Y-90440000D01*
%TO.C,R9*%
X101294200Y-91583200D02*
X101294200Y-91023200D01*
X102544200Y-91583200D02*
X102544200Y-91023200D01*
%TO.C,R14*%
X119065000Y-100095000D02*
X118505000Y-100095000D01*
X119065000Y-101345000D02*
X118505000Y-101345000D01*
%TO.C,R6*%
X104407600Y-91873200D02*
X104847600Y-91873200D01*
X104407600Y-93273200D02*
X104847600Y-93273200D01*
%TO.C,R4*%
X95774400Y-90019800D02*
X95774400Y-90459800D01*
X97174400Y-90019800D02*
X97174400Y-90459800D01*
D10*
%TO.C,C6*%
X92960000Y-90250000D02*
G75*
G02*
X92860000Y-90250000I-50000J0D01*
G01*
X92860000Y-90250000D02*
G75*
G02*
X92960000Y-90250000I50000J0D01*
G01*
D12*
%TO.C,C2*%
X82104000Y-102810000D02*
X81524000Y-102810000D01*
X82104000Y-104610000D02*
X81524000Y-104610000D01*
%TO.C,R5*%
X104407600Y-88850600D02*
X104847600Y-88850600D01*
X104407600Y-90250600D02*
X104847600Y-90250600D01*
%TO.C,R13*%
X119055000Y-97545000D02*
X118495000Y-97545000D01*
X119055000Y-98795000D02*
X118495000Y-98795000D01*
D14*
%TO.C,J6*%
X95370000Y-102448000D02*
X95370000Y-102388000D01*
X97850000Y-102388000D02*
X95380000Y-102388000D01*
X97850000Y-102448000D02*
X95380000Y-102448000D01*
X97850000Y-102448000D02*
X97850000Y-102388000D01*
X97850000Y-103718000D02*
X97850000Y-105048000D01*
X97850000Y-105048000D02*
X96520000Y-105048000D01*
D12*
%TO.C,R19*%
X114060000Y-89980000D02*
X114060000Y-90420000D01*
X115460000Y-89980000D02*
X115460000Y-90420000D01*
D14*
%TO.C,J2*%
X121390000Y-99440000D02*
X121390000Y-89220000D01*
X124050000Y-89220000D02*
X121390000Y-89220000D01*
X124050000Y-99440000D02*
X121390000Y-99440000D01*
X124050000Y-99440000D02*
X124050000Y-89220000D01*
X124050000Y-100710000D02*
X124050000Y-102040000D01*
X124050000Y-102040000D02*
X122720000Y-102040000D01*
D12*
%TO.C,R8*%
X119065000Y-95015000D02*
X118505000Y-95015000D01*
X119065000Y-96265000D02*
X118505000Y-96265000D01*
D16*
%TO.C,U2*%
X86519800Y-105360200D02*
X89720200Y-105360200D01*
X87815200Y-102159800D02*
X86519800Y-102159800D01*
X88424800Y-102159800D02*
X87815200Y-102159800D01*
X89720200Y-102159800D02*
X88424800Y-102159800D01*
D15*
X88424800Y-102159800D02*
G75*
G02*
X87815200Y-102159800I-304800J0D01*
G01*
%TD*%
M02*
