%TF.GenerationSoftware,KiCad,Pcbnew,8.0.3*%
%TF.CreationDate,2024-08-07T15:39:49+03:00*%
%TF.ProjectId,Thermometer Schematic,54686572-6d6f-46d6-9574-657220536368,rev?*%
%TF.SameCoordinates,Original*%
%TF.FileFunction,Legend,Bot*%
%TF.FilePolarity,Positive*%
%FSLAX46Y46*%
G04 Gerber Fmt 4.6, Leading zero omitted, Abs format (unit mm)*
G04 Created by KiCad (PCBNEW 8.0.3) date 2024-08-07 15:39:49*
%MOMM*%
%LPD*%
G01*
G04 APERTURE LIST*
%ADD10C,0.100000*%
G04 APERTURE END LIST*
D10*
X110293734Y-91036760D02*
X109817544Y-91036760D01*
X110388972Y-91322475D02*
X110055639Y-90322475D01*
X110055639Y-90322475D02*
X109722306Y-91322475D01*
X109388972Y-91322475D02*
X109388972Y-90322475D01*
X109388972Y-90322475D02*
X109150877Y-90322475D01*
X109150877Y-90322475D02*
X109008020Y-90370094D01*
X109008020Y-90370094D02*
X108912782Y-90465332D01*
X108912782Y-90465332D02*
X108865163Y-90560570D01*
X108865163Y-90560570D02*
X108817544Y-90751046D01*
X108817544Y-90751046D02*
X108817544Y-90893903D01*
X108817544Y-90893903D02*
X108865163Y-91084379D01*
X108865163Y-91084379D02*
X108912782Y-91179617D01*
X108912782Y-91179617D02*
X109008020Y-91274856D01*
X109008020Y-91274856D02*
X109150877Y-91322475D01*
X109150877Y-91322475D02*
X109388972Y-91322475D01*
X108484210Y-90322475D02*
X107817544Y-90322475D01*
X107817544Y-90322475D02*
X108246115Y-91322475D01*
X106912782Y-91322475D02*
X107484210Y-91322475D01*
X107198496Y-91322475D02*
X107198496Y-90322475D01*
X107198496Y-90322475D02*
X107293734Y-90465332D01*
X107293734Y-90465332D02*
X107388972Y-90560570D01*
X107388972Y-90560570D02*
X107484210Y-90608189D01*
X106531829Y-90417713D02*
X106484210Y-90370094D01*
X106484210Y-90370094D02*
X106388972Y-90322475D01*
X106388972Y-90322475D02*
X106150877Y-90322475D01*
X106150877Y-90322475D02*
X106055639Y-90370094D01*
X106055639Y-90370094D02*
X106008020Y-90417713D01*
X106008020Y-90417713D02*
X105960401Y-90512951D01*
X105960401Y-90512951D02*
X105960401Y-90608189D01*
X105960401Y-90608189D02*
X106008020Y-90751046D01*
X106008020Y-90751046D02*
X106579448Y-91322475D01*
X106579448Y-91322475D02*
X105960401Y-91322475D01*
X105103258Y-90655808D02*
X105103258Y-91322475D01*
X105341353Y-90274856D02*
X105579448Y-90989141D01*
X105579448Y-90989141D02*
X104960401Y-90989141D01*
X104579448Y-90941522D02*
X103817544Y-90941522D01*
X102912782Y-90655808D02*
X102912782Y-91322475D01*
X103150877Y-90274856D02*
X103388972Y-90989141D01*
X103388972Y-90989141D02*
X102769925Y-90989141D01*
X102055639Y-90798665D02*
X101912782Y-90846284D01*
X101912782Y-90846284D02*
X101865163Y-90893903D01*
X101865163Y-90893903D02*
X101817544Y-90989141D01*
X101817544Y-90989141D02*
X101817544Y-91131998D01*
X101817544Y-91131998D02*
X101865163Y-91227236D01*
X101865163Y-91227236D02*
X101912782Y-91274856D01*
X101912782Y-91274856D02*
X102008020Y-91322475D01*
X102008020Y-91322475D02*
X102388972Y-91322475D01*
X102388972Y-91322475D02*
X102388972Y-90322475D01*
X102388972Y-90322475D02*
X102055639Y-90322475D01*
X102055639Y-90322475D02*
X101960401Y-90370094D01*
X101960401Y-90370094D02*
X101912782Y-90417713D01*
X101912782Y-90417713D02*
X101865163Y-90512951D01*
X101865163Y-90512951D02*
X101865163Y-90608189D01*
X101865163Y-90608189D02*
X101912782Y-90703427D01*
X101912782Y-90703427D02*
X101960401Y-90751046D01*
X101960401Y-90751046D02*
X102055639Y-90798665D01*
X102055639Y-90798665D02*
X102388972Y-90798665D01*
X100817544Y-91322475D02*
X101150877Y-90846284D01*
X101388972Y-91322475D02*
X101388972Y-90322475D01*
X101388972Y-90322475D02*
X101008020Y-90322475D01*
X101008020Y-90322475D02*
X100912782Y-90370094D01*
X100912782Y-90370094D02*
X100865163Y-90417713D01*
X100865163Y-90417713D02*
X100817544Y-90512951D01*
X100817544Y-90512951D02*
X100817544Y-90655808D01*
X100817544Y-90655808D02*
X100865163Y-90751046D01*
X100865163Y-90751046D02*
X100912782Y-90798665D01*
X100912782Y-90798665D02*
X101008020Y-90846284D01*
X101008020Y-90846284D02*
X101388972Y-90846284D01*
X100388972Y-90322475D02*
X100388972Y-91131998D01*
X100388972Y-91131998D02*
X100341353Y-91227236D01*
X100341353Y-91227236D02*
X100293734Y-91274856D01*
X100293734Y-91274856D02*
X100198496Y-91322475D01*
X100198496Y-91322475D02*
X100008020Y-91322475D01*
X100008020Y-91322475D02*
X99912782Y-91274856D01*
X99912782Y-91274856D02*
X99865163Y-91227236D01*
X99865163Y-91227236D02*
X99817544Y-91131998D01*
X99817544Y-91131998D02*
X99817544Y-90322475D01*
X99436591Y-90322475D02*
X98769925Y-90322475D01*
X98769925Y-90322475D02*
X99436591Y-91322475D01*
X99436591Y-91322475D02*
X98769925Y-91322475D01*
X98388972Y-90941522D02*
X97627068Y-90941522D01*
X96579449Y-91322475D02*
X96912782Y-90846284D01*
X97150877Y-91322475D02*
X97150877Y-90322475D01*
X97150877Y-90322475D02*
X96769925Y-90322475D01*
X96769925Y-90322475D02*
X96674687Y-90370094D01*
X96674687Y-90370094D02*
X96627068Y-90417713D01*
X96627068Y-90417713D02*
X96579449Y-90512951D01*
X96579449Y-90512951D02*
X96579449Y-90655808D01*
X96579449Y-90655808D02*
X96627068Y-90751046D01*
X96627068Y-90751046D02*
X96674687Y-90798665D01*
X96674687Y-90798665D02*
X96769925Y-90846284D01*
X96769925Y-90846284D02*
X97150877Y-90846284D01*
X95674687Y-91322475D02*
X96150877Y-91322475D01*
X96150877Y-91322475D02*
X96150877Y-90322475D01*
X94246115Y-90798665D02*
X94103258Y-90846284D01*
X94103258Y-90846284D02*
X94055639Y-90893903D01*
X94055639Y-90893903D02*
X94008020Y-90989141D01*
X94008020Y-90989141D02*
X94008020Y-91131998D01*
X94008020Y-91131998D02*
X94055639Y-91227236D01*
X94055639Y-91227236D02*
X94103258Y-91274856D01*
X94103258Y-91274856D02*
X94198496Y-91322475D01*
X94198496Y-91322475D02*
X94579448Y-91322475D01*
X94579448Y-91322475D02*
X94579448Y-90322475D01*
X94579448Y-90322475D02*
X94246115Y-90322475D01*
X94246115Y-90322475D02*
X94150877Y-90370094D01*
X94150877Y-90370094D02*
X94103258Y-90417713D01*
X94103258Y-90417713D02*
X94055639Y-90512951D01*
X94055639Y-90512951D02*
X94055639Y-90608189D01*
X94055639Y-90608189D02*
X94103258Y-90703427D01*
X94103258Y-90703427D02*
X94150877Y-90751046D01*
X94150877Y-90751046D02*
X94246115Y-90798665D01*
X94246115Y-90798665D02*
X94579448Y-90798665D01*
X93150877Y-91322475D02*
X93150877Y-90798665D01*
X93150877Y-90798665D02*
X93198496Y-90703427D01*
X93198496Y-90703427D02*
X93293734Y-90655808D01*
X93293734Y-90655808D02*
X93484210Y-90655808D01*
X93484210Y-90655808D02*
X93579448Y-90703427D01*
X93150877Y-91274856D02*
X93246115Y-91322475D01*
X93246115Y-91322475D02*
X93484210Y-91322475D01*
X93484210Y-91322475D02*
X93579448Y-91274856D01*
X93579448Y-91274856D02*
X93627067Y-91179617D01*
X93627067Y-91179617D02*
X93627067Y-91084379D01*
X93627067Y-91084379D02*
X93579448Y-90989141D01*
X93579448Y-90989141D02*
X93484210Y-90941522D01*
X93484210Y-90941522D02*
X93246115Y-90941522D01*
X93246115Y-90941522D02*
X93150877Y-90893903D01*
X92722305Y-91274856D02*
X92627067Y-91322475D01*
X92627067Y-91322475D02*
X92436591Y-91322475D01*
X92436591Y-91322475D02*
X92341353Y-91274856D01*
X92341353Y-91274856D02*
X92293734Y-91179617D01*
X92293734Y-91179617D02*
X92293734Y-91131998D01*
X92293734Y-91131998D02*
X92341353Y-91036760D01*
X92341353Y-91036760D02*
X92436591Y-90989141D01*
X92436591Y-90989141D02*
X92579448Y-90989141D01*
X92579448Y-90989141D02*
X92674686Y-90941522D01*
X92674686Y-90941522D02*
X92722305Y-90846284D01*
X92722305Y-90846284D02*
X92722305Y-90798665D01*
X92722305Y-90798665D02*
X92674686Y-90703427D01*
X92674686Y-90703427D02*
X92579448Y-90655808D01*
X92579448Y-90655808D02*
X92436591Y-90655808D01*
X92436591Y-90655808D02*
X92341353Y-90703427D01*
X91484210Y-91274856D02*
X91579448Y-91322475D01*
X91579448Y-91322475D02*
X91769924Y-91322475D01*
X91769924Y-91322475D02*
X91865162Y-91274856D01*
X91865162Y-91274856D02*
X91912781Y-91179617D01*
X91912781Y-91179617D02*
X91912781Y-90798665D01*
X91912781Y-90798665D02*
X91865162Y-90703427D01*
X91865162Y-90703427D02*
X91769924Y-90655808D01*
X91769924Y-90655808D02*
X91579448Y-90655808D01*
X91579448Y-90655808D02*
X91484210Y-90703427D01*
X91484210Y-90703427D02*
X91436591Y-90798665D01*
X91436591Y-90798665D02*
X91436591Y-90893903D01*
X91436591Y-90893903D02*
X91912781Y-90989141D01*
X90579448Y-91322475D02*
X90579448Y-90322475D01*
X90579448Y-91274856D02*
X90674686Y-91322475D01*
X90674686Y-91322475D02*
X90865162Y-91322475D01*
X90865162Y-91322475D02*
X90960400Y-91274856D01*
X90960400Y-91274856D02*
X91008019Y-91227236D01*
X91008019Y-91227236D02*
X91055638Y-91131998D01*
X91055638Y-91131998D02*
X91055638Y-90846284D01*
X91055638Y-90846284D02*
X91008019Y-90751046D01*
X91008019Y-90751046D02*
X90960400Y-90703427D01*
X90960400Y-90703427D02*
X90865162Y-90655808D01*
X90865162Y-90655808D02*
X90674686Y-90655808D01*
X90674686Y-90655808D02*
X90579448Y-90703427D01*
X89341352Y-91322475D02*
X89341352Y-90322475D01*
X89341352Y-90322475D02*
X88960400Y-90322475D01*
X88960400Y-90322475D02*
X88865162Y-90370094D01*
X88865162Y-90370094D02*
X88817543Y-90417713D01*
X88817543Y-90417713D02*
X88769924Y-90512951D01*
X88769924Y-90512951D02*
X88769924Y-90655808D01*
X88769924Y-90655808D02*
X88817543Y-90751046D01*
X88817543Y-90751046D02*
X88865162Y-90798665D01*
X88865162Y-90798665D02*
X88960400Y-90846284D01*
X88960400Y-90846284D02*
X89341352Y-90846284D01*
X87769924Y-91227236D02*
X87817543Y-91274856D01*
X87817543Y-91274856D02*
X87960400Y-91322475D01*
X87960400Y-91322475D02*
X88055638Y-91322475D01*
X88055638Y-91322475D02*
X88198495Y-91274856D01*
X88198495Y-91274856D02*
X88293733Y-91179617D01*
X88293733Y-91179617D02*
X88341352Y-91084379D01*
X88341352Y-91084379D02*
X88388971Y-90893903D01*
X88388971Y-90893903D02*
X88388971Y-90751046D01*
X88388971Y-90751046D02*
X88341352Y-90560570D01*
X88341352Y-90560570D02*
X88293733Y-90465332D01*
X88293733Y-90465332D02*
X88198495Y-90370094D01*
X88198495Y-90370094D02*
X88055638Y-90322475D01*
X88055638Y-90322475D02*
X87960400Y-90322475D01*
X87960400Y-90322475D02*
X87817543Y-90370094D01*
X87817543Y-90370094D02*
X87769924Y-90417713D01*
X87008019Y-90798665D02*
X86865162Y-90846284D01*
X86865162Y-90846284D02*
X86817543Y-90893903D01*
X86817543Y-90893903D02*
X86769924Y-90989141D01*
X86769924Y-90989141D02*
X86769924Y-91131998D01*
X86769924Y-91131998D02*
X86817543Y-91227236D01*
X86817543Y-91227236D02*
X86865162Y-91274856D01*
X86865162Y-91274856D02*
X86960400Y-91322475D01*
X86960400Y-91322475D02*
X87341352Y-91322475D01*
X87341352Y-91322475D02*
X87341352Y-90322475D01*
X87341352Y-90322475D02*
X87008019Y-90322475D01*
X87008019Y-90322475D02*
X86912781Y-90370094D01*
X86912781Y-90370094D02*
X86865162Y-90417713D01*
X86865162Y-90417713D02*
X86817543Y-90512951D01*
X86817543Y-90512951D02*
X86817543Y-90608189D01*
X86817543Y-90608189D02*
X86865162Y-90703427D01*
X86865162Y-90703427D02*
X86912781Y-90751046D01*
X86912781Y-90751046D02*
X87008019Y-90798665D01*
X87008019Y-90798665D02*
X87341352Y-90798665D01*
X85722304Y-90655808D02*
X85341352Y-90655808D01*
X85579447Y-91322475D02*
X85579447Y-90465332D01*
X85579447Y-90465332D02*
X85531828Y-90370094D01*
X85531828Y-90370094D02*
X85436590Y-90322475D01*
X85436590Y-90322475D02*
X85341352Y-90322475D01*
X84865161Y-91322475D02*
X84960399Y-91274856D01*
X84960399Y-91274856D02*
X85008018Y-91227236D01*
X85008018Y-91227236D02*
X85055637Y-91131998D01*
X85055637Y-91131998D02*
X85055637Y-90846284D01*
X85055637Y-90846284D02*
X85008018Y-90751046D01*
X85008018Y-90751046D02*
X84960399Y-90703427D01*
X84960399Y-90703427D02*
X84865161Y-90655808D01*
X84865161Y-90655808D02*
X84722304Y-90655808D01*
X84722304Y-90655808D02*
X84627066Y-90703427D01*
X84627066Y-90703427D02*
X84579447Y-90751046D01*
X84579447Y-90751046D02*
X84531828Y-90846284D01*
X84531828Y-90846284D02*
X84531828Y-91131998D01*
X84531828Y-91131998D02*
X84579447Y-91227236D01*
X84579447Y-91227236D02*
X84627066Y-91274856D01*
X84627066Y-91274856D02*
X84722304Y-91322475D01*
X84722304Y-91322475D02*
X84865161Y-91322475D01*
X84103256Y-91322475D02*
X84103256Y-90655808D01*
X84103256Y-90846284D02*
X84055637Y-90751046D01*
X84055637Y-90751046D02*
X84008018Y-90703427D01*
X84008018Y-90703427D02*
X83912780Y-90655808D01*
X83912780Y-90655808D02*
X83817542Y-90655808D01*
X109817544Y-92265752D02*
X109817544Y-92932419D01*
X110055639Y-91884800D02*
X110293734Y-92599085D01*
X110293734Y-92599085D02*
X109674687Y-92599085D01*
X109293734Y-92551466D02*
X108531830Y-92551466D01*
X108150877Y-91932419D02*
X107912782Y-92932419D01*
X107912782Y-92932419D02*
X107722306Y-92218133D01*
X107722306Y-92218133D02*
X107531830Y-92932419D01*
X107531830Y-92932419D02*
X107293735Y-91932419D01*
X106912782Y-92932419D02*
X106912782Y-92265752D01*
X106912782Y-91932419D02*
X106960401Y-91980038D01*
X106960401Y-91980038D02*
X106912782Y-92027657D01*
X106912782Y-92027657D02*
X106865163Y-91980038D01*
X106865163Y-91980038D02*
X106912782Y-91932419D01*
X106912782Y-91932419D02*
X106912782Y-92027657D01*
X106436592Y-92932419D02*
X106436592Y-92265752D01*
X106436592Y-92456228D02*
X106388973Y-92360990D01*
X106388973Y-92360990D02*
X106341354Y-92313371D01*
X106341354Y-92313371D02*
X106246116Y-92265752D01*
X106246116Y-92265752D02*
X106150878Y-92265752D01*
X105436592Y-92884800D02*
X105531830Y-92932419D01*
X105531830Y-92932419D02*
X105722306Y-92932419D01*
X105722306Y-92932419D02*
X105817544Y-92884800D01*
X105817544Y-92884800D02*
X105865163Y-92789561D01*
X105865163Y-92789561D02*
X105865163Y-92408609D01*
X105865163Y-92408609D02*
X105817544Y-92313371D01*
X105817544Y-92313371D02*
X105722306Y-92265752D01*
X105722306Y-92265752D02*
X105531830Y-92265752D01*
X105531830Y-92265752D02*
X105436592Y-92313371D01*
X105436592Y-92313371D02*
X105388973Y-92408609D01*
X105388973Y-92408609D02*
X105388973Y-92503847D01*
X105388973Y-92503847D02*
X105865163Y-92599085D01*
X104198496Y-92932419D02*
X104198496Y-91932419D01*
X104198496Y-91932419D02*
X103817544Y-91932419D01*
X103817544Y-91932419D02*
X103722306Y-91980038D01*
X103722306Y-91980038D02*
X103674687Y-92027657D01*
X103674687Y-92027657D02*
X103627068Y-92122895D01*
X103627068Y-92122895D02*
X103627068Y-92265752D01*
X103627068Y-92265752D02*
X103674687Y-92360990D01*
X103674687Y-92360990D02*
X103722306Y-92408609D01*
X103722306Y-92408609D02*
X103817544Y-92456228D01*
X103817544Y-92456228D02*
X104198496Y-92456228D01*
X102674687Y-92932419D02*
X103246115Y-92932419D01*
X102960401Y-92932419D02*
X102960401Y-91932419D01*
X102960401Y-91932419D02*
X103055639Y-92075276D01*
X103055639Y-92075276D02*
X103150877Y-92170514D01*
X103150877Y-92170514D02*
X103246115Y-92218133D01*
X102055639Y-91932419D02*
X101960401Y-91932419D01*
X101960401Y-91932419D02*
X101865163Y-91980038D01*
X101865163Y-91980038D02*
X101817544Y-92027657D01*
X101817544Y-92027657D02*
X101769925Y-92122895D01*
X101769925Y-92122895D02*
X101722306Y-92313371D01*
X101722306Y-92313371D02*
X101722306Y-92551466D01*
X101722306Y-92551466D02*
X101769925Y-92741942D01*
X101769925Y-92741942D02*
X101817544Y-92837180D01*
X101817544Y-92837180D02*
X101865163Y-92884800D01*
X101865163Y-92884800D02*
X101960401Y-92932419D01*
X101960401Y-92932419D02*
X102055639Y-92932419D01*
X102055639Y-92932419D02*
X102150877Y-92884800D01*
X102150877Y-92884800D02*
X102198496Y-92837180D01*
X102198496Y-92837180D02*
X102246115Y-92741942D01*
X102246115Y-92741942D02*
X102293734Y-92551466D01*
X102293734Y-92551466D02*
X102293734Y-92313371D01*
X102293734Y-92313371D02*
X102246115Y-92122895D01*
X102246115Y-92122895D02*
X102198496Y-92027657D01*
X102198496Y-92027657D02*
X102150877Y-91980038D01*
X102150877Y-91980038D02*
X102055639Y-91932419D01*
X101103258Y-91932419D02*
X101008020Y-91932419D01*
X101008020Y-91932419D02*
X100912782Y-91980038D01*
X100912782Y-91980038D02*
X100865163Y-92027657D01*
X100865163Y-92027657D02*
X100817544Y-92122895D01*
X100817544Y-92122895D02*
X100769925Y-92313371D01*
X100769925Y-92313371D02*
X100769925Y-92551466D01*
X100769925Y-92551466D02*
X100817544Y-92741942D01*
X100817544Y-92741942D02*
X100865163Y-92837180D01*
X100865163Y-92837180D02*
X100912782Y-92884800D01*
X100912782Y-92884800D02*
X101008020Y-92932419D01*
X101008020Y-92932419D02*
X101103258Y-92932419D01*
X101103258Y-92932419D02*
X101198496Y-92884800D01*
X101198496Y-92884800D02*
X101246115Y-92837180D01*
X101246115Y-92837180D02*
X101293734Y-92741942D01*
X101293734Y-92741942D02*
X101341353Y-92551466D01*
X101341353Y-92551466D02*
X101341353Y-92313371D01*
X101341353Y-92313371D02*
X101293734Y-92122895D01*
X101293734Y-92122895D02*
X101246115Y-92027657D01*
X101246115Y-92027657D02*
X101198496Y-91980038D01*
X101198496Y-91980038D02*
X101103258Y-91932419D01*
X99008020Y-92932419D02*
X99341353Y-92456228D01*
X99579448Y-92932419D02*
X99579448Y-91932419D01*
X99579448Y-91932419D02*
X99198496Y-91932419D01*
X99198496Y-91932419D02*
X99103258Y-91980038D01*
X99103258Y-91980038D02*
X99055639Y-92027657D01*
X99055639Y-92027657D02*
X99008020Y-92122895D01*
X99008020Y-92122895D02*
X99008020Y-92265752D01*
X99008020Y-92265752D02*
X99055639Y-92360990D01*
X99055639Y-92360990D02*
X99103258Y-92408609D01*
X99103258Y-92408609D02*
X99198496Y-92456228D01*
X99198496Y-92456228D02*
X99579448Y-92456228D01*
X98722305Y-91932419D02*
X98150877Y-91932419D01*
X98436591Y-92932419D02*
X98436591Y-91932419D01*
X97817543Y-92932419D02*
X97817543Y-91932419D01*
X97817543Y-91932419D02*
X97579448Y-91932419D01*
X97579448Y-91932419D02*
X97436591Y-91980038D01*
X97436591Y-91980038D02*
X97341353Y-92075276D01*
X97341353Y-92075276D02*
X97293734Y-92170514D01*
X97293734Y-92170514D02*
X97246115Y-92360990D01*
X97246115Y-92360990D02*
X97246115Y-92503847D01*
X97246115Y-92503847D02*
X97293734Y-92694323D01*
X97293734Y-92694323D02*
X97341353Y-92789561D01*
X97341353Y-92789561D02*
X97436591Y-92884800D01*
X97436591Y-92884800D02*
X97579448Y-92932419D01*
X97579448Y-92932419D02*
X97817543Y-92932419D01*
X96055638Y-92932419D02*
X96055638Y-91932419D01*
X95484210Y-92932419D02*
X95912781Y-92360990D01*
X95484210Y-91932419D02*
X96055638Y-92503847D01*
X94674686Y-92884800D02*
X94769924Y-92932419D01*
X94769924Y-92932419D02*
X94960400Y-92932419D01*
X94960400Y-92932419D02*
X95055638Y-92884800D01*
X95055638Y-92884800D02*
X95103257Y-92789561D01*
X95103257Y-92789561D02*
X95103257Y-92408609D01*
X95103257Y-92408609D02*
X95055638Y-92313371D01*
X95055638Y-92313371D02*
X94960400Y-92265752D01*
X94960400Y-92265752D02*
X94769924Y-92265752D01*
X94769924Y-92265752D02*
X94674686Y-92313371D01*
X94674686Y-92313371D02*
X94627067Y-92408609D01*
X94627067Y-92408609D02*
X94627067Y-92503847D01*
X94627067Y-92503847D02*
X95103257Y-92599085D01*
X94055638Y-92932419D02*
X94150876Y-92884800D01*
X94150876Y-92884800D02*
X94198495Y-92789561D01*
X94198495Y-92789561D02*
X94198495Y-91932419D01*
X93769923Y-92265752D02*
X93531828Y-92932419D01*
X93531828Y-92932419D02*
X93293733Y-92265752D01*
X92912780Y-92932419D02*
X92912780Y-92265752D01*
X92912780Y-91932419D02*
X92960399Y-91980038D01*
X92960399Y-91980038D02*
X92912780Y-92027657D01*
X92912780Y-92027657D02*
X92865161Y-91980038D01*
X92865161Y-91980038D02*
X92912780Y-91932419D01*
X92912780Y-91932419D02*
X92912780Y-92027657D01*
X92436590Y-92265752D02*
X92436590Y-92932419D01*
X92436590Y-92360990D02*
X92388971Y-92313371D01*
X92388971Y-92313371D02*
X92293733Y-92265752D01*
X92293733Y-92265752D02*
X92150876Y-92265752D01*
X92150876Y-92265752D02*
X92055638Y-92313371D01*
X92055638Y-92313371D02*
X92008019Y-92408609D01*
X92008019Y-92408609D02*
X92008019Y-92932419D01*
X90769923Y-92932419D02*
X90769923Y-91932419D01*
X90769923Y-91932419D02*
X90436590Y-92646704D01*
X90436590Y-92646704D02*
X90103257Y-91932419D01*
X90103257Y-91932419D02*
X90103257Y-92932419D01*
X89246114Y-92884800D02*
X89341352Y-92932419D01*
X89341352Y-92932419D02*
X89531828Y-92932419D01*
X89531828Y-92932419D02*
X89627066Y-92884800D01*
X89627066Y-92884800D02*
X89674685Y-92789561D01*
X89674685Y-92789561D02*
X89674685Y-92408609D01*
X89674685Y-92408609D02*
X89627066Y-92313371D01*
X89627066Y-92313371D02*
X89531828Y-92265752D01*
X89531828Y-92265752D02*
X89341352Y-92265752D01*
X89341352Y-92265752D02*
X89246114Y-92313371D01*
X89246114Y-92313371D02*
X89198495Y-92408609D01*
X89198495Y-92408609D02*
X89198495Y-92503847D01*
X89198495Y-92503847D02*
X89674685Y-92599085D01*
X88341352Y-92932419D02*
X88341352Y-92408609D01*
X88341352Y-92408609D02*
X88388971Y-92313371D01*
X88388971Y-92313371D02*
X88484209Y-92265752D01*
X88484209Y-92265752D02*
X88674685Y-92265752D01*
X88674685Y-92265752D02*
X88769923Y-92313371D01*
X88341352Y-92884800D02*
X88436590Y-92932419D01*
X88436590Y-92932419D02*
X88674685Y-92932419D01*
X88674685Y-92932419D02*
X88769923Y-92884800D01*
X88769923Y-92884800D02*
X88817542Y-92789561D01*
X88817542Y-92789561D02*
X88817542Y-92694323D01*
X88817542Y-92694323D02*
X88769923Y-92599085D01*
X88769923Y-92599085D02*
X88674685Y-92551466D01*
X88674685Y-92551466D02*
X88436590Y-92551466D01*
X88436590Y-92551466D02*
X88341352Y-92503847D01*
X87912780Y-92884800D02*
X87817542Y-92932419D01*
X87817542Y-92932419D02*
X87627066Y-92932419D01*
X87627066Y-92932419D02*
X87531828Y-92884800D01*
X87531828Y-92884800D02*
X87484209Y-92789561D01*
X87484209Y-92789561D02*
X87484209Y-92741942D01*
X87484209Y-92741942D02*
X87531828Y-92646704D01*
X87531828Y-92646704D02*
X87627066Y-92599085D01*
X87627066Y-92599085D02*
X87769923Y-92599085D01*
X87769923Y-92599085D02*
X87865161Y-92551466D01*
X87865161Y-92551466D02*
X87912780Y-92456228D01*
X87912780Y-92456228D02*
X87912780Y-92408609D01*
X87912780Y-92408609D02*
X87865161Y-92313371D01*
X87865161Y-92313371D02*
X87769923Y-92265752D01*
X87769923Y-92265752D02*
X87627066Y-92265752D01*
X87627066Y-92265752D02*
X87531828Y-92313371D01*
X86627066Y-92265752D02*
X86627066Y-92932419D01*
X87055637Y-92265752D02*
X87055637Y-92789561D01*
X87055637Y-92789561D02*
X87008018Y-92884800D01*
X87008018Y-92884800D02*
X86912780Y-92932419D01*
X86912780Y-92932419D02*
X86769923Y-92932419D01*
X86769923Y-92932419D02*
X86674685Y-92884800D01*
X86674685Y-92884800D02*
X86627066Y-92837180D01*
X86150875Y-92932419D02*
X86150875Y-92265752D01*
X86150875Y-92456228D02*
X86103256Y-92360990D01*
X86103256Y-92360990D02*
X86055637Y-92313371D01*
X86055637Y-92313371D02*
X85960399Y-92265752D01*
X85960399Y-92265752D02*
X85865161Y-92265752D01*
X85150875Y-92884800D02*
X85246113Y-92932419D01*
X85246113Y-92932419D02*
X85436589Y-92932419D01*
X85436589Y-92932419D02*
X85531827Y-92884800D01*
X85531827Y-92884800D02*
X85579446Y-92789561D01*
X85579446Y-92789561D02*
X85579446Y-92408609D01*
X85579446Y-92408609D02*
X85531827Y-92313371D01*
X85531827Y-92313371D02*
X85436589Y-92265752D01*
X85436589Y-92265752D02*
X85246113Y-92265752D01*
X85246113Y-92265752D02*
X85150875Y-92313371D01*
X85150875Y-92313371D02*
X85103256Y-92408609D01*
X85103256Y-92408609D02*
X85103256Y-92503847D01*
X85103256Y-92503847D02*
X85579446Y-92599085D01*
X84674684Y-92932419D02*
X84674684Y-92265752D01*
X84674684Y-92360990D02*
X84627065Y-92313371D01*
X84627065Y-92313371D02*
X84531827Y-92265752D01*
X84531827Y-92265752D02*
X84388970Y-92265752D01*
X84388970Y-92265752D02*
X84293732Y-92313371D01*
X84293732Y-92313371D02*
X84246113Y-92408609D01*
X84246113Y-92408609D02*
X84246113Y-92932419D01*
X84246113Y-92408609D02*
X84198494Y-92313371D01*
X84198494Y-92313371D02*
X84103256Y-92265752D01*
X84103256Y-92265752D02*
X83960399Y-92265752D01*
X83960399Y-92265752D02*
X83865160Y-92313371D01*
X83865160Y-92313371D02*
X83817541Y-92408609D01*
X83817541Y-92408609D02*
X83817541Y-92932419D01*
X82960399Y-92884800D02*
X83055637Y-92932419D01*
X83055637Y-92932419D02*
X83246113Y-92932419D01*
X83246113Y-92932419D02*
X83341351Y-92884800D01*
X83341351Y-92884800D02*
X83388970Y-92789561D01*
X83388970Y-92789561D02*
X83388970Y-92408609D01*
X83388970Y-92408609D02*
X83341351Y-92313371D01*
X83341351Y-92313371D02*
X83246113Y-92265752D01*
X83246113Y-92265752D02*
X83055637Y-92265752D01*
X83055637Y-92265752D02*
X82960399Y-92313371D01*
X82960399Y-92313371D02*
X82912780Y-92408609D01*
X82912780Y-92408609D02*
X82912780Y-92503847D01*
X82912780Y-92503847D02*
X83388970Y-92599085D01*
X82484208Y-92265752D02*
X82484208Y-92932419D01*
X82484208Y-92360990D02*
X82436589Y-92313371D01*
X82436589Y-92313371D02*
X82341351Y-92265752D01*
X82341351Y-92265752D02*
X82198494Y-92265752D01*
X82198494Y-92265752D02*
X82103256Y-92313371D01*
X82103256Y-92313371D02*
X82055637Y-92408609D01*
X82055637Y-92408609D02*
X82055637Y-92932419D01*
X81722303Y-92265752D02*
X81341351Y-92265752D01*
X81579446Y-91932419D02*
X81579446Y-92789561D01*
X81579446Y-92789561D02*
X81531827Y-92884800D01*
X81531827Y-92884800D02*
X81436589Y-92932419D01*
X81436589Y-92932419D02*
X81341351Y-92932419D01*
M02*
