%TF.GenerationSoftware,KiCad,Pcbnew,8.0.3*%
%TF.CreationDate,2024-08-07T15:39:48+03:00*%
%TF.ProjectId,Thermometer Schematic,54686572-6d6f-46d6-9574-657220536368,rev?*%
%TF.SameCoordinates,Original*%
%TF.FileFunction,Copper,L2,Bot*%
%TF.FilePolarity,Positive*%
%FSLAX46Y46*%
G04 Gerber Fmt 4.6, Leading zero omitted, Abs format (unit mm)*
G04 Created by KiCad (PCBNEW 8.0.3) date 2024-08-07 15:39:48*
%MOMM*%
%LPD*%
G01*
G04 APERTURE LIST*
%TA.AperFunction,ComponentPad*%
%ADD10R,1.700000X1.700000*%
%TD*%
%TA.AperFunction,ComponentPad*%
%ADD11R,1.950000X1.950000*%
%TD*%
%TA.AperFunction,ComponentPad*%
%ADD12C,1.950000*%
%TD*%
%TA.AperFunction,ComponentPad*%
%ADD13O,1.700000X1.700000*%
%TD*%
%TA.AperFunction,ViaPad*%
%ADD14C,0.600000*%
%TD*%
%TA.AperFunction,Conductor*%
%ADD15C,0.500000*%
%TD*%
%TA.AperFunction,Conductor*%
%ADD16C,0.250000*%
%TD*%
%TA.AperFunction,Conductor*%
%ADD17C,0.300000*%
%TD*%
G04 APERTURE END LIST*
D10*
%TO.P,J5,1,Pin_1*%
%TO.N,Vin*%
X93980000Y-103718000D03*
%TD*%
D11*
%TO.P,J4,1,1*%
%TO.N,/REF*%
X120421400Y-82931000D03*
D12*
%TO.P,J4,2,2*%
%TO.N,/RL3_SNR2*%
X115421400Y-82931000D03*
%TO.P,J4,3,3*%
%TO.N,/RL2_SNR2*%
X110421400Y-82931000D03*
%TO.P,J4,4,4*%
%TO.N,/RL1_SNR2*%
X105421400Y-82931000D03*
%TD*%
D11*
%TO.P,J3,1,1*%
%TO.N,/REF*%
X82934800Y-83515200D03*
D12*
%TO.P,J3,2,2*%
%TO.N,/RL3_SNR1*%
X87934800Y-83515200D03*
%TO.P,J3,3,3*%
%TO.N,/RL2_SNR1*%
X92934800Y-83515200D03*
%TO.P,J3,4,4*%
%TO.N,/RL1_SNR1*%
X97934800Y-83515200D03*
%TD*%
D10*
%TO.P,J6,1,Pin_1*%
%TO.N,GNDA*%
X96520000Y-103718000D03*
%TD*%
%TO.P,J2,1,Pin_1*%
%TO.N,Net-(J2-Pin_1)*%
X122720000Y-100710000D03*
D13*
%TO.P,J2,2,Pin_2*%
%TO.N,Net-(J2-Pin_2)*%
X122720000Y-98170000D03*
%TO.P,J2,3,Pin_3*%
%TO.N,Net-(J2-Pin_3)*%
X122720000Y-95630000D03*
%TO.P,J2,4,Pin_4*%
%TO.N,Net-(J2-Pin_4)*%
X122720000Y-93090000D03*
%TO.P,J2,5,Pin_5*%
%TO.N,Net-(J2-Pin_5)*%
X122720000Y-90550000D03*
%TD*%
D14*
%TO.N,GND*%
X80480000Y-97140000D03*
X80480000Y-101780000D03*
%TO.N,Vin*%
X84570000Y-103150000D03*
X86550000Y-98590000D03*
X81820000Y-92140000D03*
%TO.N,ADC AVDD*%
X86450000Y-91070000D03*
X110060000Y-98080000D03*
X90420000Y-92500000D03*
X101450000Y-98060000D03*
%TO.N,ADC IOVDD*%
X84690000Y-104090000D03*
X88000000Y-97310000D03*
X92610000Y-96260000D03*
X86950000Y-96260000D03*
X83860000Y-96250000D03*
%TO.N,/AIN2*%
X101320000Y-102630000D03*
X100289400Y-95980000D03*
%TO.N,Net-(U1-REGCAPD)*%
X101440000Y-99380000D03*
X95140000Y-99380000D03*
%TO.N,/AIN4*%
X112840000Y-96000000D03*
X112840000Y-101930000D03*
%TO.N,/AIN5*%
X114730000Y-96020000D03*
X110090000Y-102630000D03*
%TO.N,/REFIN1+*%
X117134400Y-105590000D03*
X111254100Y-90894300D03*
%TO.N,/REFIN1-*%
X110315100Y-93403300D03*
X109839100Y-103983900D03*
%TO.N,/RL1_SNR1*%
X106840000Y-98900000D03*
X104630000Y-101310000D03*
X106830000Y-96850000D03*
X100680000Y-93690000D03*
%TO.N,/RL1_SNR2*%
X101738200Y-103280000D03*
X105430000Y-84500000D03*
%TO.N,Net-(U2-ADJ)*%
X86420000Y-100850000D03*
X89670000Y-99450000D03*
%TO.N,/DOUT{slash}RDY*%
X116562200Y-90535100D03*
X111009300Y-96588400D03*
%TO.N,/DIN*%
X105220000Y-88300000D03*
X99954332Y-90244332D03*
%TO.N,/SCLK*%
X115540300Y-95979900D03*
X104431200Y-97397200D03*
%TO.N,GNDA*%
X97528200Y-92770000D03*
X113707000Y-92731400D03*
X107050000Y-90998400D03*
%TD*%
D15*
%TO.N,GND*%
X80480000Y-97140000D02*
X80480000Y-101780000D01*
%TO.N,Vin*%
X84570000Y-103150000D02*
X84570000Y-100570000D01*
X84570000Y-100570000D02*
X86550000Y-98590000D01*
X86550000Y-96870000D02*
X86550000Y-98590000D01*
X84570000Y-103150000D02*
X84560000Y-103160000D01*
X93702000Y-103440000D02*
X84860000Y-103440000D01*
X93980000Y-103718000D02*
X93702000Y-103440000D01*
X84860000Y-103440000D02*
X84570000Y-103150000D01*
X81820000Y-92140000D02*
X86550000Y-96870000D01*
%TO.N,ADC AVDD*%
X90420000Y-92500000D02*
X88420000Y-92500000D01*
X101450000Y-98060000D02*
X101430000Y-98080000D01*
X86990000Y-91070000D02*
X86450000Y-91070000D01*
X101470000Y-98080000D02*
X101450000Y-98060000D01*
X88420000Y-92500000D02*
X86990000Y-91070000D01*
X110060000Y-98080000D02*
X101470000Y-98080000D01*
%TO.N,ADC IOVDD*%
X92610000Y-96260000D02*
X86950000Y-96260000D01*
X83890000Y-96280000D02*
X83890000Y-103389000D01*
X83890000Y-103389000D02*
X84590800Y-104090000D01*
X88000000Y-97310000D02*
X86950000Y-96260000D01*
X83860000Y-96250000D02*
X83890000Y-96280000D01*
X84590800Y-104090000D02*
X84690000Y-104090000D01*
D16*
%TO.N,/AIN2*%
X101485400Y-98587900D02*
X102000600Y-99103100D01*
X100289400Y-97651400D02*
X101225900Y-98587900D01*
X100289400Y-95980000D02*
X100289400Y-97651400D01*
X102000600Y-101949400D02*
X101320000Y-102630000D01*
X101225900Y-98587900D02*
X101485400Y-98587900D01*
X102000600Y-99103100D02*
X102000600Y-101949400D01*
%TO.N,Net-(U1-REGCAPD)*%
X101440000Y-99380000D02*
X95280000Y-99380000D01*
X95280000Y-99380000D02*
X95140000Y-99380000D01*
X95140000Y-99380000D02*
X95280000Y-99380000D01*
%TO.N,/AIN4*%
X112840000Y-101930000D02*
X112840000Y-96000000D01*
%TO.N,/AIN5*%
X114910000Y-96200000D02*
X114730000Y-96020000D01*
X114910000Y-101390000D02*
X114910000Y-96200000D01*
X114730000Y-96020000D02*
X114710000Y-96030000D01*
X110090000Y-102630000D02*
X113670000Y-102630000D01*
X113670000Y-102630000D02*
X114910000Y-101390000D01*
%TO.N,/REFIN1+*%
X117134400Y-105590000D02*
X117134400Y-90342700D01*
X116781900Y-89990200D02*
X112158200Y-89990200D01*
X117134400Y-90342700D02*
X116781900Y-89990200D01*
X112158200Y-89990200D02*
X111254100Y-90894300D01*
%TO.N,/REFIN1-*%
X110315100Y-96639400D02*
X110315100Y-93403300D01*
X109839100Y-103983900D02*
X109563300Y-103708100D01*
X111024500Y-98575900D02*
X111024500Y-97348800D01*
X109563300Y-103708100D02*
X109563300Y-100037100D01*
X109563300Y-100037100D02*
X111024500Y-98575900D01*
X111024500Y-97348800D02*
X110315100Y-96639400D01*
%TO.N,/RL1_SNR1*%
X104630000Y-101110000D02*
X106840000Y-98900000D01*
X104630000Y-101310000D02*
X104630000Y-101110000D01*
X106830000Y-96850000D02*
X106850000Y-96850000D01*
X106850000Y-96850000D02*
X106850000Y-96850000D01*
X103690000Y-93690000D02*
X106830000Y-96830000D01*
X100680000Y-93690000D02*
X103690000Y-93690000D01*
X106830000Y-96830000D02*
X106830000Y-96850000D01*
X104630000Y-101310000D02*
X104660000Y-101270000D01*
%TO.N,/RL1_SNR2*%
X100186200Y-104832000D02*
X101738200Y-103280000D01*
X94000500Y-95455700D02*
X94000500Y-101717900D01*
X104956200Y-84500000D02*
X94000500Y-95455700D01*
X95575300Y-104832000D02*
X100186200Y-104832000D01*
X95056700Y-102774100D02*
X95056700Y-104313400D01*
X95056700Y-104313400D02*
X95575300Y-104832000D01*
X94000500Y-101717900D02*
X95056700Y-102774100D01*
X105430000Y-84500000D02*
X104956200Y-84500000D01*
%TO.N,Net-(U2-ADJ)*%
X88270000Y-100850000D02*
X89670000Y-99450000D01*
X86420000Y-100850000D02*
X88270000Y-100850000D01*
D17*
%TO.N,/DOUT{slash}RDY*%
X116562200Y-91035500D02*
X111009300Y-96588400D01*
X116562200Y-90535100D02*
X116562200Y-91035500D01*
D16*
%TO.N,/DIN*%
X101898664Y-88300000D02*
X105220000Y-88300000D01*
X99954332Y-90244332D02*
X101898664Y-88300000D01*
%TO.N,/SCLK*%
X112286900Y-104511500D02*
X109545000Y-104511500D01*
X115540300Y-95979900D02*
X115540300Y-101258100D01*
X110615100Y-98312700D02*
X110615100Y-97860700D01*
X109166100Y-104132600D02*
X109166100Y-99761700D01*
X110151600Y-97397200D02*
X104431200Y-97397200D01*
X110615100Y-97860700D02*
X110151600Y-97397200D01*
X115540300Y-101258100D02*
X112286900Y-104511500D01*
X109545000Y-104511500D02*
X109166100Y-104132600D01*
X109166100Y-99761700D02*
X110615100Y-98312700D01*
D15*
%TO.N,GNDA*%
X105278000Y-92770000D02*
X107050000Y-90998400D01*
X96520000Y-103718000D02*
X96520000Y-102493000D01*
X113707000Y-92731400D02*
X108783000Y-92731400D01*
X94487900Y-100460900D02*
X94487900Y-95810300D01*
X94487900Y-95810300D02*
X97528200Y-92770000D01*
X97528200Y-92770000D02*
X105278000Y-92770000D01*
X108783000Y-92731400D02*
X107050000Y-90998400D01*
X96520000Y-102493000D02*
X94487900Y-100460900D01*
%TD*%
%TA.AperFunction,Conductor*%
%TO.N,GND*%
G36*
X123633736Y-76965726D02*
G01*
X123923796Y-76983271D01*
X123938659Y-76985076D01*
X124220798Y-77036780D01*
X124235335Y-77040363D01*
X124509172Y-77125695D01*
X124523163Y-77131000D01*
X124784743Y-77248727D01*
X124797989Y-77255680D01*
X125043465Y-77404075D01*
X125055776Y-77412573D01*
X125281573Y-77589473D01*
X125292781Y-77599403D01*
X125495596Y-77802218D01*
X125505526Y-77813426D01*
X125625481Y-77966538D01*
X125682422Y-78039217D01*
X125690928Y-78051540D01*
X125839316Y-78297004D01*
X125846275Y-78310263D01*
X125963997Y-78571831D01*
X125969306Y-78585832D01*
X126054635Y-78859663D01*
X126058219Y-78874201D01*
X126109923Y-79156340D01*
X126111728Y-79171205D01*
X126129274Y-79461263D01*
X126129500Y-79468750D01*
X126129500Y-103841249D01*
X126129274Y-103848736D01*
X126111728Y-104138794D01*
X126109923Y-104153659D01*
X126058219Y-104435798D01*
X126054635Y-104450336D01*
X125969306Y-104724167D01*
X125963997Y-104738168D01*
X125846275Y-104999736D01*
X125839316Y-105012995D01*
X125690928Y-105258459D01*
X125682422Y-105270782D01*
X125505526Y-105496573D01*
X125495596Y-105507781D01*
X125292781Y-105710596D01*
X125281573Y-105720526D01*
X125055782Y-105897422D01*
X125043459Y-105905928D01*
X124797995Y-106054316D01*
X124784736Y-106061275D01*
X124523168Y-106178997D01*
X124509167Y-106184306D01*
X124235336Y-106269635D01*
X124220798Y-106273219D01*
X123938659Y-106324923D01*
X123923794Y-106326728D01*
X123633736Y-106344274D01*
X123626249Y-106344500D01*
X117811340Y-106344500D01*
X117744301Y-106324815D01*
X117698546Y-106272011D01*
X117688602Y-106202853D01*
X117717627Y-106139297D01*
X117723659Y-106132819D01*
X117764216Y-106092262D01*
X117860189Y-105939522D01*
X117919768Y-105769255D01*
X117919769Y-105769249D01*
X117939965Y-105590003D01*
X117939965Y-105589996D01*
X117919769Y-105410750D01*
X117919768Y-105410745D01*
X117911219Y-105386313D01*
X117860189Y-105240478D01*
X117854063Y-105230729D01*
X117778906Y-105111117D01*
X117759900Y-105045145D01*
X117759900Y-104389995D01*
X120804732Y-104389995D01*
X120804732Y-104390004D01*
X120823777Y-104644154D01*
X120876550Y-104875369D01*
X120880492Y-104892637D01*
X120973607Y-105129888D01*
X121101041Y-105350612D01*
X121259950Y-105549877D01*
X121446783Y-105723232D01*
X121657366Y-105866805D01*
X121657371Y-105866807D01*
X121657372Y-105866808D01*
X121657373Y-105866809D01*
X121779328Y-105925538D01*
X121886992Y-105977387D01*
X121886993Y-105977387D01*
X121886996Y-105977389D01*
X122130542Y-106052513D01*
X122382565Y-106090500D01*
X122637435Y-106090500D01*
X122889458Y-106052513D01*
X123133004Y-105977389D01*
X123362634Y-105866805D01*
X123573217Y-105723232D01*
X123760050Y-105549877D01*
X123918959Y-105350612D01*
X124046393Y-105129888D01*
X124139508Y-104892637D01*
X124196222Y-104644157D01*
X124215268Y-104390000D01*
X124210700Y-104329049D01*
X124196222Y-104135845D01*
X124195803Y-104134011D01*
X124139508Y-103887363D01*
X124046393Y-103650112D01*
X123918959Y-103429388D01*
X123760050Y-103230123D01*
X123573217Y-103056768D01*
X123362634Y-102913195D01*
X123362630Y-102913193D01*
X123362627Y-102913191D01*
X123362626Y-102913190D01*
X123133006Y-102802612D01*
X123133008Y-102802612D01*
X122889466Y-102727489D01*
X122889462Y-102727488D01*
X122889458Y-102727487D01*
X122768231Y-102709214D01*
X122637440Y-102689500D01*
X122637435Y-102689500D01*
X122382565Y-102689500D01*
X122382559Y-102689500D01*
X122225609Y-102713157D01*
X122130542Y-102727487D01*
X122130539Y-102727488D01*
X122130533Y-102727489D01*
X121886992Y-102802612D01*
X121657373Y-102913190D01*
X121657372Y-102913191D01*
X121446782Y-103056768D01*
X121259952Y-103230121D01*
X121259950Y-103230123D01*
X121101041Y-103429388D01*
X120973608Y-103650109D01*
X120880492Y-103887362D01*
X120880490Y-103887369D01*
X120823777Y-104135845D01*
X120804732Y-104389995D01*
X117759900Y-104389995D01*
X117759900Y-90549999D01*
X121364341Y-90549999D01*
X121364341Y-90550000D01*
X121384936Y-90785403D01*
X121384938Y-90785413D01*
X121446094Y-91013655D01*
X121446096Y-91013659D01*
X121446097Y-91013663D01*
X121474026Y-91073556D01*
X121545965Y-91227830D01*
X121545967Y-91227834D01*
X121634751Y-91354630D01*
X121680189Y-91419522D01*
X121681501Y-91421395D01*
X121681506Y-91421402D01*
X121848597Y-91588493D01*
X121848603Y-91588498D01*
X122034158Y-91718425D01*
X122077783Y-91773002D01*
X122084977Y-91842500D01*
X122053454Y-91904855D01*
X122034158Y-91921575D01*
X121848597Y-92051505D01*
X121681505Y-92218597D01*
X121545965Y-92412169D01*
X121545964Y-92412171D01*
X121446098Y-92626335D01*
X121446094Y-92626344D01*
X121384938Y-92854586D01*
X121384936Y-92854596D01*
X121364341Y-93089999D01*
X121364341Y-93090000D01*
X121384936Y-93325403D01*
X121384938Y-93325413D01*
X121446094Y-93553655D01*
X121446096Y-93553659D01*
X121446097Y-93553663D01*
X121500746Y-93670858D01*
X121545965Y-93767830D01*
X121545967Y-93767834D01*
X121681501Y-93961395D01*
X121681506Y-93961402D01*
X121848597Y-94128493D01*
X121848603Y-94128498D01*
X122034158Y-94258425D01*
X122077783Y-94313002D01*
X122084977Y-94382500D01*
X122053454Y-94444855D01*
X122034158Y-94461575D01*
X121848597Y-94591505D01*
X121681505Y-94758597D01*
X121545965Y-94952169D01*
X121545964Y-94952171D01*
X121446098Y-95166335D01*
X121446094Y-95166344D01*
X121384938Y-95394586D01*
X121384936Y-95394596D01*
X121364341Y-95629999D01*
X121364341Y-95630000D01*
X121384936Y-95865403D01*
X121384938Y-95865413D01*
X121446094Y-96093655D01*
X121446096Y-96093659D01*
X121446097Y-96093663D01*
X121518998Y-96250000D01*
X121545965Y-96307830D01*
X121545967Y-96307834D01*
X121681501Y-96501395D01*
X121681506Y-96501402D01*
X121848597Y-96668493D01*
X121848603Y-96668498D01*
X122034158Y-96798425D01*
X122077783Y-96853002D01*
X122084977Y-96922500D01*
X122053454Y-96984855D01*
X122034158Y-97001575D01*
X121848597Y-97131505D01*
X121681505Y-97298597D01*
X121545965Y-97492169D01*
X121545964Y-97492171D01*
X121446098Y-97706335D01*
X121446094Y-97706344D01*
X121384938Y-97934586D01*
X121384936Y-97934596D01*
X121364341Y-98169999D01*
X121364341Y-98170000D01*
X121384936Y-98405403D01*
X121384938Y-98405413D01*
X121446094Y-98633655D01*
X121446096Y-98633659D01*
X121446097Y-98633663D01*
X121509838Y-98770356D01*
X121545965Y-98847830D01*
X121545967Y-98847834D01*
X121615921Y-98947738D01*
X121681501Y-99041396D01*
X121681506Y-99041402D01*
X121803430Y-99163326D01*
X121836915Y-99224649D01*
X121831931Y-99294341D01*
X121790059Y-99350274D01*
X121759083Y-99367189D01*
X121627669Y-99416203D01*
X121627664Y-99416206D01*
X121512455Y-99502452D01*
X121512452Y-99502455D01*
X121426206Y-99617664D01*
X121426202Y-99617671D01*
X121375908Y-99752517D01*
X121370855Y-99799522D01*
X121369501Y-99812123D01*
X121369500Y-99812135D01*
X121369500Y-101607870D01*
X121369501Y-101607876D01*
X121375908Y-101667483D01*
X121426202Y-101802328D01*
X121426206Y-101802335D01*
X121512452Y-101917544D01*
X121512455Y-101917547D01*
X121627664Y-102003793D01*
X121627671Y-102003797D01*
X121762517Y-102054091D01*
X121762516Y-102054091D01*
X121769444Y-102054835D01*
X121822127Y-102060500D01*
X123617872Y-102060499D01*
X123677483Y-102054091D01*
X123812331Y-102003796D01*
X123927546Y-101917546D01*
X124013796Y-101802331D01*
X124064091Y-101667483D01*
X124070500Y-101607873D01*
X124070499Y-99812128D01*
X124064091Y-99752517D01*
X124042836Y-99695530D01*
X124013797Y-99617671D01*
X124013793Y-99617664D01*
X123927547Y-99502455D01*
X123927544Y-99502452D01*
X123812335Y-99416206D01*
X123812328Y-99416202D01*
X123680917Y-99367189D01*
X123624983Y-99325318D01*
X123600566Y-99259853D01*
X123615418Y-99191580D01*
X123636563Y-99163332D01*
X123758495Y-99041401D01*
X123894035Y-98847830D01*
X123993903Y-98633663D01*
X124055063Y-98405408D01*
X124075659Y-98170000D01*
X124055063Y-97934592D01*
X123993903Y-97706337D01*
X123894035Y-97492171D01*
X123891994Y-97489255D01*
X123758494Y-97298597D01*
X123591402Y-97131506D01*
X123591396Y-97131501D01*
X123405842Y-97001575D01*
X123362217Y-96946998D01*
X123355023Y-96877500D01*
X123386546Y-96815145D01*
X123405842Y-96798425D01*
X123460013Y-96760494D01*
X123591401Y-96668495D01*
X123758495Y-96501401D01*
X123894035Y-96307830D01*
X123993903Y-96093663D01*
X124055063Y-95865408D01*
X124075659Y-95630000D01*
X124055063Y-95394592D01*
X124001458Y-95194532D01*
X123993905Y-95166344D01*
X123993904Y-95166343D01*
X123993903Y-95166337D01*
X123894035Y-94952171D01*
X123758495Y-94758599D01*
X123758494Y-94758597D01*
X123591402Y-94591506D01*
X123591396Y-94591501D01*
X123405842Y-94461575D01*
X123362217Y-94406998D01*
X123355023Y-94337500D01*
X123386546Y-94275145D01*
X123405842Y-94258425D01*
X123500332Y-94192262D01*
X123591401Y-94128495D01*
X123758495Y-93961401D01*
X123894035Y-93767830D01*
X123993903Y-93553663D01*
X124055063Y-93325408D01*
X124075659Y-93090000D01*
X124055063Y-92854592D01*
X123993903Y-92626337D01*
X123894035Y-92412171D01*
X123813950Y-92297796D01*
X123758494Y-92218597D01*
X123591402Y-92051506D01*
X123591396Y-92051501D01*
X123405842Y-91921575D01*
X123362217Y-91866998D01*
X123355023Y-91797500D01*
X123386546Y-91735145D01*
X123405842Y-91718425D01*
X123461191Y-91679669D01*
X123591401Y-91588495D01*
X123758495Y-91421401D01*
X123894035Y-91227830D01*
X123993903Y-91013663D01*
X124055063Y-90785408D01*
X124075659Y-90550000D01*
X124055063Y-90314592D01*
X123993903Y-90086337D01*
X123894035Y-89872171D01*
X123883300Y-89856839D01*
X123758494Y-89678597D01*
X123591402Y-89511506D01*
X123591395Y-89511501D01*
X123581172Y-89504343D01*
X123483409Y-89435888D01*
X123397832Y-89375966D01*
X123373672Y-89364700D01*
X123183663Y-89276097D01*
X123183659Y-89276096D01*
X123183655Y-89276094D01*
X122955413Y-89214938D01*
X122955403Y-89214936D01*
X122720001Y-89194341D01*
X122719999Y-89194341D01*
X122484596Y-89214936D01*
X122484586Y-89214938D01*
X122256344Y-89276094D01*
X122256335Y-89276098D01*
X122042170Y-89375965D01*
X121848597Y-89511505D01*
X121681505Y-89678597D01*
X121545965Y-89872169D01*
X121545964Y-89872171D01*
X121446098Y-90086335D01*
X121446094Y-90086344D01*
X121384938Y-90314586D01*
X121384936Y-90314596D01*
X121364341Y-90549999D01*
X117759900Y-90549999D01*
X117759900Y-90281098D01*
X117759900Y-90281094D01*
X117759898Y-90281083D01*
X117759034Y-90276738D01*
X117759032Y-90276732D01*
X117738330Y-90172651D01*
X117738330Y-90172650D01*
X117737713Y-90169550D01*
X117735863Y-90160248D01*
X117688711Y-90046414D01*
X117688710Y-90046413D01*
X117688707Y-90046407D01*
X117620258Y-89943967D01*
X117620255Y-89943963D01*
X117530037Y-89853745D01*
X117530006Y-89853716D01*
X117272098Y-89595808D01*
X117272078Y-89595786D01*
X117180633Y-89504341D01*
X117129409Y-89470115D01*
X117078187Y-89435889D01*
X117078186Y-89435888D01*
X117078183Y-89435886D01*
X117078180Y-89435885D01*
X116997692Y-89402547D01*
X116964354Y-89388738D01*
X116964356Y-89388738D01*
X116964352Y-89388737D01*
X116964349Y-89388736D01*
X116964345Y-89388735D01*
X116900148Y-89375965D01*
X116900141Y-89375965D01*
X116843507Y-89364700D01*
X116843506Y-89364700D01*
X112219806Y-89364700D01*
X112096593Y-89364700D01*
X112096588Y-89364700D01*
X111975755Y-89388735D01*
X111975747Y-89388737D01*
X111861916Y-89435887D01*
X111759465Y-89504342D01*
X111759462Y-89504345D01*
X111195721Y-90068087D01*
X111134398Y-90101572D01*
X111121925Y-90103626D01*
X111074850Y-90108930D01*
X110904578Y-90168510D01*
X110751837Y-90264484D01*
X110624284Y-90392037D01*
X110528311Y-90544776D01*
X110468731Y-90715045D01*
X110468730Y-90715050D01*
X110448535Y-90894296D01*
X110448535Y-90894303D01*
X110468730Y-91073549D01*
X110468731Y-91073554D01*
X110528311Y-91243823D01*
X110624284Y-91396562D01*
X110751838Y-91524116D01*
X110904578Y-91620089D01*
X111074845Y-91679668D01*
X111074850Y-91679669D01*
X111254096Y-91699865D01*
X111254100Y-91699865D01*
X111254104Y-91699865D01*
X111433349Y-91679669D01*
X111433352Y-91679668D01*
X111433355Y-91679668D01*
X111603622Y-91620089D01*
X111756362Y-91524116D01*
X111883916Y-91396562D01*
X111979889Y-91243822D01*
X112039468Y-91073555D01*
X112044772Y-91026473D01*
X112071837Y-90962063D01*
X112080290Y-90952698D01*
X112380973Y-90652017D01*
X112442296Y-90618534D01*
X112468653Y-90615700D01*
X115655427Y-90615700D01*
X115722466Y-90635385D01*
X115768221Y-90688189D01*
X115776317Y-90712103D01*
X115776830Y-90714354D01*
X115799458Y-90779021D01*
X115803019Y-90848800D01*
X115770097Y-90907655D01*
X114480396Y-92197356D01*
X114419073Y-92230841D01*
X114349381Y-92225857D01*
X114305034Y-92197356D01*
X114209262Y-92101584D01*
X114056523Y-92005611D01*
X113886254Y-91946031D01*
X113886249Y-91946030D01*
X113707004Y-91925835D01*
X113706996Y-91925835D01*
X113527750Y-91946030D01*
X113527745Y-91946031D01*
X113447983Y-91973942D01*
X113407028Y-91980900D01*
X109145229Y-91980900D01*
X109078190Y-91961215D01*
X109057548Y-91944581D01*
X108447402Y-91334435D01*
X107803305Y-90690337D01*
X107780656Y-90654264D01*
X107778812Y-90655153D01*
X107775792Y-90648883D01*
X107767311Y-90635385D01*
X107679816Y-90496138D01*
X107552262Y-90368584D01*
X107496253Y-90333391D01*
X107399523Y-90272611D01*
X107229254Y-90213031D01*
X107229249Y-90213030D01*
X107050004Y-90192835D01*
X107049996Y-90192835D01*
X106870750Y-90213030D01*
X106870745Y-90213031D01*
X106700476Y-90272611D01*
X106547737Y-90368584D01*
X106420184Y-90496137D01*
X106324212Y-90648875D01*
X106321191Y-90655150D01*
X106319344Y-90654260D01*
X106296711Y-90690269D01*
X105003498Y-91983191D01*
X104942171Y-92016669D01*
X104915827Y-92019500D01*
X98620652Y-92019500D01*
X98553613Y-91999815D01*
X98507858Y-91947011D01*
X98497914Y-91877853D01*
X98526939Y-91814297D01*
X98532971Y-91807819D01*
X98944228Y-91396562D01*
X99391097Y-90949692D01*
X99452418Y-90916209D01*
X99522109Y-90921193D01*
X99544749Y-90932382D01*
X99604807Y-90970120D01*
X99775077Y-91029700D01*
X99775082Y-91029701D01*
X99954328Y-91049897D01*
X99954332Y-91049897D01*
X99954336Y-91049897D01*
X100133581Y-91029701D01*
X100133584Y-91029700D01*
X100133587Y-91029700D01*
X100303854Y-90970121D01*
X100456594Y-90874148D01*
X100584148Y-90746594D01*
X100680121Y-90593854D01*
X100739700Y-90423587D01*
X100745004Y-90376505D01*
X100772069Y-90312095D01*
X100780533Y-90302719D01*
X102121436Y-88961819D01*
X102182759Y-88928334D01*
X102209117Y-88925500D01*
X104675145Y-88925500D01*
X104741116Y-88944505D01*
X104870478Y-89025789D01*
X105040745Y-89085368D01*
X105040750Y-89085369D01*
X105219996Y-89105565D01*
X105220000Y-89105565D01*
X105220004Y-89105565D01*
X105399249Y-89085369D01*
X105399252Y-89085368D01*
X105399255Y-89085368D01*
X105569522Y-89025789D01*
X105722262Y-88929816D01*
X105849816Y-88802262D01*
X105945789Y-88649522D01*
X106005368Y-88479255D01*
X106025565Y-88300000D01*
X106005368Y-88120745D01*
X105945789Y-87950478D01*
X105849816Y-87797738D01*
X105722262Y-87670184D01*
X105698883Y-87655494D01*
X105569523Y-87574211D01*
X105399254Y-87514631D01*
X105399249Y-87514630D01*
X105220004Y-87494435D01*
X105219996Y-87494435D01*
X105040750Y-87514630D01*
X105040745Y-87514631D01*
X104870476Y-87574211D01*
X104741117Y-87655494D01*
X104675145Y-87674500D01*
X102965653Y-87674500D01*
X102898614Y-87654815D01*
X102852859Y-87602011D01*
X102842915Y-87532853D01*
X102871940Y-87469297D01*
X102877972Y-87462819D01*
X103047923Y-87292867D01*
X105050959Y-85289830D01*
X105112280Y-85256347D01*
X105179592Y-85260471D01*
X105250742Y-85285367D01*
X105250745Y-85285368D01*
X105250746Y-85285368D01*
X105250750Y-85285369D01*
X105429996Y-85305565D01*
X105430000Y-85305565D01*
X105430004Y-85305565D01*
X105609249Y-85285369D01*
X105609252Y-85285368D01*
X105609255Y-85285368D01*
X105779522Y-85225789D01*
X105932262Y-85129816D01*
X106059816Y-85002262D01*
X106155789Y-84849522D01*
X106215368Y-84679255D01*
X106215369Y-84679249D01*
X106235565Y-84500003D01*
X106235565Y-84499996D01*
X106215369Y-84320750D01*
X106215366Y-84320737D01*
X106206852Y-84296405D01*
X106203290Y-84226626D01*
X106238018Y-84165999D01*
X106247731Y-84157597D01*
X106278164Y-84133910D01*
X106424154Y-84020281D01*
X106589768Y-83840377D01*
X106723511Y-83635667D01*
X106821736Y-83411736D01*
X106881764Y-83174692D01*
X106901957Y-82931000D01*
X106901957Y-82930994D01*
X108940843Y-82930994D01*
X108940843Y-82931005D01*
X108961034Y-83174683D01*
X108961036Y-83174695D01*
X109021063Y-83411734D01*
X109119288Y-83635666D01*
X109253032Y-83840378D01*
X109418642Y-84020277D01*
X109418652Y-84020286D01*
X109611608Y-84170470D01*
X109611612Y-84170473D01*
X109783597Y-84263547D01*
X109826667Y-84286855D01*
X109826670Y-84286856D01*
X110057941Y-84366251D01*
X110057943Y-84366251D01*
X110057945Y-84366252D01*
X110299137Y-84406500D01*
X110299138Y-84406500D01*
X110543662Y-84406500D01*
X110543663Y-84406500D01*
X110784855Y-84366252D01*
X111016133Y-84286855D01*
X111231188Y-84170473D01*
X111424154Y-84020281D01*
X111589768Y-83840377D01*
X111723511Y-83635667D01*
X111821736Y-83411736D01*
X111881764Y-83174692D01*
X111901957Y-82931000D01*
X111901957Y-82930994D01*
X113940843Y-82930994D01*
X113940843Y-82931005D01*
X113961034Y-83174683D01*
X113961036Y-83174695D01*
X114021063Y-83411734D01*
X114119288Y-83635666D01*
X114253032Y-83840378D01*
X114418642Y-84020277D01*
X114418652Y-84020286D01*
X114611608Y-84170470D01*
X114611612Y-84170473D01*
X114783597Y-84263547D01*
X114826667Y-84286855D01*
X114826670Y-84286856D01*
X115057941Y-84366251D01*
X115057943Y-84366251D01*
X115057945Y-84366252D01*
X115299137Y-84406500D01*
X115299138Y-84406500D01*
X115543662Y-84406500D01*
X115543663Y-84406500D01*
X115784855Y-84366252D01*
X116016133Y-84286855D01*
X116231188Y-84170473D01*
X116424154Y-84020281D01*
X116589768Y-83840377D01*
X116723511Y-83635667D01*
X116821736Y-83411736D01*
X116881764Y-83174692D01*
X116901957Y-82931000D01*
X116881764Y-82687308D01*
X116821736Y-82450264D01*
X116723511Y-82226333D01*
X116679746Y-82159345D01*
X116589767Y-82021621D01*
X116485295Y-81908135D01*
X118945900Y-81908135D01*
X118945900Y-83953870D01*
X118945901Y-83953876D01*
X118952308Y-84013483D01*
X119002602Y-84148328D01*
X119002606Y-84148335D01*
X119088852Y-84263544D01*
X119088855Y-84263547D01*
X119204064Y-84349793D01*
X119204071Y-84349797D01*
X119338917Y-84400091D01*
X119338916Y-84400091D01*
X119345844Y-84400835D01*
X119398527Y-84406500D01*
X121444272Y-84406499D01*
X121503883Y-84400091D01*
X121638731Y-84349796D01*
X121753946Y-84263546D01*
X121840196Y-84148331D01*
X121890491Y-84013483D01*
X121896900Y-83953873D01*
X121896899Y-81908128D01*
X121890491Y-81848517D01*
X121887953Y-81841713D01*
X121840197Y-81713671D01*
X121840193Y-81713664D01*
X121753947Y-81598455D01*
X121753944Y-81598452D01*
X121638735Y-81512206D01*
X121638728Y-81512202D01*
X121503882Y-81461908D01*
X121503883Y-81461908D01*
X121444283Y-81455501D01*
X121444281Y-81455500D01*
X121444273Y-81455500D01*
X121444264Y-81455500D01*
X119398529Y-81455500D01*
X119398523Y-81455501D01*
X119338916Y-81461908D01*
X119204071Y-81512202D01*
X119204064Y-81512206D01*
X119088855Y-81598452D01*
X119088852Y-81598455D01*
X119002606Y-81713664D01*
X119002602Y-81713671D01*
X118952308Y-81848517D01*
X118945901Y-81908116D01*
X118945901Y-81908123D01*
X118945900Y-81908135D01*
X116485295Y-81908135D01*
X116424157Y-81841722D01*
X116424147Y-81841713D01*
X116231191Y-81691529D01*
X116231187Y-81691526D01*
X116016134Y-81575145D01*
X116016129Y-81575143D01*
X115784858Y-81495748D01*
X115582064Y-81461908D01*
X115543663Y-81455500D01*
X115299137Y-81455500D01*
X115260736Y-81461908D01*
X115057941Y-81495748D01*
X114826670Y-81575143D01*
X114826665Y-81575145D01*
X114611612Y-81691526D01*
X114611608Y-81691529D01*
X114418652Y-81841713D01*
X114418642Y-81841722D01*
X114253032Y-82021621D01*
X114119288Y-82226333D01*
X114021063Y-82450265D01*
X113961036Y-82687304D01*
X113961034Y-82687316D01*
X113940843Y-82930994D01*
X111901957Y-82930994D01*
X111881764Y-82687308D01*
X111821736Y-82450264D01*
X111723511Y-82226333D01*
X111679746Y-82159345D01*
X111589767Y-82021621D01*
X111424157Y-81841722D01*
X111424147Y-81841713D01*
X111231191Y-81691529D01*
X111231187Y-81691526D01*
X111016134Y-81575145D01*
X111016129Y-81575143D01*
X110784858Y-81495748D01*
X110582064Y-81461908D01*
X110543663Y-81455500D01*
X110299137Y-81455500D01*
X110260736Y-81461908D01*
X110057941Y-81495748D01*
X109826670Y-81575143D01*
X109826665Y-81575145D01*
X109611612Y-81691526D01*
X109611608Y-81691529D01*
X109418652Y-81841713D01*
X109418642Y-81841722D01*
X109253032Y-82021621D01*
X109119288Y-82226333D01*
X109021063Y-82450265D01*
X108961036Y-82687304D01*
X108961034Y-82687316D01*
X108940843Y-82930994D01*
X106901957Y-82930994D01*
X106881764Y-82687308D01*
X106821736Y-82450264D01*
X106723511Y-82226333D01*
X106679746Y-82159345D01*
X106589767Y-82021621D01*
X106424157Y-81841722D01*
X106424147Y-81841713D01*
X106231191Y-81691529D01*
X106231187Y-81691526D01*
X106016134Y-81575145D01*
X106016129Y-81575143D01*
X105784858Y-81495748D01*
X105582064Y-81461908D01*
X105543663Y-81455500D01*
X105299137Y-81455500D01*
X105260736Y-81461908D01*
X105057941Y-81495748D01*
X104826670Y-81575143D01*
X104826665Y-81575145D01*
X104611612Y-81691526D01*
X104611608Y-81691529D01*
X104418652Y-81841713D01*
X104418642Y-81841722D01*
X104253032Y-82021621D01*
X104119288Y-82226333D01*
X104021063Y-82450265D01*
X103961036Y-82687304D01*
X103961034Y-82687316D01*
X103940843Y-82930994D01*
X103940843Y-82931005D01*
X103961034Y-83174683D01*
X103961036Y-83174695D01*
X104021063Y-83411734D01*
X104119288Y-83635666D01*
X104253032Y-83840378D01*
X104401661Y-84001830D01*
X104432584Y-84064484D01*
X104424724Y-84133910D01*
X104398113Y-84173494D01*
X93601769Y-94969840D01*
X93514644Y-95056964D01*
X93514638Y-95056972D01*
X93446190Y-95159408D01*
X93446188Y-95159413D01*
X93418049Y-95227348D01*
X93399037Y-95273245D01*
X93399037Y-95273248D01*
X93394867Y-95294211D01*
X93376353Y-95387296D01*
X93376351Y-95387303D01*
X93375001Y-95394086D01*
X93375000Y-95394099D01*
X93375000Y-95593560D01*
X93355315Y-95660599D01*
X93302511Y-95706354D01*
X93233353Y-95716298D01*
X93169797Y-95687273D01*
X93163319Y-95681241D01*
X93112262Y-95630184D01*
X92959523Y-95534211D01*
X92789254Y-95474631D01*
X92789249Y-95474630D01*
X92610004Y-95454435D01*
X92609996Y-95454435D01*
X92430750Y-95474630D01*
X92430745Y-95474631D01*
X92350983Y-95502542D01*
X92310028Y-95509500D01*
X87249972Y-95509500D01*
X87209017Y-95502542D01*
X87129254Y-95474631D01*
X87129249Y-95474630D01*
X86950004Y-95454435D01*
X86949996Y-95454435D01*
X86770750Y-95474630D01*
X86770745Y-95474631D01*
X86600476Y-95534211D01*
X86484679Y-95606972D01*
X86417442Y-95625972D01*
X86350607Y-95605604D01*
X86331026Y-95589659D01*
X82573307Y-91831940D01*
X82550651Y-91795867D01*
X82548811Y-91796754D01*
X82545789Y-91790478D01*
X82488822Y-91699816D01*
X82449816Y-91637738D01*
X82322262Y-91510184D01*
X82169523Y-91414211D01*
X81999254Y-91354631D01*
X81999249Y-91354630D01*
X81820004Y-91334435D01*
X81819996Y-91334435D01*
X81640750Y-91354630D01*
X81640745Y-91354631D01*
X81470476Y-91414211D01*
X81317737Y-91510184D01*
X81190184Y-91637737D01*
X81094211Y-91790476D01*
X81034631Y-91960745D01*
X81034630Y-91960750D01*
X81014435Y-92139996D01*
X81014435Y-92140003D01*
X81034630Y-92319249D01*
X81034631Y-92319254D01*
X81094211Y-92489523D01*
X81180176Y-92626335D01*
X81190184Y-92642262D01*
X81317738Y-92769816D01*
X81470478Y-92865789D01*
X81476754Y-92868811D01*
X81475867Y-92870651D01*
X81511940Y-92893307D01*
X83860432Y-95241799D01*
X83893917Y-95303122D01*
X83888933Y-95372814D01*
X83847061Y-95428747D01*
X83786635Y-95452700D01*
X83680749Y-95464630D01*
X83680745Y-95464631D01*
X83510476Y-95524211D01*
X83357737Y-95620184D01*
X83230184Y-95747737D01*
X83134211Y-95900476D01*
X83074631Y-96070745D01*
X83074630Y-96070750D01*
X83054435Y-96249996D01*
X83054435Y-96250003D01*
X83074630Y-96429249D01*
X83074633Y-96429262D01*
X83132541Y-96594749D01*
X83139500Y-96635704D01*
X83139500Y-103392430D01*
X83139489Y-103462815D01*
X83139500Y-103462922D01*
X83153878Y-103535200D01*
X83153880Y-103535220D01*
X83153882Y-103535220D01*
X83168308Y-103607802D01*
X83168342Y-103607914D01*
X83195331Y-103673070D01*
X83195334Y-103673088D01*
X83195338Y-103673087D01*
X83224870Y-103744412D01*
X83224909Y-103744484D01*
X83224915Y-103744493D01*
X83224916Y-103744495D01*
X83264233Y-103803337D01*
X83264238Y-103803353D01*
X83264242Y-103803351D01*
X83306986Y-103867342D01*
X83307036Y-103867403D01*
X83356200Y-103916567D01*
X83356209Y-103916583D01*
X83356213Y-103916580D01*
X84003463Y-104564014D01*
X84003622Y-104564190D01*
X84031695Y-104592262D01*
X84057891Y-104618458D01*
X84112301Y-104672883D01*
X84112304Y-104672885D01*
X84112390Y-104672956D01*
X84175410Y-104715063D01*
X84175422Y-104715077D01*
X84175425Y-104715074D01*
X84199755Y-104731335D01*
X84235211Y-104755033D01*
X84235212Y-104755033D01*
X84235213Y-104755034D01*
X84235299Y-104755080D01*
X84235305Y-104755084D01*
X84235311Y-104755086D01*
X84235312Y-104755087D01*
X84250763Y-104761487D01*
X84269286Y-104771056D01*
X84340475Y-104815788D01*
X84510745Y-104875368D01*
X84510750Y-104875369D01*
X84689996Y-104895565D01*
X84690000Y-104895565D01*
X84690004Y-104895565D01*
X84869249Y-104875369D01*
X84869252Y-104875368D01*
X84869255Y-104875368D01*
X85039522Y-104815789D01*
X85192262Y-104719816D01*
X85319816Y-104592262D01*
X85415789Y-104439522D01*
X85473867Y-104273545D01*
X85514589Y-104216769D01*
X85579542Y-104191022D01*
X85590909Y-104190500D01*
X92505501Y-104190500D01*
X92572540Y-104210185D01*
X92618295Y-104262989D01*
X92629501Y-104314500D01*
X92629501Y-104615876D01*
X92635908Y-104675483D01*
X92686202Y-104810328D01*
X92686206Y-104810335D01*
X92772452Y-104925544D01*
X92772455Y-104925547D01*
X92887664Y-105011793D01*
X92887671Y-105011797D01*
X93022517Y-105062091D01*
X93022516Y-105062091D01*
X93029444Y-105062835D01*
X93082127Y-105068500D01*
X94875847Y-105068499D01*
X94942886Y-105088184D01*
X94963528Y-105104818D01*
X95086316Y-105227606D01*
X95086345Y-105227637D01*
X95176564Y-105317856D01*
X95176567Y-105317858D01*
X95214886Y-105343462D01*
X95279014Y-105386312D01*
X95338002Y-105410745D01*
X95392848Y-105433463D01*
X95453271Y-105445481D01*
X95513693Y-105457500D01*
X100247807Y-105457500D01*
X100308229Y-105445481D01*
X100368652Y-105433463D01*
X100423498Y-105410745D01*
X100482486Y-105386312D01*
X100546614Y-105343462D01*
X100584933Y-105317858D01*
X100672058Y-105230733D01*
X100672058Y-105230731D01*
X100682266Y-105220524D01*
X100682267Y-105220521D01*
X101796580Y-104106209D01*
X101857901Y-104072726D01*
X101870358Y-104070674D01*
X101917455Y-104065368D01*
X102087722Y-104005789D01*
X102240462Y-103909816D01*
X102368016Y-103782262D01*
X102463989Y-103629522D01*
X102523568Y-103459255D01*
X102530566Y-103397147D01*
X102543765Y-103280003D01*
X102543765Y-103279996D01*
X102523569Y-103100750D01*
X102523568Y-103100745D01*
X102508180Y-103056768D01*
X102463989Y-102930478D01*
X102453129Y-102913195D01*
X102387819Y-102809254D01*
X102368016Y-102777738D01*
X102300114Y-102709836D01*
X102266629Y-102648513D01*
X102271613Y-102578821D01*
X102300112Y-102534476D01*
X102399329Y-102435260D01*
X102399333Y-102435258D01*
X102486458Y-102348133D01*
X102554911Y-102245686D01*
X102554912Y-102245685D01*
X102585169Y-102172637D01*
X102602063Y-102131852D01*
X102611891Y-102082439D01*
X102625207Y-102015499D01*
X102625209Y-102015499D01*
X102625209Y-102015484D01*
X102626100Y-102011007D01*
X102626100Y-101887793D01*
X102626100Y-99041494D01*
X102613608Y-98978690D01*
X102619835Y-98909100D01*
X102662698Y-98853923D01*
X102728588Y-98830678D01*
X102735225Y-98830500D01*
X105725548Y-98830500D01*
X105792587Y-98850185D01*
X105838342Y-98902989D01*
X105848286Y-98972147D01*
X105819261Y-99035703D01*
X105813229Y-99042181D01*
X104265390Y-100590018D01*
X104243682Y-100607330D01*
X104127741Y-100680181D01*
X104127739Y-100680182D01*
X104000184Y-100807737D01*
X103904211Y-100960476D01*
X103844631Y-101130745D01*
X103844630Y-101130750D01*
X103824435Y-101309996D01*
X103824435Y-101310003D01*
X103844630Y-101489249D01*
X103844631Y-101489254D01*
X103904211Y-101659523D01*
X103947551Y-101728497D01*
X104000184Y-101812262D01*
X104127738Y-101939816D01*
X104157946Y-101958797D01*
X104248186Y-102015499D01*
X104280478Y-102035789D01*
X104351098Y-102060500D01*
X104450745Y-102095368D01*
X104450750Y-102095369D01*
X104629996Y-102115565D01*
X104630000Y-102115565D01*
X104630004Y-102115565D01*
X104809249Y-102095369D01*
X104809252Y-102095368D01*
X104809255Y-102095368D01*
X104979522Y-102035789D01*
X105132262Y-101939816D01*
X105259816Y-101812262D01*
X105355789Y-101659522D01*
X105415368Y-101489255D01*
X105419627Y-101451462D01*
X105435565Y-101310002D01*
X105435565Y-101309999D01*
X105430000Y-101260615D01*
X105442054Y-101191793D01*
X105465536Y-101159052D01*
X106898379Y-99726209D01*
X106959700Y-99692726D01*
X106972156Y-99690674D01*
X107019255Y-99685368D01*
X107189522Y-99625789D01*
X107342262Y-99529816D01*
X107469816Y-99402262D01*
X107565789Y-99249522D01*
X107625368Y-99079255D01*
X107625369Y-99079249D01*
X107640989Y-98940617D01*
X107668055Y-98876203D01*
X107725650Y-98836648D01*
X107764209Y-98830500D01*
X108913348Y-98830500D01*
X108980387Y-98850185D01*
X109026142Y-98902989D01*
X109036086Y-98972147D01*
X109007061Y-99035703D01*
X109001035Y-99042174D01*
X108767369Y-99275840D01*
X108767367Y-99275842D01*
X108727420Y-99315789D01*
X108680240Y-99362968D01*
X108667365Y-99382239D01*
X108663253Y-99388393D01*
X108644671Y-99416203D01*
X108611784Y-99465420D01*
X108582211Y-99536817D01*
X108582212Y-99536818D01*
X108572920Y-99559252D01*
X108564638Y-99579247D01*
X108564637Y-99579248D01*
X108545337Y-99676283D01*
X108545336Y-99676287D01*
X108540600Y-99700093D01*
X108540600Y-104194207D01*
X108547825Y-104230536D01*
X108564635Y-104315045D01*
X108564636Y-104315049D01*
X108564637Y-104315052D01*
X108570435Y-104329049D01*
X108611788Y-104428886D01*
X108611789Y-104428888D01*
X108611790Y-104428889D01*
X108611790Y-104428890D01*
X108625825Y-104449894D01*
X108625826Y-104449895D01*
X108680240Y-104531331D01*
X108680241Y-104531332D01*
X108680242Y-104531333D01*
X108767367Y-104618458D01*
X108767368Y-104618458D01*
X108774435Y-104625525D01*
X108774434Y-104625525D01*
X108774438Y-104625528D01*
X109146263Y-104997355D01*
X109146267Y-104997358D01*
X109248710Y-105065809D01*
X109248711Y-105065809D01*
X109248715Y-105065812D01*
X109293591Y-105084400D01*
X109362548Y-105112963D01*
X109382597Y-105116951D01*
X109416196Y-105123634D01*
X109483392Y-105137001D01*
X109483394Y-105137001D01*
X109612721Y-105137001D01*
X109612741Y-105137000D01*
X112348507Y-105137000D01*
X112408929Y-105124981D01*
X112469352Y-105112963D01*
X112469355Y-105112961D01*
X112469358Y-105112961D01*
X112502687Y-105099154D01*
X112502686Y-105099154D01*
X112502692Y-105099152D01*
X112583186Y-105065812D01*
X112643209Y-105025705D01*
X112685633Y-104997358D01*
X112772758Y-104910233D01*
X112772758Y-104910231D01*
X112782966Y-104900024D01*
X112782967Y-104900021D01*
X116026157Y-101656834D01*
X116026519Y-101656293D01*
X116027006Y-101655565D01*
X116094607Y-101554392D01*
X116094607Y-101554391D01*
X116094611Y-101554386D01*
X116141763Y-101440552D01*
X116145170Y-101423422D01*
X116150806Y-101395090D01*
X116150806Y-101395088D01*
X116165800Y-101319707D01*
X116165800Y-101196494D01*
X116165800Y-96524754D01*
X116184807Y-96458781D01*
X116198892Y-96436366D01*
X116266089Y-96329422D01*
X116267858Y-96324368D01*
X116308579Y-96267591D01*
X116373531Y-96241843D01*
X116442093Y-96255299D01*
X116492497Y-96303685D01*
X116508900Y-96365321D01*
X116508900Y-105045145D01*
X116489894Y-105111117D01*
X116408611Y-105240476D01*
X116349031Y-105410745D01*
X116349030Y-105410750D01*
X116328835Y-105589996D01*
X116328835Y-105590003D01*
X116349030Y-105769249D01*
X116349031Y-105769254D01*
X116408611Y-105939523D01*
X116504584Y-106092262D01*
X116545141Y-106132819D01*
X116578626Y-106194142D01*
X116573642Y-106263834D01*
X116531770Y-106319767D01*
X116466306Y-106344184D01*
X116457460Y-106344500D01*
X81513751Y-106344500D01*
X81506264Y-106344274D01*
X81216205Y-106326728D01*
X81201340Y-106324923D01*
X80919201Y-106273219D01*
X80904663Y-106269635D01*
X80630832Y-106184306D01*
X80616831Y-106178997D01*
X80355263Y-106061275D01*
X80342004Y-106054316D01*
X80096537Y-105905926D01*
X80084217Y-105897422D01*
X80045142Y-105866809D01*
X79858426Y-105720526D01*
X79847218Y-105710596D01*
X79644403Y-105507781D01*
X79634473Y-105496573D01*
X79594441Y-105445476D01*
X79457573Y-105270776D01*
X79449075Y-105258465D01*
X79300680Y-105012989D01*
X79293727Y-104999743D01*
X79176000Y-104738163D01*
X79170693Y-104724167D01*
X79169337Y-104719816D01*
X79085363Y-104450335D01*
X79081780Y-104435798D01*
X79062218Y-104329052D01*
X79030075Y-104153657D01*
X79028271Y-104138794D01*
X79010726Y-103848736D01*
X79010500Y-103841249D01*
X79010500Y-91069996D01*
X85644435Y-91069996D01*
X85644435Y-91070003D01*
X85664630Y-91249249D01*
X85664631Y-91249254D01*
X85724211Y-91419523D01*
X85725392Y-91421402D01*
X85820184Y-91572262D01*
X85947738Y-91699816D01*
X85995481Y-91729815D01*
X86092025Y-91790478D01*
X86100478Y-91795789D01*
X86268519Y-91854589D01*
X86270745Y-91855368D01*
X86270750Y-91855369D01*
X86449996Y-91875565D01*
X86450000Y-91875565D01*
X86450004Y-91875565D01*
X86629240Y-91855370D01*
X86629242Y-91855369D01*
X86629255Y-91855368D01*
X86629266Y-91855363D01*
X86631423Y-91854872D01*
X86632875Y-91854960D01*
X86636176Y-91854589D01*
X86636241Y-91855166D01*
X86701162Y-91859137D01*
X86746712Y-91888079D01*
X87941580Y-93082948D01*
X87941584Y-93082951D01*
X88064498Y-93165080D01*
X88064511Y-93165087D01*
X88201082Y-93221656D01*
X88201087Y-93221658D01*
X88201091Y-93221658D01*
X88201092Y-93221659D01*
X88346079Y-93250500D01*
X88346082Y-93250500D01*
X88493917Y-93250500D01*
X90120028Y-93250500D01*
X90160983Y-93257458D01*
X90240745Y-93285368D01*
X90240750Y-93285369D01*
X90419996Y-93305565D01*
X90420000Y-93305565D01*
X90420004Y-93305565D01*
X90599249Y-93285369D01*
X90599252Y-93285368D01*
X90599255Y-93285368D01*
X90769522Y-93225789D01*
X90922262Y-93129816D01*
X91049816Y-93002262D01*
X91145789Y-92849522D01*
X91205368Y-92679255D01*
X91211330Y-92626344D01*
X91225565Y-92500003D01*
X91225565Y-92499996D01*
X91205369Y-92320750D01*
X91205368Y-92320745D01*
X91197338Y-92297796D01*
X91145789Y-92150478D01*
X91049816Y-91997738D01*
X90922262Y-91870184D01*
X90898684Y-91855369D01*
X90769523Y-91774211D01*
X90599254Y-91714631D01*
X90599249Y-91714630D01*
X90420004Y-91694435D01*
X90419996Y-91694435D01*
X90240750Y-91714630D01*
X90240745Y-91714631D01*
X90160983Y-91742542D01*
X90120028Y-91749500D01*
X88782229Y-91749500D01*
X88715190Y-91729815D01*
X88694548Y-91713181D01*
X87468421Y-90487052D01*
X87468420Y-90487051D01*
X87373438Y-90423587D01*
X87345495Y-90404916D01*
X87345488Y-90404912D01*
X87208917Y-90348343D01*
X87208907Y-90348340D01*
X87063920Y-90319500D01*
X87063918Y-90319500D01*
X86749972Y-90319500D01*
X86709017Y-90312542D01*
X86629254Y-90284631D01*
X86629249Y-90284630D01*
X86450004Y-90264435D01*
X86449996Y-90264435D01*
X86270750Y-90284630D01*
X86270745Y-90284631D01*
X86100476Y-90344211D01*
X85947737Y-90440184D01*
X85820184Y-90567737D01*
X85724211Y-90720476D01*
X85664631Y-90890745D01*
X85664630Y-90890750D01*
X85644435Y-91069996D01*
X79010500Y-91069996D01*
X79010500Y-82492335D01*
X81459300Y-82492335D01*
X81459300Y-84538070D01*
X81459301Y-84538076D01*
X81465708Y-84597683D01*
X81516002Y-84732528D01*
X81516006Y-84732535D01*
X81602252Y-84847744D01*
X81602255Y-84847747D01*
X81717464Y-84933993D01*
X81717471Y-84933997D01*
X81852317Y-84984291D01*
X81852316Y-84984291D01*
X81859244Y-84985035D01*
X81911927Y-84990700D01*
X83957672Y-84990699D01*
X84017283Y-84984291D01*
X84152131Y-84933996D01*
X84267346Y-84847746D01*
X84353596Y-84732531D01*
X84403891Y-84597683D01*
X84410300Y-84538073D01*
X84410299Y-83515194D01*
X86454243Y-83515194D01*
X86454243Y-83515205D01*
X86474434Y-83758883D01*
X86474436Y-83758895D01*
X86534463Y-83995934D01*
X86632688Y-84219866D01*
X86766432Y-84424578D01*
X86932042Y-84604477D01*
X86932052Y-84604486D01*
X87125008Y-84754670D01*
X87125012Y-84754673D01*
X87300277Y-84849522D01*
X87340067Y-84871055D01*
X87340070Y-84871056D01*
X87571341Y-84950451D01*
X87571343Y-84950451D01*
X87571345Y-84950452D01*
X87812537Y-84990700D01*
X87812538Y-84990700D01*
X88057062Y-84990700D01*
X88057063Y-84990700D01*
X88298255Y-84950452D01*
X88529533Y-84871055D01*
X88744588Y-84754673D01*
X88937554Y-84604481D01*
X89103168Y-84424577D01*
X89236911Y-84219867D01*
X89335136Y-83995936D01*
X89395164Y-83758892D01*
X89415357Y-83515200D01*
X89415357Y-83515194D01*
X91454243Y-83515194D01*
X91454243Y-83515205D01*
X91474434Y-83758883D01*
X91474436Y-83758895D01*
X91534463Y-83995934D01*
X91632688Y-84219866D01*
X91766432Y-84424578D01*
X91932042Y-84604477D01*
X91932052Y-84604486D01*
X92125008Y-84754670D01*
X92125012Y-84754673D01*
X92300277Y-84849522D01*
X92340067Y-84871055D01*
X92340070Y-84871056D01*
X92571341Y-84950451D01*
X92571343Y-84950451D01*
X92571345Y-84950452D01*
X92812537Y-84990700D01*
X92812538Y-84990700D01*
X93057062Y-84990700D01*
X93057063Y-84990700D01*
X93298255Y-84950452D01*
X93529533Y-84871055D01*
X93744588Y-84754673D01*
X93937554Y-84604481D01*
X94103168Y-84424577D01*
X94236911Y-84219867D01*
X94335136Y-83995936D01*
X94395164Y-83758892D01*
X94415357Y-83515200D01*
X94415357Y-83515194D01*
X96454243Y-83515194D01*
X96454243Y-83515205D01*
X96474434Y-83758883D01*
X96474436Y-83758895D01*
X96534463Y-83995934D01*
X96632688Y-84219866D01*
X96766432Y-84424578D01*
X96932042Y-84604477D01*
X96932052Y-84604486D01*
X97125008Y-84754670D01*
X97125012Y-84754673D01*
X97300277Y-84849522D01*
X97340067Y-84871055D01*
X97340070Y-84871056D01*
X97571341Y-84950451D01*
X97571343Y-84950451D01*
X97571345Y-84950452D01*
X97812537Y-84990700D01*
X97812538Y-84990700D01*
X98057062Y-84990700D01*
X98057063Y-84990700D01*
X98298255Y-84950452D01*
X98529533Y-84871055D01*
X98744588Y-84754673D01*
X98937554Y-84604481D01*
X99103168Y-84424577D01*
X99236911Y-84219867D01*
X99335136Y-83995936D01*
X99395164Y-83758892D01*
X99415357Y-83515200D01*
X99395164Y-83271508D01*
X99335136Y-83034464D01*
X99236911Y-82810533D01*
X99103168Y-82605823D01*
X99103167Y-82605821D01*
X98937557Y-82425922D01*
X98937547Y-82425913D01*
X98744591Y-82275729D01*
X98744587Y-82275726D01*
X98529534Y-82159345D01*
X98529529Y-82159343D01*
X98298258Y-82079948D01*
X98095464Y-82046108D01*
X98057063Y-82039700D01*
X97812537Y-82039700D01*
X97774136Y-82046108D01*
X97571341Y-82079948D01*
X97340070Y-82159343D01*
X97340065Y-82159345D01*
X97125012Y-82275726D01*
X97125008Y-82275729D01*
X96932052Y-82425913D01*
X96932042Y-82425922D01*
X96766432Y-82605821D01*
X96632688Y-82810533D01*
X96534463Y-83034465D01*
X96474436Y-83271504D01*
X96474434Y-83271516D01*
X96454243Y-83515194D01*
X94415357Y-83515194D01*
X94395164Y-83271508D01*
X94335136Y-83034464D01*
X94236911Y-82810533D01*
X94103168Y-82605823D01*
X94103167Y-82605821D01*
X93937557Y-82425922D01*
X93937547Y-82425913D01*
X93744591Y-82275729D01*
X93744587Y-82275726D01*
X93529534Y-82159345D01*
X93529529Y-82159343D01*
X93298258Y-82079948D01*
X93095464Y-82046108D01*
X93057063Y-82039700D01*
X92812537Y-82039700D01*
X92774136Y-82046108D01*
X92571341Y-82079948D01*
X92340070Y-82159343D01*
X92340065Y-82159345D01*
X92125012Y-82275726D01*
X92125008Y-82275729D01*
X91932052Y-82425913D01*
X91932042Y-82425922D01*
X91766432Y-82605821D01*
X91632688Y-82810533D01*
X91534463Y-83034465D01*
X91474436Y-83271504D01*
X91474434Y-83271516D01*
X91454243Y-83515194D01*
X89415357Y-83515194D01*
X89395164Y-83271508D01*
X89335136Y-83034464D01*
X89236911Y-82810533D01*
X89103168Y-82605823D01*
X89103167Y-82605821D01*
X88937557Y-82425922D01*
X88937547Y-82425913D01*
X88744591Y-82275729D01*
X88744587Y-82275726D01*
X88529534Y-82159345D01*
X88529529Y-82159343D01*
X88298258Y-82079948D01*
X88095464Y-82046108D01*
X88057063Y-82039700D01*
X87812537Y-82039700D01*
X87774136Y-82046108D01*
X87571341Y-82079948D01*
X87340070Y-82159343D01*
X87340065Y-82159345D01*
X87125012Y-82275726D01*
X87125008Y-82275729D01*
X86932052Y-82425913D01*
X86932042Y-82425922D01*
X86766432Y-82605821D01*
X86632688Y-82810533D01*
X86534463Y-83034465D01*
X86474436Y-83271504D01*
X86474434Y-83271516D01*
X86454243Y-83515194D01*
X84410299Y-83515194D01*
X84410299Y-82492328D01*
X84403891Y-82432717D01*
X84401353Y-82425913D01*
X84353597Y-82297871D01*
X84353593Y-82297864D01*
X84267347Y-82182655D01*
X84267344Y-82182652D01*
X84152135Y-82096406D01*
X84152128Y-82096402D01*
X84017282Y-82046108D01*
X84017283Y-82046108D01*
X83957683Y-82039701D01*
X83957681Y-82039700D01*
X83957673Y-82039700D01*
X83957664Y-82039700D01*
X81911929Y-82039700D01*
X81911923Y-82039701D01*
X81852316Y-82046108D01*
X81717471Y-82096402D01*
X81717464Y-82096406D01*
X81602255Y-82182652D01*
X81602252Y-82182655D01*
X81516006Y-82297864D01*
X81516002Y-82297871D01*
X81465708Y-82432717D01*
X81463822Y-82450264D01*
X81459301Y-82492323D01*
X81459300Y-82492335D01*
X79010500Y-82492335D01*
X79010500Y-79468750D01*
X79010726Y-79461263D01*
X79028271Y-79171205D01*
X79030076Y-79156340D01*
X79081780Y-78874201D01*
X79085364Y-78859663D01*
X79162096Y-78613422D01*
X79170696Y-78585822D01*
X79175998Y-78571841D01*
X79293731Y-78310249D01*
X79300676Y-78297016D01*
X79449080Y-78051526D01*
X79457567Y-78039230D01*
X79634480Y-77813417D01*
X79644395Y-77802226D01*
X79847226Y-77599395D01*
X79858417Y-77589480D01*
X80084230Y-77412567D01*
X80096526Y-77404080D01*
X80342016Y-77255676D01*
X80355249Y-77248731D01*
X80616841Y-77130998D01*
X80630822Y-77125696D01*
X80904668Y-77040362D01*
X80919197Y-77036780D01*
X81201344Y-76985075D01*
X81216201Y-76983271D01*
X81506264Y-76965726D01*
X81513751Y-76965500D01*
X81575892Y-76965500D01*
X123564108Y-76965500D01*
X123626249Y-76965500D01*
X123633736Y-76965726D01*
G37*
%TD.AperFunction*%
%TD*%
M02*
