%TF.GenerationSoftware,KiCad,Pcbnew,8.0.3*%
%TF.CreationDate,2024-08-07T15:39:48+03:00*%
%TF.ProjectId,Thermometer Schematic,54686572-6d6f-46d6-9574-657220536368,rev?*%
%TF.SameCoordinates,Original*%
%TF.FileFunction,Copper,L1,Top*%
%TF.FilePolarity,Positive*%
%FSLAX46Y46*%
G04 Gerber Fmt 4.6, Leading zero omitted, Abs format (unit mm)*
G04 Created by KiCad (PCBNEW 8.0.3) date 2024-08-07 15:39:48*
%MOMM*%
%LPD*%
G01*
G04 APERTURE LIST*
G04 Aperture macros list*
%AMRoundRect*
0 Rectangle with rounded corners*
0 $1 Rounding radius*
0 $2 $3 $4 $5 $6 $7 $8 $9 X,Y pos of 4 corners*
0 Add a 4 corners polygon primitive as box body*
4,1,4,$2,$3,$4,$5,$6,$7,$8,$9,$2,$3,0*
0 Add four circle primitives for the rounded corners*
1,1,$1+$1,$2,$3*
1,1,$1+$1,$4,$5*
1,1,$1+$1,$6,$7*
1,1,$1+$1,$8,$9*
0 Add four rect primitives between the rounded corners*
20,1,$1+$1,$2,$3,$4,$5,0*
20,1,$1+$1,$4,$5,$6,$7,0*
20,1,$1+$1,$6,$7,$8,$9,0*
20,1,$1+$1,$8,$9,$2,$3,0*%
G04 Aperture macros list end*
%TA.AperFunction,Conductor*%
%ADD10C,0.200000*%
%TD*%
%TA.AperFunction,SMDPad,CuDef*%
%ADD11R,0.560000X0.600000*%
%TD*%
%TA.AperFunction,SMDPad,CuDef*%
%ADD12R,1.524000X1.524000*%
%TD*%
%TA.AperFunction,SMDPad,CuDef*%
%ADD13R,1.524000X1.497000*%
%TD*%
%TA.AperFunction,SMDPad,CuDef*%
%ADD14RoundRect,0.102500X-0.642500X-0.102500X0.642500X-0.102500X0.642500X0.102500X-0.642500X0.102500X0*%
%TD*%
%TA.AperFunction,SMDPad,CuDef*%
%ADD15RoundRect,0.102500X0.642500X0.102500X-0.642500X0.102500X-0.642500X-0.102500X0.642500X-0.102500X0*%
%TD*%
%TA.AperFunction,SMDPad,CuDef*%
%ADD16R,0.540000X0.600000*%
%TD*%
%TA.AperFunction,SMDPad,CuDef*%
%ADD17R,1.150000X1.150000*%
%TD*%
%TA.AperFunction,ComponentPad*%
%ADD18R,1.700000X1.700000*%
%TD*%
%TA.AperFunction,SMDPad,CuDef*%
%ADD19R,0.600000X0.540000*%
%TD*%
%TA.AperFunction,SMDPad,CuDef*%
%ADD20R,1.420000X0.920000*%
%TD*%
%TA.AperFunction,ComponentPad*%
%ADD21R,1.950000X1.950000*%
%TD*%
%TA.AperFunction,ComponentPad*%
%ADD22C,1.950000*%
%TD*%
%TA.AperFunction,SMDPad,CuDef*%
%ADD23R,0.431800X1.498600*%
%TD*%
%TA.AperFunction,SMDPad,CuDef*%
%ADD24R,0.475000X0.500000*%
%TD*%
%TA.AperFunction,SMDPad,CuDef*%
%ADD25R,1.470000X1.160000*%
%TD*%
%TA.AperFunction,SMDPad,CuDef*%
%ADD26R,1.160000X1.470000*%
%TD*%
%TA.AperFunction,SMDPad,CuDef*%
%ADD27R,0.600000X0.560000*%
%TD*%
%TA.AperFunction,SMDPad,CuDef*%
%ADD28R,1.100000X1.000000*%
%TD*%
%TA.AperFunction,SMDPad,CuDef*%
%ADD29R,0.920000X1.420000*%
%TD*%
%TA.AperFunction,SMDPad,CuDef*%
%ADD30R,1.150000X1.800000*%
%TD*%
%TA.AperFunction,SMDPad,CuDef*%
%ADD31R,1.440000X1.820000*%
%TD*%
%TA.AperFunction,ComponentPad*%
%ADD32O,1.700000X1.700000*%
%TD*%
%TA.AperFunction,SMDPad,CuDef*%
%ADD33R,1.498600X0.406100*%
%TD*%
%TA.AperFunction,SMDPad,CuDef*%
%ADD34R,1.498600X0.400000*%
%TD*%
%TA.AperFunction,SMDPad,CuDef*%
%ADD35R,1.498600X0.410700*%
%TD*%
%TA.AperFunction,SMDPad,CuDef*%
%ADD36R,0.850000X1.000000*%
%TD*%
%TA.AperFunction,ViaPad*%
%ADD37C,0.600000*%
%TD*%
%TA.AperFunction,Conductor*%
%ADD38C,0.500000*%
%TD*%
%TA.AperFunction,Conductor*%
%ADD39C,0.250000*%
%TD*%
%TA.AperFunction,Conductor*%
%ADD40C,0.300000*%
%TD*%
G04 APERTURE END LIST*
D10*
%TO.N,/RL1_SNR1*%
X104650000Y-101340000D02*
X103070000Y-101350000D01*
%TD*%
D11*
%TO.P,R12,1*%
%TO.N,/DOUT{slash}RDY*%
X108620000Y-95080000D03*
%TO.P,R12,2*%
%TO.N,ADC IOVDD*%
X107750000Y-95080000D03*
%TD*%
D12*
%TO.P,C4,1*%
%TO.N,GND*%
X85110000Y-100799800D03*
D13*
%TO.P,C4,2*%
%TO.N,Vin*%
X85110000Y-98590000D03*
%TD*%
D14*
%TO.P,U1,1,DIN*%
%TO.N,/DIN*%
X102930000Y-96780000D03*
%TO.P,U1,2,SCLK*%
%TO.N,/SCLK*%
X102930000Y-97430000D03*
%TO.P,U1,3,CLK*%
%TO.N,unconnected-(U1-CLK-Pad3)*%
X102930000Y-98080000D03*
%TO.P,U1,4,~{CS}*%
%TO.N,/CS*%
X102930000Y-98730000D03*
%TO.P,U1,5,REGCAPD*%
%TO.N,Net-(U1-REGCAPD)*%
X102930000Y-99380000D03*
%TO.P,U1,6,IOVDD*%
%TO.N,ADC IOVDD*%
X102930000Y-100030000D03*
%TO.P,U1,7,DGND*%
%TO.N,GND*%
X102930000Y-100680000D03*
%TO.P,U1,8,AIN0/IOUT/VBIAS*%
%TO.N,/RL1_SNR1*%
X102930000Y-101330000D03*
%TO.P,U1,9,AIN1/IOUT/VBIAS*%
%TO.N,/AIN1*%
X102930000Y-101980000D03*
%TO.P,U1,10,AIN2/IOUT/VBIAS/P1*%
%TO.N,/AIN2*%
X102930000Y-102630000D03*
%TO.P,U1,11,AIN3/IOUT/VBIAS/P2*%
%TO.N,/RL1_SNR2*%
X102930000Y-103280000D03*
%TO.P,U1,12,REFIN1+*%
%TO.N,/REFIN1+*%
X102930000Y-103930000D03*
D15*
%TO.P,U1,13,REFIN1-*%
%TO.N,/REFIN1-*%
X108670000Y-103930000D03*
%TO.P,U1,14,AIN4/IOUT/VBIAS*%
%TO.N,/AIN4*%
X108670000Y-103280000D03*
%TO.P,U1,15,AIN5/IOUT/VBIAS*%
%TO.N,/AIN5*%
X108670000Y-102630000D03*
%TO.P,U1,16,AIN6/IOUT/VBIAS/REFIN2+*%
%TO.N,unconnected-(U1-AIN6{slash}IOUT{slash}VBIAS{slash}REFIN2+-Pad16)*%
X108670000Y-101980000D03*
%TO.P,U1,17,AIN7/IOUT/VBIAS/REFIN2-*%
%TO.N,unconnected-(U1-AIN7{slash}IOUT{slash}VBIAS{slash}REFIN2--Pad17)*%
X108670000Y-101330000D03*
%TO.P,U1,18,REFOUT*%
%TO.N,unconnected-(U1-REFOUT-Pad18)*%
X108670000Y-100680000D03*
%TO.P,U1,19,AVSS*%
%TO.N,GND*%
X108670000Y-100030000D03*
%TO.P,U1,20,REGCAPA*%
%TO.N,Net-(U1-REGCAPA)*%
X108670000Y-99380000D03*
%TO.P,U1,21,PSW*%
%TO.N,unconnected-(U1-PSW-Pad21)*%
X108670000Y-98730000D03*
%TO.P,U1,22,AVDD*%
%TO.N,ADC AVDD*%
X108670000Y-98080000D03*
%TO.P,U1,23,~{SYNC}*%
%TO.N,/SYNC*%
X108670000Y-97430000D03*
%TO.P,U1,24,DOUT/~{RDY}*%
%TO.N,/DOUT{slash}RDY*%
X108670000Y-96780000D03*
%TD*%
D16*
%TO.P,C14,1*%
%TO.N,/AIN4*%
X111991400Y-92749400D03*
%TO.P,C14,2*%
%TO.N,GNDA*%
X112855400Y-92749400D03*
%TD*%
D12*
%TO.P,C3,1*%
%TO.N,GND*%
X91760000Y-94709800D03*
D13*
%TO.P,C3,2*%
%TO.N,ADC AVDD*%
X91760000Y-92500000D03*
%TD*%
D17*
%TO.P,R18,1*%
%TO.N,Net-(J2-Pin_5)*%
X120000000Y-90530000D03*
%TO.P,R18,2*%
%TO.N,/DOUT{slash}RDY*%
X117650000Y-90530000D03*
%TD*%
D18*
%TO.P,J5,1,Pin_1*%
%TO.N,Vin*%
X93980000Y-103718000D03*
%TD*%
D19*
%TO.P,R15,1*%
%TO.N,GNDA*%
X99088000Y-103400000D03*
%TO.P,R15,2*%
%TO.N,GND*%
X99088000Y-104264000D03*
%TD*%
D20*
%TO.P,R17,1*%
%TO.N,/RL2_SNR2*%
X112658800Y-89200000D03*
%TO.P,R17,2*%
%TO.N,/AIN4*%
X112658800Y-91200000D03*
%TD*%
D16*
%TO.P,C11,1*%
%TO.N,/AIN2*%
X95800600Y-92764800D03*
%TO.P,C11,2*%
%TO.N,GNDA*%
X96664600Y-92764800D03*
%TD*%
D19*
%TO.P,C19,1*%
%TO.N,/REFIN1-*%
X107050000Y-92980000D03*
%TO.P,C19,2*%
%TO.N,GNDA*%
X107050000Y-92116000D03*
%TD*%
D12*
%TO.P,C7,1*%
%TO.N,GND*%
X82720000Y-100790000D03*
D13*
%TO.P,C7,2*%
%TO.N,ADC IOVDD*%
X82720000Y-98580200D03*
%TD*%
D21*
%TO.P,J4,1,1*%
%TO.N,/REF*%
X120421400Y-82931000D03*
D22*
%TO.P,J4,2,2*%
%TO.N,/RL3_SNR2*%
X115421400Y-82931000D03*
%TO.P,J4,3,3*%
%TO.N,/RL2_SNR2*%
X110421400Y-82931000D03*
%TO.P,J4,4,4*%
%TO.N,/RL1_SNR2*%
X105421400Y-82931000D03*
%TD*%
D23*
%TO.P,IC1,1,GND_2*%
%TO.N,GND*%
X83040000Y-90491200D03*
%TO.P,IC1,2,IN*%
%TO.N,Vin*%
X82405000Y-90491200D03*
%TO.P,IC1,3,OUT*%
%TO.N,ADC AVDD*%
X81744600Y-90491200D03*
%TO.P,IC1,4,EN*%
%TO.N,Vin*%
X81109600Y-90491200D03*
%TO.P,IC1,5,GND_3*%
%TO.N,GND*%
X81109600Y-94860000D03*
%TO.P,IC1,6,GND_4*%
X81744600Y-94860000D03*
%TO.P,IC1,7,GND_5*%
X82405000Y-94860000D03*
%TO.P,IC1,8,GND*%
X83040000Y-94860000D03*
%TD*%
D24*
%TO.P,R10,1*%
%TO.N,Net-(R10-Pad1)*%
X104832200Y-91049200D03*
%TO.P,R10,2*%
%TO.N,GNDA*%
X105856200Y-91049200D03*
%TD*%
D21*
%TO.P,J3,1,1*%
%TO.N,/REF*%
X82934800Y-83515200D03*
D22*
%TO.P,J3,2,2*%
%TO.N,/RL3_SNR1*%
X87934800Y-83515200D03*
%TO.P,J3,3,3*%
%TO.N,/RL2_SNR1*%
X92934800Y-83515200D03*
%TO.P,J3,4,4*%
%TO.N,/RL1_SNR1*%
X97934800Y-83515200D03*
%TD*%
D17*
%TO.P,R7,1*%
%TO.N,Net-(J2-Pin_4)*%
X119950000Y-93090000D03*
%TO.P,R7,2*%
%TO.N,/DIN*%
X117600000Y-93090000D03*
%TD*%
D20*
%TO.P,R3,1*%
%TO.N,/RL2_SNR1*%
X98580000Y-89220000D03*
%TO.P,R3,2*%
%TO.N,/AIN1*%
X98580000Y-91220000D03*
%TD*%
D25*
%TO.P,C8,1*%
%TO.N,ADC IOVDD*%
X80484400Y-98420300D03*
%TO.P,C8,2*%
%TO.N,GND*%
X80484400Y-100180300D03*
%TD*%
D26*
%TO.P,C9,1*%
%TO.N,Net-(U1-REGCAPA)*%
X113750000Y-99940000D03*
%TO.P,C9,2*%
%TO.N,GND*%
X111990000Y-99940000D03*
%TD*%
D27*
%TO.P,R11,1*%
%TO.N,/CS*%
X99550000Y-99115000D03*
%TO.P,R11,2*%
%TO.N,ADC IOVDD*%
X99550000Y-99985000D03*
%TD*%
D16*
%TO.P,C15,1*%
%TO.N,/AIN5*%
X115446600Y-92731400D03*
%TO.P,C15,2*%
%TO.N,GNDA*%
X114582600Y-92731400D03*
%TD*%
D17*
%TO.P,R9,1*%
%TO.N,Net-(R10-Pad1)*%
X101919200Y-92478200D03*
%TO.P,R9,2*%
%TO.N,/REF*%
X101919200Y-90128200D03*
%TD*%
%TO.P,R14,1*%
%TO.N,Net-(J2-Pin_1)*%
X119960000Y-100720000D03*
%TO.P,R14,2*%
%TO.N,/SYNC*%
X117610000Y-100720000D03*
%TD*%
D28*
%TO.P,R1,1*%
%TO.N,Net-(U2-ADJ)*%
X89670000Y-98370000D03*
%TO.P,R1,2*%
%TO.N,ADC IOVDD*%
X87970000Y-98370000D03*
%TD*%
D29*
%TO.P,R6,1*%
%TO.N,Net-(R10-Pad1)*%
X103627600Y-92573200D03*
%TO.P,R6,2*%
%TO.N,/REFIN1-*%
X105627600Y-92573200D03*
%TD*%
D26*
%TO.P,C5,1*%
%TO.N,ADC AVDD*%
X89160000Y-92460000D03*
%TO.P,C5,2*%
%TO.N,GND*%
X87400000Y-92460000D03*
%TD*%
D20*
%TO.P,R4,1*%
%TO.N,/RL3_SNR1*%
X96474400Y-89239800D03*
%TO.P,R4,2*%
%TO.N,/AIN2*%
X96474400Y-91239800D03*
%TD*%
D30*
%TO.P,C6,1,1*%
%TO.N,ADC AVDD*%
X92060000Y-90250000D03*
%TO.P,C6,2,2*%
%TO.N,GND*%
X89060000Y-90250000D03*
%TD*%
D31*
%TO.P,C2,1*%
%TO.N,Vin*%
X83150000Y-103710000D03*
%TO.P,C2,2*%
%TO.N,GND*%
X80478000Y-103710000D03*
%TD*%
D29*
%TO.P,R5,1*%
%TO.N,/REF*%
X103627600Y-89550600D03*
%TO.P,R5,2*%
%TO.N,/REFIN1+*%
X105627600Y-89550600D03*
%TD*%
D26*
%TO.P,C12,1*%
%TO.N,/AIN1*%
X98319200Y-94497600D03*
%TO.P,C12,2*%
%TO.N,/AIN2*%
X96559200Y-94497600D03*
%TD*%
D17*
%TO.P,R13,1*%
%TO.N,Net-(J2-Pin_2)*%
X119950000Y-98170000D03*
%TO.P,R13,2*%
%TO.N,/CS*%
X117600000Y-98170000D03*
%TD*%
D18*
%TO.P,J6,1,Pin_1*%
%TO.N,GNDA*%
X96520000Y-103718000D03*
%TD*%
D20*
%TO.P,R19,1*%
%TO.N,/RL3_SNR2*%
X114760000Y-89200000D03*
%TO.P,R19,2*%
%TO.N,/AIN5*%
X114760000Y-91200000D03*
%TD*%
D18*
%TO.P,J2,1,Pin_1*%
%TO.N,Net-(J2-Pin_1)*%
X122720000Y-100710000D03*
D32*
%TO.P,J2,2,Pin_2*%
%TO.N,Net-(J2-Pin_2)*%
X122720000Y-98170000D03*
%TO.P,J2,3,Pin_3*%
%TO.N,Net-(J2-Pin_3)*%
X122720000Y-95630000D03*
%TO.P,J2,4,Pin_4*%
%TO.N,Net-(J2-Pin_4)*%
X122720000Y-93090000D03*
%TO.P,J2,5,Pin_5*%
%TO.N,Net-(J2-Pin_5)*%
X122720000Y-90550000D03*
%TD*%
D17*
%TO.P,R8,1*%
%TO.N,Net-(J2-Pin_3)*%
X119960000Y-95640000D03*
%TO.P,R8,2*%
%TO.N,/SCLK*%
X117610000Y-95640000D03*
%TD*%
D16*
%TO.P,C10,1*%
%TO.N,/AIN1*%
X99255600Y-92770000D03*
%TO.P,C10,2*%
%TO.N,GNDA*%
X98391600Y-92770000D03*
%TD*%
D26*
%TO.P,C13,1*%
%TO.N,Net-(U1-REGCAPD)*%
X93730000Y-99500000D03*
%TO.P,C13,2*%
%TO.N,GND*%
X91970000Y-99500000D03*
%TD*%
D33*
%TO.P,U2,1,ADJ*%
%TO.N,Net-(U2-ADJ)*%
X85935600Y-102781950D03*
D34*
%TO.P,U2,2,IN*%
%TO.N,Vin*%
X85935600Y-103435000D03*
%TO.P,U2,3,OUT*%
%TO.N,ADC IOVDD*%
X85935600Y-104085000D03*
D33*
%TO.P,U2,4,EN*%
%TO.N,Vin*%
X85935600Y-104738050D03*
%TO.P,U2,5,GND_2*%
%TO.N,GND*%
X90304400Y-104738050D03*
D34*
%TO.P,U2,6,GND_3*%
X90304400Y-104085000D03*
D35*
%TO.P,U2,7,GND_4*%
X90304400Y-103440350D03*
D33*
%TO.P,U2,8,GND*%
X90304400Y-102781950D03*
%TD*%
D19*
%TO.P,C17,1*%
%TO.N,/REFIN1+*%
X107024600Y-89144200D03*
%TO.P,C17,2*%
%TO.N,GNDA*%
X107024600Y-90008200D03*
%TD*%
D36*
%TO.P,R2,1,1*%
%TO.N,GND*%
X88950000Y-100860000D03*
%TO.P,R2,2,2*%
%TO.N,Net-(U2-ADJ)*%
X87450000Y-100860000D03*
%TD*%
D26*
%TO.P,C1,1*%
%TO.N,Vin*%
X89160000Y-94730000D03*
%TO.P,C1,2*%
%TO.N,GND*%
X87400000Y-94730000D03*
%TD*%
D25*
%TO.P,C18,1*%
%TO.N,/REFIN1+*%
X108840000Y-90450000D03*
%TO.P,C18,2*%
%TO.N,/REFIN1-*%
X108840000Y-92210000D03*
%TD*%
D26*
%TO.P,C16,1*%
%TO.N,/AIN4*%
X112843000Y-94484000D03*
%TO.P,C16,2*%
%TO.N,/AIN5*%
X114603000Y-94484000D03*
%TD*%
D37*
%TO.N,GND*%
X80480000Y-97140000D03*
X80480000Y-101780000D03*
%TO.N,Vin*%
X84570000Y-103150000D03*
X86550000Y-98590000D03*
X81820000Y-92140000D03*
%TO.N,ADC AVDD*%
X86450000Y-91070000D03*
X110060000Y-98080000D03*
X90420000Y-92500000D03*
X101450000Y-98060000D03*
%TO.N,ADC IOVDD*%
X84690000Y-104090000D03*
X88000000Y-97310000D03*
X92610000Y-96260000D03*
X86950000Y-96260000D03*
X83860000Y-96250000D03*
%TO.N,/AIN2*%
X101320000Y-102630000D03*
X100289400Y-95980000D03*
%TO.N,Net-(U1-REGCAPD)*%
X101440000Y-99380000D03*
X95140000Y-99380000D03*
%TO.N,/AIN4*%
X112840000Y-96000000D03*
X112840000Y-101930000D03*
%TO.N,/AIN5*%
X114730000Y-96020000D03*
X110090000Y-102630000D03*
%TO.N,/REFIN1+*%
X117134400Y-105590000D03*
X111254100Y-90894300D03*
%TO.N,/REFIN1-*%
X110315100Y-93403300D03*
X109839100Y-103983900D03*
%TO.N,/RL1_SNR1*%
X106840000Y-98900000D03*
X104630000Y-101310000D03*
X106830000Y-96850000D03*
X100680000Y-93690000D03*
%TO.N,/RL1_SNR2*%
X101738200Y-103280000D03*
X105430000Y-84500000D03*
%TO.N,Net-(U2-ADJ)*%
X86420000Y-100850000D03*
X89670000Y-99450000D03*
%TO.N,/DOUT{slash}RDY*%
X116562200Y-90535100D03*
X111009300Y-96588400D03*
%TO.N,/DIN*%
X105220000Y-88300000D03*
X99954332Y-90244332D03*
%TO.N,/SCLK*%
X115540300Y-95979900D03*
X104431200Y-97397200D03*
%TO.N,GNDA*%
X97528200Y-92770000D03*
X113707000Y-92731400D03*
X107050000Y-90998400D03*
%TD*%
D38*
%TO.N,GND*%
X87400000Y-93455000D02*
X87400000Y-92460000D01*
X80484400Y-103704000D02*
X80478000Y-103710000D01*
X80484400Y-100180000D02*
X82110400Y-100180000D01*
X87420000Y-93475000D02*
X87400000Y-93455000D01*
X80484400Y-100180000D02*
X80484400Y-100180300D01*
X104524000Y-100030000D02*
X103874000Y-100680000D01*
X82110400Y-100180000D02*
X82720000Y-100790000D01*
X87420000Y-94560000D02*
X87420000Y-93475000D01*
X91760000Y-99290000D02*
X91970000Y-99500000D01*
X86390000Y-99570000D02*
X85160200Y-100800000D01*
X100590000Y-101300000D02*
X100430000Y-101460000D01*
X91760000Y-94709800D02*
X91760000Y-97234400D01*
X88750000Y-90250000D02*
X87830000Y-90250000D01*
X100430000Y-103328000D02*
X99494000Y-104264000D01*
X90304400Y-104085000D02*
X90304400Y-104738000D01*
X88950000Y-99900000D02*
X88620000Y-99570000D01*
X103874000Y-100680000D02*
X102930000Y-100680000D01*
X90304400Y-102781900D02*
X90304400Y-103440300D01*
X82729800Y-100800000D02*
X82720000Y-100790000D01*
X83040000Y-90491200D02*
X83040000Y-94860000D01*
X88750000Y-90250000D02*
X89060000Y-90250000D01*
X80484400Y-100180000D02*
X80229400Y-100180000D01*
X87830000Y-90250000D02*
X87400000Y-90680000D01*
X102930000Y-100680000D02*
X101210000Y-100680000D01*
X92315200Y-101300000D02*
X100590000Y-101300000D01*
X87420000Y-93475000D02*
X87420000Y-92390000D01*
X88620000Y-99570000D02*
X86390000Y-99570000D01*
X87400000Y-90680000D02*
X87400000Y-92460000D01*
X99494000Y-104264000D02*
X99088000Y-104264000D01*
X81744600Y-94860000D02*
X81109600Y-94860000D01*
X90304400Y-101514000D02*
X90304400Y-102781900D01*
X88950000Y-100860000D02*
X89650000Y-100860000D01*
X85109800Y-100800000D02*
X82729800Y-100800000D01*
X90304400Y-103440300D02*
X90304400Y-104085000D01*
X87230000Y-94730000D02*
X87240000Y-94740000D01*
X90195000Y-101275000D02*
X91970000Y-99500000D01*
X101210000Y-100680000D02*
X100590000Y-101300000D01*
X90220000Y-101300000D02*
X92315200Y-101300000D01*
X108670000Y-100030000D02*
X111900000Y-100030000D01*
X111900000Y-100030000D02*
X111990000Y-99940000D01*
X83040000Y-94860000D02*
X82405000Y-94860000D01*
X100430000Y-101460000D02*
X100430000Y-103328000D01*
X87230000Y-94730000D02*
X83170000Y-94730000D01*
X89650000Y-100860000D02*
X90065000Y-101275000D01*
X83170000Y-94730000D02*
X83040000Y-94860000D01*
X80484400Y-100180300D02*
X80484400Y-101776000D01*
X108670000Y-100030000D02*
X104524000Y-100030000D01*
X90065000Y-101275000D02*
X90195000Y-101275000D01*
X91760000Y-97234400D02*
X91760000Y-99290000D01*
X100590000Y-101300000D02*
X100430000Y-101460000D01*
X87400000Y-94730000D02*
X87230000Y-94730000D01*
X80484400Y-101776000D02*
X80480000Y-101780000D01*
X85109800Y-100800000D02*
X85110000Y-100799800D01*
X90065000Y-101275000D02*
X90304400Y-101514000D01*
X80480000Y-97140000D02*
X80480000Y-95489600D01*
X82405000Y-94860000D02*
X81744600Y-94860000D01*
X85160200Y-100800000D02*
X85109800Y-100800000D01*
X90195000Y-101275000D02*
X90220000Y-101300000D01*
X80480000Y-101780000D02*
X80484400Y-101784000D01*
X80484400Y-101784000D02*
X80484400Y-103704000D01*
X88950000Y-100860000D02*
X88950000Y-99900000D01*
X87240000Y-94740000D02*
X87420000Y-94560000D01*
X80480000Y-95489600D02*
X81109600Y-94860000D01*
%TO.N,Vin*%
X85110000Y-98590000D02*
X86550000Y-98590000D01*
X85853600Y-104820000D02*
X85935600Y-104738000D01*
X89160000Y-96000000D02*
X88730000Y-96430000D01*
X84570000Y-103150000D02*
X84855000Y-103435000D01*
X81109600Y-90491200D02*
X81109600Y-91740500D01*
X82405000Y-91985000D02*
X82405000Y-90491200D01*
X81109600Y-91740500D02*
X81529100Y-92160000D01*
X89160000Y-94730000D02*
X89160000Y-96000000D01*
X82230000Y-92160000D02*
X82405000Y-91985000D01*
X81800000Y-92160000D02*
X81820000Y-92140000D01*
X87910000Y-96430000D02*
X86550000Y-97790000D01*
X88730000Y-96430000D02*
X87910000Y-96430000D01*
X81529100Y-92160000D02*
X81800000Y-92160000D01*
X84570000Y-103150000D02*
X84270000Y-103150000D01*
X83150000Y-103710000D02*
X83425000Y-103435000D01*
X81840000Y-92160000D02*
X82230000Y-92160000D01*
X83150000Y-103710000D02*
X84260000Y-104820000D01*
X81820000Y-92140000D02*
X81840000Y-92160000D01*
X84270000Y-103150000D02*
X83710000Y-103710000D01*
X84260000Y-104820000D02*
X85853600Y-104820000D01*
X83710000Y-103710000D02*
X83150000Y-103710000D01*
X84855000Y-103435000D02*
X85935600Y-103435000D01*
X86550000Y-97790000D02*
X86550000Y-98590000D01*
%TO.N,ADC AVDD*%
X90420000Y-92500000D02*
X91760000Y-92500000D01*
X90420000Y-92500000D02*
X89200000Y-92500000D01*
X90420000Y-92500000D02*
X90410000Y-92490000D01*
X84771900Y-89391900D02*
X81839100Y-89391900D01*
X108670000Y-98080000D02*
X110060000Y-98080000D01*
X81744600Y-89486400D02*
X81744600Y-90491200D01*
X97330000Y-98070000D02*
X101440000Y-98070000D01*
X89200000Y-92500000D02*
X89160000Y-92460000D01*
X86445400Y-91074600D02*
X86450000Y-91070000D01*
X86450000Y-91070000D02*
X84771900Y-89391900D01*
X92060000Y-92200000D02*
X91760000Y-92500000D01*
X81839100Y-89391900D02*
X81744600Y-89486400D01*
X91760000Y-92500000D02*
X97330000Y-98070000D01*
X92060000Y-90250000D02*
X92060000Y-92200000D01*
X101440000Y-98070000D02*
X101450000Y-98060000D01*
%TO.N,ADC IOVDD*%
X82720000Y-97390000D02*
X82720000Y-98580200D01*
X86950000Y-96260000D02*
X86970000Y-96260000D01*
X88000000Y-97310000D02*
X88020000Y-97330000D01*
X82560100Y-98420400D02*
X82720000Y-98580200D01*
X99580000Y-100015000D02*
X99550000Y-99985000D01*
X87970000Y-97340000D02*
X87970000Y-98370000D01*
X102930000Y-100030000D02*
X103667770Y-100030000D01*
X80484500Y-98420400D02*
X80484400Y-98420300D01*
X99550000Y-99985000D02*
X97485000Y-99985000D01*
X86970000Y-96260000D02*
X86870000Y-96360000D01*
X88000000Y-97310000D02*
X87970000Y-97340000D01*
X83860000Y-96250000D02*
X83870000Y-96260000D01*
X80484400Y-98420400D02*
X80484500Y-98420400D01*
X83870000Y-96260000D02*
X86950000Y-96260000D01*
X83860000Y-96250000D02*
X82720000Y-97390000D01*
X103667770Y-100030000D02*
X105920000Y-97777770D01*
X93760000Y-96260000D02*
X92610000Y-96260000D01*
X102930000Y-100030000D02*
X99595000Y-100030000D01*
X99580000Y-100015000D02*
X99550000Y-99985000D01*
X105920000Y-95080000D02*
X107750000Y-95080000D01*
X84840000Y-104090000D02*
X84690000Y-104090000D01*
X105920000Y-97777770D02*
X105920000Y-95080000D01*
X80484500Y-98420400D02*
X82560100Y-98420400D01*
X84835000Y-104085000D02*
X84840000Y-104090000D01*
X97485000Y-99985000D02*
X93760000Y-96260000D01*
X99595000Y-100030000D02*
X99580000Y-100015000D01*
X85935600Y-104085000D02*
X84835000Y-104085000D01*
D39*
%TO.N,Net-(U1-REGCAPA)*%
X110010000Y-99380000D02*
X108670000Y-99380000D01*
X113750000Y-99940000D02*
X113750000Y-99470000D01*
X112920000Y-98640000D02*
X110750000Y-98640000D01*
X110750000Y-98640000D02*
X110010000Y-99380000D01*
X113750000Y-99470000D02*
X112920000Y-98640000D01*
%TO.N,/AIN1*%
X113770330Y-96810000D02*
X118420000Y-96810000D01*
X104572400Y-94497600D02*
X105285000Y-93785000D01*
X99255600Y-91895600D02*
X99255600Y-92770000D01*
X106525000Y-104830000D02*
X103675000Y-101980000D01*
X118780000Y-102200000D02*
X117730000Y-102200000D01*
X109645330Y-93785000D02*
X112540330Y-96680000D01*
X99255600Y-93561200D02*
X99255600Y-92770000D01*
X117730000Y-102200000D02*
X115100000Y-104830000D01*
X113640330Y-96680000D02*
X113770330Y-96810000D01*
X112540330Y-96680000D02*
X113640330Y-96680000D01*
X103675000Y-101980000D02*
X102930000Y-101980000D01*
X98319200Y-94497600D02*
X99255600Y-93561200D01*
X105285000Y-93785000D02*
X109645330Y-93785000D01*
X118780000Y-97170000D02*
X118780000Y-102200000D01*
X98580000Y-91220000D02*
X99255600Y-91895600D01*
X98319200Y-94497600D02*
X104572400Y-94497600D01*
X118420000Y-96810000D02*
X118780000Y-97170000D01*
X115100000Y-104830000D02*
X106525000Y-104830000D01*
%TO.N,/AIN2*%
X96559200Y-94497600D02*
X95800600Y-93739000D01*
X96559200Y-94497600D02*
X96559200Y-95189200D01*
X97350000Y-95980000D02*
X100289400Y-95980000D01*
X95800600Y-93739000D02*
X95800600Y-92764800D01*
X96559200Y-95189200D02*
X97350000Y-95980000D01*
X101320000Y-102630000D02*
X102930000Y-102630000D01*
X96474400Y-91239800D02*
X95800600Y-91913600D01*
X95800600Y-91913600D02*
X95800600Y-92764800D01*
%TO.N,Net-(U1-REGCAPD)*%
X102930000Y-99380000D02*
X101450000Y-99380000D01*
X101450000Y-99380000D02*
X101440000Y-99380000D01*
X95140000Y-99380000D02*
X93850000Y-99380000D01*
X93850000Y-99380000D02*
X93730000Y-99500000D01*
X101440000Y-99380000D02*
X101450000Y-99380000D01*
%TO.N,/AIN4*%
X111991400Y-92749500D02*
X111991400Y-92749400D01*
X111991000Y-91867400D02*
X111991000Y-92749900D01*
X112840000Y-96000000D02*
X112843000Y-95977000D01*
X110580000Y-103280000D02*
X111490000Y-103280000D01*
X111991000Y-92749900D02*
X111991000Y-93632400D01*
X112843000Y-94484000D02*
X112840000Y-96000000D01*
X110580000Y-103280000D02*
X110080000Y-103280000D01*
X110080000Y-103280000D02*
X110580000Y-103280000D01*
X112325000Y-91533700D02*
X112325100Y-91533700D01*
X112325100Y-91533700D02*
X112658800Y-91200000D01*
X111991000Y-93632400D02*
X112843000Y-94484000D01*
X112659000Y-91200000D02*
X112325000Y-91533700D01*
X112325000Y-91533700D02*
X111991000Y-91867400D01*
X111490000Y-103280000D02*
X112840000Y-101930000D01*
X111991000Y-92749900D02*
X111991400Y-92749500D01*
X108670000Y-103280000D02*
X110080000Y-103280000D01*
%TO.N,/AIN5*%
X115447000Y-92763500D02*
X115446600Y-92763100D01*
X115447000Y-92763500D02*
X115447000Y-91886600D01*
X114603000Y-94484000D02*
X115447000Y-93640400D01*
X115447000Y-91886600D02*
X114760000Y-91200000D01*
X108670000Y-102630000D02*
X110090000Y-102630000D01*
X114730000Y-94611000D02*
X114603000Y-94484000D01*
X115447000Y-93640400D02*
X115447000Y-92763500D01*
X114730000Y-96020000D02*
X114730000Y-94611000D01*
X115446600Y-92763100D02*
X115446600Y-92731400D01*
D10*
%TO.N,/REFIN1+*%
X107534000Y-89144200D02*
X108840000Y-90450000D01*
X105831100Y-89753800D02*
X106060000Y-89524800D01*
D39*
X105628000Y-89550700D02*
X105831100Y-89753800D01*
D10*
X105628000Y-89957000D02*
X105831100Y-89753800D01*
D39*
X105628000Y-89550600D02*
X105628000Y-89550700D01*
X108840000Y-90450000D02*
X109825000Y-90450000D01*
X104620000Y-105620000D02*
X102930000Y-103930000D01*
D10*
X105628000Y-89550600D02*
X106034000Y-89144200D01*
D39*
X111254100Y-90894300D02*
X110269300Y-90894300D01*
D10*
X106034000Y-89144200D02*
X107024600Y-89144200D01*
D39*
X110269300Y-90894300D02*
X109825000Y-90450000D01*
X117104400Y-105620000D02*
X104620000Y-105620000D01*
D10*
X107024600Y-89144200D02*
X107534000Y-89144200D01*
D39*
X105627600Y-89550600D02*
X105628000Y-89550600D01*
X117134400Y-105590000D02*
X117104400Y-105620000D01*
D10*
%TO.N,/REFIN1-*%
X105628000Y-92573200D02*
X105831000Y-92776600D01*
D39*
X108723900Y-103983900D02*
X109839100Y-103983900D01*
X109891800Y-92980000D02*
X110315100Y-93403300D01*
D10*
X105831000Y-92776600D02*
X106034000Y-92980000D01*
X106034000Y-92980000D02*
X107050000Y-92980000D01*
X107050000Y-92980000D02*
X108070000Y-92980000D01*
D39*
X105831000Y-92776600D02*
X105627600Y-92573200D01*
X108670000Y-103930000D02*
X108723900Y-103983900D01*
D10*
X108070000Y-92980000D02*
X108840000Y-92210000D01*
D39*
X108070000Y-92980000D02*
X109891800Y-92980000D01*
%TO.N,Net-(J2-Pin_2)*%
X122720000Y-98170000D02*
X119950000Y-98170000D01*
%TO.N,Net-(J2-Pin_4)*%
X122720000Y-93090000D02*
X119950000Y-93090000D01*
%TO.N,Net-(J2-Pin_1)*%
X122720000Y-100710000D02*
X119970000Y-100710000D01*
X119970000Y-100710000D02*
X119960000Y-100720000D01*
%TO.N,Net-(J2-Pin_3)*%
X119970000Y-95630000D02*
X119960000Y-95640000D01*
X122720000Y-95630000D02*
X119970000Y-95630000D01*
%TO.N,Net-(J2-Pin_5)*%
X122700000Y-90530000D02*
X122720000Y-90550000D01*
X122640000Y-90470200D02*
X122720000Y-90550000D01*
X120000000Y-90530000D02*
X122700000Y-90530000D01*
%TO.N,/REF*%
X100980000Y-81210000D02*
X101919000Y-82149200D01*
X119367000Y-81876700D02*
X120421000Y-82931000D01*
X82934800Y-83515200D02*
X82934800Y-81345200D01*
X119367100Y-81876700D02*
X120421400Y-82931000D01*
X103541600Y-90043000D02*
X103628000Y-89957000D01*
X101919200Y-90128200D02*
X103050000Y-90128200D01*
X103628000Y-80822400D02*
X118313000Y-80822400D01*
X82934800Y-81345200D02*
X83070000Y-81210000D01*
X103628000Y-86371700D02*
X103627600Y-86372100D01*
X103628000Y-86371700D02*
X103628000Y-80822400D01*
X83070000Y-81210000D02*
X100980000Y-81210000D01*
X103339000Y-89839400D02*
X103541600Y-90042000D01*
X103541600Y-90042000D02*
X103541600Y-90043000D01*
X103339000Y-89839400D02*
X103628000Y-89550600D01*
X101919000Y-82149200D02*
X101919000Y-90128200D01*
X101919000Y-90128200D02*
X101919200Y-90128200D01*
X118313000Y-80822400D02*
X119367000Y-81876700D01*
X103456000Y-90128200D02*
X103541600Y-90043000D01*
X103628000Y-89550600D02*
X103628000Y-86371700D01*
X103627600Y-86372100D02*
X103627600Y-89550600D01*
X119367000Y-81876700D02*
X119367100Y-81876700D01*
X103050000Y-90128200D02*
X103339000Y-89839400D01*
%TO.N,/RL3_SNR1*%
X94750000Y-87520000D02*
X96469800Y-89239800D01*
X96469800Y-89239800D02*
X96474400Y-89239800D01*
X87934800Y-83515200D02*
X91939600Y-87520000D01*
X91939600Y-87520000D02*
X94750000Y-87520000D01*
%TO.N,/RL2_SNR1*%
X92934800Y-83515200D02*
X98580000Y-89160400D01*
X98580000Y-89160400D02*
X98580000Y-89220000D01*
%TO.N,/RL1_SNR1*%
X106840000Y-98900000D02*
X106830000Y-98830000D01*
X97934800Y-83515200D02*
X100630000Y-86210400D01*
X100630000Y-88010000D02*
X100680000Y-93690000D01*
X100630000Y-86210400D02*
X100630000Y-88130000D01*
X106830000Y-96850000D02*
X106840000Y-98900000D01*
X100680000Y-93690000D02*
X100630000Y-93610000D01*
X100630000Y-88130000D02*
X100630000Y-88010000D01*
%TO.N,/RL2_SNR2*%
X112658800Y-89200000D02*
X112658800Y-88490000D01*
X110421000Y-82931000D02*
X110421000Y-84946800D01*
X111948800Y-88490000D02*
X112658800Y-88490000D01*
X110421000Y-84946800D02*
X110421400Y-84946400D01*
X111948800Y-88490000D02*
X112659000Y-89200000D01*
X110421400Y-84946400D02*
X110421400Y-82931000D01*
X110421000Y-86962600D02*
X111948800Y-88490000D01*
X110421000Y-84946800D02*
X110421000Y-86962600D01*
%TO.N,/RL1_SNR2*%
X105421000Y-82931000D02*
X105421000Y-83661200D01*
X105430000Y-84500000D02*
X105530000Y-84500000D01*
X102930000Y-103280000D02*
X101738200Y-103280000D01*
X105421000Y-83661200D02*
X105421000Y-84391400D01*
X105421000Y-84391400D02*
X105430000Y-84400000D01*
X105421400Y-83660800D02*
X105421400Y-82931000D01*
X105421000Y-83661200D02*
X105421400Y-83660800D01*
X105430000Y-84400000D02*
X105430000Y-84500000D01*
X105530000Y-84500000D02*
X105430000Y-84400000D01*
%TO.N,/RL3_SNR2*%
X115421000Y-82931000D02*
X115421000Y-85623000D01*
X115421000Y-85623000D02*
X115421000Y-88538600D01*
X115421000Y-88538600D02*
X114760000Y-89200000D01*
X115421400Y-85622600D02*
X115421400Y-82931000D01*
X115421000Y-85623000D02*
X115421400Y-85622600D01*
%TO.N,Net-(U2-ADJ)*%
X85935600Y-102781900D02*
X85935600Y-102204000D01*
X87280000Y-100860000D02*
X86510000Y-100860000D01*
X87450000Y-100860000D02*
X87280000Y-100860000D01*
X89670000Y-99450000D02*
X89670000Y-98370000D01*
X85935600Y-102204000D02*
X87280000Y-100860000D01*
X85935600Y-102782000D02*
X85935600Y-102781900D01*
X87280000Y-100860000D02*
X87450000Y-100860000D01*
X86420000Y-100850000D02*
X86490000Y-100860000D01*
X86490000Y-100860000D02*
X86500000Y-100860000D01*
X86510000Y-100860000D02*
X86420000Y-100850000D01*
%TO.N,Net-(R10-Pad1)*%
X101919200Y-92478200D02*
X103533000Y-92478200D01*
X104832000Y-91208900D02*
X104832000Y-91049200D01*
X103627800Y-92573000D02*
X103628000Y-92573200D01*
X104832000Y-91368600D02*
X104832000Y-91208900D01*
X103628000Y-92573200D02*
X104832000Y-91368600D01*
X104832000Y-91208900D02*
X104832200Y-91208700D01*
X104832200Y-91208700D02*
X104832200Y-91049200D01*
X101919000Y-92478200D02*
X101919200Y-92478200D01*
X103627600Y-92573200D02*
X103627800Y-92573000D01*
X103533000Y-92478200D02*
X103627800Y-92573000D01*
D40*
%TO.N,/CS*%
X114600000Y-98170000D02*
X113485000Y-97055000D01*
X105170000Y-97476000D02*
X103916000Y-98730000D01*
X113485000Y-97055000D02*
X112385000Y-97055000D01*
X105760000Y-94160000D02*
X105170000Y-94750000D01*
X109490000Y-94160000D02*
X105760000Y-94160000D01*
X103916000Y-98730000D02*
X102930000Y-98730000D01*
X102930000Y-98730000D02*
X99935000Y-98730000D01*
X117600000Y-98170000D02*
X114600000Y-98170000D01*
X105170000Y-94750000D02*
X105170000Y-97476000D01*
X99935000Y-98730000D02*
X99550000Y-99115000D01*
X112385000Y-97055000D02*
X109490000Y-94160000D01*
%TO.N,/DOUT{slash}RDY*%
X110842700Y-96755000D02*
X111009300Y-96588400D01*
X108615000Y-96725000D02*
X108620000Y-96730000D01*
X117650000Y-90530000D02*
X116800000Y-90530000D01*
X116562200Y-90535100D02*
X116794900Y-90535100D01*
X108645000Y-96755000D02*
X110842700Y-96755000D01*
X108645000Y-96755000D02*
X108670000Y-96780000D01*
X108620000Y-95080000D02*
X108620000Y-96730000D01*
X116794900Y-90535100D02*
X116800000Y-90530000D01*
X108645000Y-96755000D02*
X108670000Y-96780000D01*
X108620000Y-96730000D02*
X108645000Y-96755000D01*
X108620000Y-96730000D02*
X108645000Y-96755000D01*
D39*
%TO.N,/DIN*%
X111490900Y-90360000D02*
X115422900Y-90360000D01*
X95994700Y-90220000D02*
X95000000Y-91214700D01*
X117600000Y-92265000D02*
X117600000Y-93090000D01*
X105267500Y-88340000D02*
X105220000Y-88300000D01*
X115422900Y-90360000D02*
X117327900Y-92265000D01*
X97198900Y-96780000D02*
X102930000Y-96780000D01*
X117327900Y-92265000D02*
X117600000Y-92265000D01*
X105220000Y-88300000D02*
X105347500Y-88340000D01*
X95000000Y-94581100D02*
X97198900Y-96780000D01*
X105347500Y-88340000D02*
X109470900Y-88340000D01*
X99930000Y-90220000D02*
X95994700Y-90220000D01*
X99954332Y-90244332D02*
X99930000Y-90220000D01*
X95000000Y-91214700D02*
X95000000Y-94581100D01*
X105307500Y-88340000D02*
X105267500Y-88340000D01*
X109470900Y-88340000D02*
X111490900Y-90360000D01*
%TO.N,/SCLK*%
X102930000Y-97430000D02*
X104398400Y-97430000D01*
X117610000Y-95640000D02*
X116785000Y-95640000D01*
X115540300Y-95979900D02*
X116445100Y-95979900D01*
X104398400Y-97430000D02*
X104431200Y-97397200D01*
X116445100Y-95979900D02*
X116785000Y-95640000D01*
%TO.N,/SYNC*%
X108670000Y-97430000D02*
X113330000Y-97430000D01*
X116620000Y-100720000D02*
X117610000Y-100720000D01*
X113330000Y-97430000D02*
X116620000Y-100720000D01*
D38*
%TO.N,GNDA*%
X96702600Y-92764800D02*
X96664600Y-92764800D01*
X107050000Y-90998400D02*
X107050000Y-91303200D01*
X107024600Y-90278200D02*
X107050000Y-90303600D01*
X106999000Y-91049200D02*
X107050000Y-90998400D01*
X107050000Y-90303600D02*
X107050000Y-90998400D01*
X107050000Y-91303200D02*
X107050000Y-90998400D01*
X112855400Y-92749400D02*
X113689000Y-92749400D01*
X107050000Y-92157400D02*
X107050000Y-92116000D01*
X105856000Y-91049200D02*
X105856200Y-91049200D01*
X97523000Y-92764800D02*
X97528200Y-92770000D01*
X96520000Y-103718000D02*
X96838000Y-103400000D01*
X107050000Y-92116000D02*
X107050000Y-91303200D01*
X96838000Y-103400000D02*
X99088000Y-103400000D01*
X114583000Y-92731400D02*
X114582600Y-92731400D01*
X107024600Y-90008200D02*
X107024600Y-90278200D01*
X113689000Y-92749400D02*
X113707000Y-92731400D01*
X105856200Y-91049200D02*
X106999000Y-91049200D01*
X114582600Y-92731400D02*
X113707000Y-92731400D01*
X96702600Y-92764800D02*
X97523000Y-92764800D01*
X98391600Y-92770000D02*
X97528200Y-92770000D01*
X112855000Y-92749400D02*
X112855400Y-92749400D01*
%TD*%
%TA.AperFunction,Conductor*%
%TO.N,GND*%
G36*
X90336703Y-93296179D02*
G01*
X90407545Y-93304161D01*
X90412278Y-93304695D01*
X90476692Y-93331762D01*
X90514575Y-93384582D01*
X90554202Y-93490828D01*
X90554204Y-93490831D01*
X90579225Y-93524255D01*
X90603643Y-93589718D01*
X90588792Y-93657991D01*
X90579226Y-93672876D01*
X90554649Y-93705706D01*
X90554645Y-93705713D01*
X90504403Y-93840420D01*
X90504401Y-93840427D01*
X90498000Y-93899955D01*
X90498000Y-94459800D01*
X91886000Y-94459800D01*
X91953039Y-94479485D01*
X91998794Y-94532289D01*
X92010000Y-94583800D01*
X92010000Y-95676960D01*
X91990315Y-95743999D01*
X91982950Y-95754269D01*
X91980186Y-95757734D01*
X91884211Y-95910476D01*
X91824631Y-96080745D01*
X91824630Y-96080750D01*
X91804435Y-96259996D01*
X91804435Y-96260003D01*
X91824630Y-96439249D01*
X91824631Y-96439254D01*
X91884211Y-96609523D01*
X91919177Y-96665170D01*
X91980184Y-96762262D01*
X92107738Y-96889816D01*
X92158992Y-96922021D01*
X92258991Y-96984855D01*
X92260478Y-96985789D01*
X92399700Y-97034505D01*
X92430745Y-97045368D01*
X92430750Y-97045369D01*
X92609996Y-97065565D01*
X92610000Y-97065565D01*
X92610004Y-97065565D01*
X92789249Y-97045369D01*
X92789252Y-97045368D01*
X92789255Y-97045368D01*
X92869017Y-97017457D01*
X92909972Y-97010500D01*
X93397770Y-97010500D01*
X93464809Y-97030185D01*
X93485451Y-97046819D01*
X94496179Y-98057547D01*
X94529664Y-98118870D01*
X94524680Y-98188562D01*
X94482808Y-98244495D01*
X94417344Y-98268912D01*
X94395245Y-98268518D01*
X94391589Y-98268125D01*
X94357873Y-98264500D01*
X94357867Y-98264500D01*
X93102129Y-98264500D01*
X93102123Y-98264501D01*
X93042516Y-98270908D01*
X92899359Y-98324303D01*
X92898774Y-98322734D01*
X92840624Y-98335383D01*
X92800794Y-98323686D01*
X92800399Y-98324746D01*
X92657379Y-98271403D01*
X92657372Y-98271401D01*
X92597844Y-98265000D01*
X92220000Y-98265000D01*
X92220000Y-100735000D01*
X92597828Y-100735000D01*
X92597844Y-100734999D01*
X92657372Y-100728598D01*
X92657376Y-100728597D01*
X92800398Y-100675253D01*
X92801076Y-100677070D01*
X92858306Y-100664615D01*
X92899032Y-100676572D01*
X92899359Y-100675697D01*
X93042517Y-100729091D01*
X93042516Y-100729091D01*
X93048749Y-100729761D01*
X93102127Y-100735500D01*
X94357872Y-100735499D01*
X94417483Y-100729091D01*
X94552331Y-100678796D01*
X94667546Y-100592546D01*
X94753796Y-100477331D01*
X94804091Y-100342483D01*
X94810500Y-100282873D01*
X94810500Y-100282861D01*
X94810658Y-100279920D01*
X94833905Y-100214031D01*
X94889084Y-100171170D01*
X94953733Y-100165387D01*
X94953824Y-100164589D01*
X94957737Y-100165029D01*
X94958676Y-100164946D01*
X94960554Y-100165347D01*
X95139996Y-100185565D01*
X95140000Y-100185565D01*
X95140004Y-100185565D01*
X95319249Y-100165369D01*
X95319252Y-100165368D01*
X95319255Y-100165368D01*
X95489522Y-100105789D01*
X95642262Y-100009816D01*
X95769816Y-99882262D01*
X95865789Y-99729522D01*
X95878987Y-99691803D01*
X95919708Y-99635028D01*
X95984661Y-99609280D01*
X96053223Y-99622736D01*
X96083710Y-99645077D01*
X96902049Y-100463416D01*
X96963263Y-100524630D01*
X97006585Y-100567952D01*
X97129498Y-100650080D01*
X97129511Y-100650087D01*
X97179384Y-100670745D01*
X97179385Y-100670745D01*
X97266088Y-100706659D01*
X97382241Y-100729763D01*
X97401468Y-100733587D01*
X97411081Y-100735500D01*
X97411082Y-100735500D01*
X97411083Y-100735500D01*
X97558918Y-100735500D01*
X99056894Y-100735500D01*
X99100227Y-100743318D01*
X99142517Y-100759091D01*
X99202127Y-100765500D01*
X99433457Y-100765499D01*
X99457650Y-100767881D01*
X99472350Y-100770806D01*
X99521081Y-100780500D01*
X99521082Y-100780500D01*
X99668917Y-100780500D01*
X101570793Y-100780500D01*
X101637832Y-100800185D01*
X101683587Y-100852989D01*
X101693732Y-100888315D01*
X101700508Y-100939785D01*
X101707596Y-100956898D01*
X101715062Y-101026368D01*
X101707597Y-101051794D01*
X101700020Y-101070087D01*
X101684500Y-101187978D01*
X101684500Y-101472022D01*
X101700019Y-101589907D01*
X101700022Y-101589918D01*
X101707325Y-101607550D01*
X101714792Y-101677020D01*
X101707325Y-101702450D01*
X101700022Y-101720081D01*
X101700021Y-101720085D01*
X101695415Y-101755068D01*
X101667147Y-101818964D01*
X101608822Y-101857434D01*
X101538957Y-101858264D01*
X101531522Y-101855922D01*
X101499257Y-101844632D01*
X101499249Y-101844630D01*
X101320004Y-101824435D01*
X101319996Y-101824435D01*
X101140750Y-101844630D01*
X101140745Y-101844631D01*
X100970476Y-101904211D01*
X100817737Y-102000184D01*
X100690184Y-102127737D01*
X100594211Y-102280476D01*
X100534631Y-102450745D01*
X100534630Y-102450750D01*
X100514435Y-102629996D01*
X100514435Y-102630003D01*
X100534630Y-102809249D01*
X100534631Y-102809254D01*
X100594211Y-102979523D01*
X100690184Y-103132262D01*
X100817738Y-103259816D01*
X100888378Y-103304202D01*
X100934669Y-103356537D01*
X100945626Y-103395311D01*
X100952830Y-103459249D01*
X101012410Y-103629521D01*
X101105381Y-103777483D01*
X101108384Y-103782262D01*
X101235938Y-103909816D01*
X101388678Y-104005789D01*
X101558945Y-104065368D01*
X101589107Y-104068766D01*
X101653519Y-104095830D01*
X101693075Y-104153424D01*
X101698163Y-104175801D01*
X101700020Y-104189913D01*
X101700021Y-104189915D01*
X101760779Y-104336599D01*
X101760780Y-104336601D01*
X101760781Y-104336602D01*
X101857436Y-104462564D01*
X101983398Y-104559219D01*
X102130085Y-104619979D01*
X102247979Y-104635500D01*
X102699547Y-104635499D01*
X102766586Y-104655183D01*
X102787228Y-104671818D01*
X104131016Y-106015606D01*
X104131045Y-106015637D01*
X104221263Y-106105855D01*
X104221268Y-106105859D01*
X104238536Y-106117397D01*
X104283342Y-106171008D01*
X104292051Y-106240333D01*
X104261897Y-106303361D01*
X104202454Y-106340081D01*
X104169647Y-106344500D01*
X81513751Y-106344500D01*
X81506264Y-106344274D01*
X81216205Y-106326728D01*
X81201340Y-106324923D01*
X80919201Y-106273219D01*
X80904663Y-106269635D01*
X80630832Y-106184306D01*
X80616831Y-106178997D01*
X80355263Y-106061275D01*
X80342004Y-106054316D01*
X80096537Y-105905926D01*
X80084217Y-105897422D01*
X80045142Y-105866809D01*
X79858426Y-105720526D01*
X79847218Y-105710596D01*
X79644403Y-105507781D01*
X79634473Y-105496573D01*
X79475330Y-105293441D01*
X79449481Y-105228529D01*
X79462830Y-105159946D01*
X79511138Y-105109467D01*
X79579068Y-105093119D01*
X79616275Y-105100786D01*
X79650623Y-105113597D01*
X79650627Y-105113598D01*
X79710155Y-105119999D01*
X79710172Y-105120000D01*
X80228000Y-105120000D01*
X80228000Y-102300000D01*
X79710155Y-102300000D01*
X79650627Y-102306401D01*
X79650620Y-102306403D01*
X79515913Y-102356645D01*
X79515906Y-102356649D01*
X79400812Y-102442809D01*
X79400809Y-102442812D01*
X79314649Y-102557906D01*
X79314645Y-102557913D01*
X79264403Y-102692620D01*
X79264401Y-102692627D01*
X79257789Y-102754126D01*
X79231051Y-102818677D01*
X79173658Y-102858525D01*
X79103833Y-102861018D01*
X79043744Y-102825365D01*
X79012470Y-102762885D01*
X79010500Y-102740870D01*
X79010500Y-100893544D01*
X79030185Y-100826505D01*
X79082989Y-100780750D01*
X79152147Y-100770806D01*
X79215703Y-100799831D01*
X79253477Y-100858609D01*
X79255178Y-100865034D01*
X79255802Y-100867678D01*
X79306045Y-101002386D01*
X79306049Y-101002393D01*
X79392209Y-101117487D01*
X79392212Y-101117490D01*
X79507306Y-101203650D01*
X79507313Y-101203654D01*
X79642020Y-101253896D01*
X79642027Y-101253898D01*
X79701555Y-101260299D01*
X79701572Y-101260300D01*
X80234400Y-101260300D01*
X80234400Y-100054300D01*
X80254085Y-99987261D01*
X80306889Y-99941506D01*
X80358400Y-99930300D01*
X80610400Y-99930300D01*
X80677439Y-99949985D01*
X80723194Y-100002789D01*
X80734400Y-100054300D01*
X80734400Y-101260300D01*
X81267228Y-101260300D01*
X81267239Y-101260299D01*
X81320742Y-101254546D01*
X81389502Y-101266950D01*
X81440640Y-101314559D01*
X81458000Y-101377835D01*
X81458000Y-101599844D01*
X81464401Y-101659372D01*
X81464403Y-101659379D01*
X81514645Y-101794086D01*
X81514649Y-101794093D01*
X81600809Y-101909187D01*
X81600812Y-101909190D01*
X81715906Y-101995350D01*
X81715913Y-101995354D01*
X81850620Y-102045596D01*
X81850627Y-102045598D01*
X81910155Y-102051999D01*
X81910172Y-102052000D01*
X82370836Y-102052000D01*
X82437875Y-102071685D01*
X82483630Y-102124489D01*
X82493574Y-102193647D01*
X82464549Y-102257203D01*
X82405771Y-102294977D01*
X82384089Y-102299290D01*
X82322516Y-102305908D01*
X82187671Y-102356202D01*
X82187664Y-102356206D01*
X82072455Y-102442452D01*
X82072452Y-102442455D01*
X81986206Y-102557664D01*
X81986202Y-102557671D01*
X81935908Y-102692517D01*
X81934416Y-102698833D01*
X81899840Y-102759548D01*
X81837929Y-102791932D01*
X81768337Y-102785703D01*
X81713161Y-102742839D01*
X81693061Y-102698819D01*
X81691596Y-102692620D01*
X81641354Y-102557913D01*
X81641350Y-102557906D01*
X81555190Y-102442812D01*
X81555187Y-102442809D01*
X81440093Y-102356649D01*
X81440086Y-102356645D01*
X81305379Y-102306403D01*
X81305372Y-102306401D01*
X81245844Y-102300000D01*
X80728000Y-102300000D01*
X80728000Y-105120000D01*
X81245828Y-105120000D01*
X81245844Y-105119999D01*
X81305372Y-105113598D01*
X81305379Y-105113596D01*
X81440086Y-105063354D01*
X81440093Y-105063350D01*
X81555187Y-104977190D01*
X81555190Y-104977187D01*
X81641350Y-104862093D01*
X81641354Y-104862086D01*
X81691596Y-104727379D01*
X81693061Y-104721181D01*
X81727629Y-104660462D01*
X81789537Y-104628071D01*
X81859129Y-104634292D01*
X81914311Y-104677150D01*
X81934416Y-104721167D01*
X81935908Y-104727482D01*
X81986202Y-104862328D01*
X81986206Y-104862335D01*
X82072452Y-104977544D01*
X82072455Y-104977547D01*
X82187664Y-105063793D01*
X82187671Y-105063797D01*
X82322517Y-105114091D01*
X82322516Y-105114091D01*
X82329444Y-105114835D01*
X82382127Y-105120500D01*
X83447769Y-105120499D01*
X83514808Y-105140183D01*
X83535450Y-105156818D01*
X83781586Y-105402954D01*
X83804720Y-105418410D01*
X83839425Y-105441599D01*
X83904505Y-105485084D01*
X83904507Y-105485085D01*
X83904511Y-105485087D01*
X84041082Y-105541656D01*
X84041087Y-105541658D01*
X84041091Y-105541658D01*
X84041092Y-105541659D01*
X84186079Y-105570500D01*
X84186082Y-105570500D01*
X85927520Y-105570500D01*
X86031199Y-105549876D01*
X86072513Y-105541658D01*
X86209095Y-105485084D01*
X86242898Y-105462496D01*
X86309575Y-105441619D01*
X86311789Y-105441599D01*
X86732771Y-105441599D01*
X86732772Y-105441599D01*
X86792383Y-105435191D01*
X86927231Y-105384896D01*
X87042446Y-105298646D01*
X87128696Y-105183431D01*
X87178991Y-105048583D01*
X87185400Y-104988973D01*
X87185400Y-104988944D01*
X89055100Y-104988944D01*
X89061501Y-105048472D01*
X89061503Y-105048479D01*
X89111745Y-105183186D01*
X89111749Y-105183193D01*
X89197909Y-105298287D01*
X89197912Y-105298290D01*
X89313006Y-105384450D01*
X89313013Y-105384454D01*
X89447720Y-105434696D01*
X89447727Y-105434698D01*
X89507255Y-105441099D01*
X89507272Y-105441100D01*
X90101350Y-105441100D01*
X90507450Y-105441100D01*
X91101528Y-105441100D01*
X91101544Y-105441099D01*
X91161072Y-105434698D01*
X91161079Y-105434696D01*
X91295786Y-105384454D01*
X91295793Y-105384450D01*
X91410887Y-105298290D01*
X91410890Y-105298287D01*
X91497050Y-105183193D01*
X91497054Y-105183186D01*
X91547296Y-105048479D01*
X91547298Y-105048472D01*
X91553699Y-104988944D01*
X91553700Y-104988927D01*
X91553700Y-104941100D01*
X90507450Y-104941100D01*
X90507450Y-105441100D01*
X90101350Y-105441100D01*
X90101350Y-104941100D01*
X89055100Y-104941100D01*
X89055100Y-104988944D01*
X87185400Y-104988944D01*
X87185399Y-104487128D01*
X87178991Y-104427517D01*
X87178989Y-104427513D01*
X87178532Y-104423255D01*
X87178532Y-104396745D01*
X87178989Y-104392486D01*
X87178991Y-104392483D01*
X87185400Y-104332873D01*
X87185400Y-104332827D01*
X89055100Y-104332827D01*
X89055101Y-104332846D01*
X89061971Y-104396745D01*
X89061971Y-104423255D01*
X89055101Y-104487153D01*
X89055100Y-104487172D01*
X89055100Y-104535000D01*
X90101350Y-104535000D01*
X90507450Y-104535000D01*
X91553700Y-104535000D01*
X91553700Y-104487172D01*
X91553699Y-104487158D01*
X91546828Y-104423257D01*
X91546828Y-104396743D01*
X91553699Y-104332841D01*
X91553700Y-104332827D01*
X91553700Y-104285000D01*
X90507450Y-104285000D01*
X90507450Y-104535000D01*
X90101350Y-104535000D01*
X90101350Y-104285000D01*
X89055100Y-104285000D01*
X89055100Y-104332827D01*
X87185400Y-104332827D01*
X87185399Y-103837128D01*
X87178991Y-103777517D01*
X87178989Y-103777513D01*
X87178532Y-103773255D01*
X87178532Y-103746745D01*
X87178989Y-103742486D01*
X87178991Y-103742483D01*
X87184254Y-103693530D01*
X89055100Y-103693530D01*
X89061396Y-103752096D01*
X89061396Y-103778604D01*
X89055100Y-103837169D01*
X89055100Y-103885000D01*
X90099050Y-103885000D01*
X90509750Y-103885000D01*
X91553700Y-103885000D01*
X91553700Y-103837172D01*
X91553699Y-103837160D01*
X91547403Y-103778608D01*
X91547403Y-103752092D01*
X91553699Y-103693539D01*
X91553700Y-103693527D01*
X91553700Y-103645700D01*
X90509750Y-103645700D01*
X90509750Y-103885000D01*
X90099050Y-103885000D01*
X90099050Y-103645700D01*
X89055100Y-103645700D01*
X89055100Y-103693530D01*
X87184254Y-103693530D01*
X87185400Y-103682873D01*
X87185399Y-103187128D01*
X87178991Y-103127517D01*
X87178989Y-103127513D01*
X87178532Y-103123255D01*
X87178532Y-103096745D01*
X87178989Y-103092486D01*
X87178991Y-103092483D01*
X87185400Y-103032873D01*
X87185400Y-103032827D01*
X89055100Y-103032827D01*
X89055101Y-103032846D01*
X89061971Y-103096745D01*
X89061971Y-103123255D01*
X89055101Y-103187153D01*
X89055100Y-103187172D01*
X89055100Y-103235000D01*
X90099050Y-103235000D01*
X90509750Y-103235000D01*
X91553700Y-103235000D01*
X91553700Y-103187172D01*
X91553699Y-103187158D01*
X91546828Y-103123257D01*
X91546828Y-103096743D01*
X91553699Y-103032841D01*
X91553700Y-103032827D01*
X91553700Y-102985000D01*
X90509750Y-102985000D01*
X90509750Y-103235000D01*
X90099050Y-103235000D01*
X90099050Y-102985000D01*
X89055100Y-102985000D01*
X89055100Y-103032827D01*
X87185400Y-103032827D01*
X87185400Y-102820135D01*
X92629500Y-102820135D01*
X92629500Y-104615870D01*
X92629501Y-104615876D01*
X92635908Y-104675483D01*
X92686202Y-104810328D01*
X92686206Y-104810335D01*
X92772452Y-104925544D01*
X92772455Y-104925547D01*
X92887664Y-105011793D01*
X92887671Y-105011797D01*
X93022517Y-105062091D01*
X93022516Y-105062091D01*
X93029444Y-105062835D01*
X93082127Y-105068500D01*
X94877872Y-105068499D01*
X94937483Y-105062091D01*
X95072331Y-105011796D01*
X95175690Y-104934421D01*
X95241152Y-104910004D01*
X95309425Y-104924855D01*
X95324303Y-104934416D01*
X95404565Y-104994500D01*
X95427668Y-105011795D01*
X95427671Y-105011797D01*
X95562517Y-105062091D01*
X95562516Y-105062091D01*
X95569444Y-105062835D01*
X95622127Y-105068500D01*
X97417872Y-105068499D01*
X97477483Y-105062091D01*
X97612331Y-105011796D01*
X97727546Y-104925546D01*
X97813796Y-104810331D01*
X97864091Y-104675483D01*
X97870500Y-104615873D01*
X97870500Y-104581844D01*
X98288000Y-104581844D01*
X98294401Y-104641372D01*
X98294403Y-104641379D01*
X98344645Y-104776086D01*
X98344649Y-104776093D01*
X98430809Y-104891187D01*
X98430812Y-104891190D01*
X98545906Y-104977350D01*
X98545913Y-104977354D01*
X98680620Y-105027596D01*
X98680627Y-105027598D01*
X98740155Y-105033999D01*
X98740172Y-105034000D01*
X98838000Y-105034000D01*
X99338000Y-105034000D01*
X99435828Y-105034000D01*
X99435844Y-105033999D01*
X99495372Y-105027598D01*
X99495379Y-105027596D01*
X99630086Y-104977354D01*
X99630093Y-104977350D01*
X99745187Y-104891190D01*
X99745190Y-104891187D01*
X99831350Y-104776093D01*
X99831354Y-104776086D01*
X99881596Y-104641379D01*
X99881598Y-104641372D01*
X99887999Y-104581844D01*
X99888000Y-104581827D01*
X99888000Y-104514000D01*
X99338000Y-104514000D01*
X99338000Y-105034000D01*
X98838000Y-105034000D01*
X98838000Y-104514000D01*
X98288000Y-104514000D01*
X98288000Y-104581844D01*
X97870500Y-104581844D01*
X97870500Y-104274500D01*
X97890185Y-104207461D01*
X97942989Y-104161706D01*
X97994500Y-104150500D01*
X98621705Y-104150500D01*
X98665039Y-104158319D01*
X98680508Y-104164088D01*
X98680511Y-104164089D01*
X98680517Y-104164091D01*
X98740127Y-104170500D01*
X99435872Y-104170499D01*
X99495483Y-104164091D01*
X99630331Y-104113796D01*
X99730601Y-104038733D01*
X99796065Y-104014316D01*
X99804912Y-104014000D01*
X99888000Y-104014000D01*
X99888000Y-103946172D01*
X99887999Y-103946155D01*
X99881598Y-103886627D01*
X99877654Y-103876053D01*
X99872667Y-103806361D01*
X99877651Y-103789385D01*
X99882091Y-103777483D01*
X99888500Y-103717873D01*
X99888499Y-103082128D01*
X99882091Y-103022517D01*
X99881184Y-103020086D01*
X99831797Y-102887671D01*
X99831793Y-102887664D01*
X99745547Y-102772455D01*
X99745544Y-102772452D01*
X99630335Y-102686206D01*
X99630328Y-102686202D01*
X99495486Y-102635910D01*
X99495485Y-102635909D01*
X99495483Y-102635909D01*
X99435873Y-102629500D01*
X99435863Y-102629500D01*
X98740129Y-102629500D01*
X98740123Y-102629501D01*
X98680514Y-102635909D01*
X98665040Y-102641681D01*
X98621706Y-102649500D01*
X97893705Y-102649500D01*
X97826666Y-102629815D01*
X97794440Y-102599813D01*
X97727546Y-102510454D01*
X97697522Y-102487978D01*
X97612335Y-102424206D01*
X97612328Y-102424202D01*
X97477482Y-102373908D01*
X97477483Y-102373908D01*
X97417883Y-102367501D01*
X97417881Y-102367500D01*
X97417873Y-102367500D01*
X97417864Y-102367500D01*
X95622129Y-102367500D01*
X95622123Y-102367501D01*
X95562516Y-102373908D01*
X95427671Y-102424202D01*
X95427669Y-102424203D01*
X95324311Y-102501578D01*
X95258847Y-102525995D01*
X95190574Y-102511144D01*
X95175689Y-102501578D01*
X95072330Y-102424203D01*
X95072328Y-102424202D01*
X94937482Y-102373908D01*
X94937483Y-102373908D01*
X94877883Y-102367501D01*
X94877881Y-102367500D01*
X94877873Y-102367500D01*
X94877864Y-102367500D01*
X93082129Y-102367500D01*
X93082123Y-102367501D01*
X93022516Y-102373908D01*
X92887671Y-102424202D01*
X92887664Y-102424206D01*
X92772455Y-102510452D01*
X92772452Y-102510455D01*
X92686206Y-102625664D01*
X92686202Y-102625671D01*
X92635908Y-102760517D01*
X92629501Y-102820116D01*
X92629500Y-102820135D01*
X87185400Y-102820135D01*
X87185399Y-102531055D01*
X89055100Y-102531055D01*
X89055100Y-102578900D01*
X90101350Y-102578900D01*
X90507450Y-102578900D01*
X91553700Y-102578900D01*
X91553700Y-102531072D01*
X91553699Y-102531055D01*
X91547298Y-102471527D01*
X91547296Y-102471520D01*
X91497054Y-102336813D01*
X91497050Y-102336806D01*
X91410890Y-102221712D01*
X91410887Y-102221709D01*
X91295793Y-102135549D01*
X91295786Y-102135545D01*
X91161079Y-102085303D01*
X91161072Y-102085301D01*
X91101544Y-102078900D01*
X90507450Y-102078900D01*
X90507450Y-102578900D01*
X90101350Y-102578900D01*
X90101350Y-102078900D01*
X89565605Y-102078900D01*
X89498566Y-102059215D01*
X89473927Y-102030781D01*
X89458208Y-102065203D01*
X89407828Y-102100182D01*
X89313013Y-102135545D01*
X89313006Y-102135549D01*
X89197912Y-102221709D01*
X89197909Y-102221712D01*
X89111749Y-102336806D01*
X89111745Y-102336813D01*
X89061503Y-102471520D01*
X89061501Y-102471527D01*
X89055100Y-102531055D01*
X87185399Y-102531055D01*
X87185399Y-102531028D01*
X87178991Y-102471417D01*
X87161382Y-102424206D01*
X87128697Y-102336571D01*
X87128693Y-102336564D01*
X87042447Y-102221355D01*
X87025141Y-102208400D01*
X87020079Y-102204610D01*
X86978210Y-102148677D01*
X86973226Y-102078986D01*
X87006710Y-102017666D01*
X87127609Y-101896802D01*
X87188935Y-101863329D01*
X87215275Y-101860499D01*
X87922871Y-101860499D01*
X87922872Y-101860499D01*
X87982483Y-101854091D01*
X88117331Y-101803796D01*
X88126102Y-101797229D01*
X88191562Y-101772810D01*
X88259836Y-101787657D01*
X88274729Y-101797228D01*
X88282907Y-101803350D01*
X88417623Y-101853597D01*
X88417627Y-101853598D01*
X88477155Y-101859999D01*
X88477172Y-101860000D01*
X88700000Y-101860000D01*
X89200000Y-101860000D01*
X89364495Y-101860000D01*
X89431534Y-101879685D01*
X89456172Y-101908118D01*
X89471892Y-101873697D01*
X89522272Y-101838718D01*
X89617086Y-101803354D01*
X89617093Y-101803350D01*
X89732187Y-101717190D01*
X89732190Y-101717187D01*
X89818350Y-101602093D01*
X89818354Y-101602086D01*
X89868596Y-101467379D01*
X89868598Y-101467372D01*
X89874999Y-101407844D01*
X89875000Y-101407827D01*
X89875000Y-101110000D01*
X89200000Y-101110000D01*
X89200000Y-101860000D01*
X88700000Y-101860000D01*
X88700000Y-100734000D01*
X88719685Y-100666961D01*
X88772489Y-100621206D01*
X88824000Y-100610000D01*
X89875000Y-100610000D01*
X89875000Y-100314342D01*
X89884249Y-100282844D01*
X90890000Y-100282844D01*
X90896401Y-100342372D01*
X90896403Y-100342379D01*
X90946645Y-100477086D01*
X90946649Y-100477093D01*
X91032809Y-100592187D01*
X91032812Y-100592190D01*
X91147906Y-100678350D01*
X91147913Y-100678354D01*
X91282620Y-100728596D01*
X91282627Y-100728598D01*
X91342155Y-100734999D01*
X91342172Y-100735000D01*
X91720000Y-100735000D01*
X91720000Y-99750000D01*
X90890000Y-99750000D01*
X90890000Y-100282844D01*
X89884249Y-100282844D01*
X89894685Y-100247303D01*
X89947489Y-100201548D01*
X89958038Y-100197302D01*
X90019522Y-100175789D01*
X90172262Y-100079816D01*
X90299816Y-99952262D01*
X90395789Y-99799522D01*
X90455368Y-99629255D01*
X90455869Y-99624815D01*
X90475565Y-99450002D01*
X90475565Y-99449999D01*
X90468589Y-99388090D01*
X90468335Y-99385837D01*
X90480389Y-99317017D01*
X90517241Y-99272689D01*
X90577546Y-99227546D01*
X90663796Y-99112331D01*
X90663796Y-99112329D01*
X90666733Y-99108407D01*
X90722667Y-99066536D01*
X90792359Y-99061552D01*
X90853682Y-99095037D01*
X90887166Y-99156361D01*
X90890000Y-99182718D01*
X90890000Y-99250000D01*
X91720000Y-99250000D01*
X91720000Y-98265000D01*
X91342155Y-98265000D01*
X91282627Y-98271401D01*
X91282620Y-98271403D01*
X91147913Y-98321645D01*
X91147906Y-98321649D01*
X91032812Y-98407809D01*
X90943765Y-98526759D01*
X90887831Y-98568629D01*
X90818139Y-98573613D01*
X90756816Y-98540127D01*
X90723332Y-98478803D01*
X90720499Y-98452452D01*
X90720499Y-97822128D01*
X90714091Y-97762517D01*
X90711287Y-97755000D01*
X90663797Y-97627671D01*
X90663793Y-97627664D01*
X90577547Y-97512455D01*
X90577544Y-97512452D01*
X90462335Y-97426206D01*
X90462328Y-97426202D01*
X90327482Y-97375908D01*
X90327483Y-97375908D01*
X90267883Y-97369501D01*
X90267881Y-97369500D01*
X90267873Y-97369500D01*
X90267864Y-97369500D01*
X89072129Y-97369500D01*
X89072123Y-97369501D01*
X89052944Y-97371563D01*
X88984185Y-97359156D01*
X88933048Y-97311545D01*
X88915770Y-97243845D01*
X88937836Y-97177551D01*
X88992239Y-97133712D01*
X89085493Y-97095085D01*
X89085493Y-97095084D01*
X89085495Y-97095084D01*
X89143821Y-97056112D01*
X89143821Y-97056111D01*
X89143823Y-97056111D01*
X89207844Y-97013334D01*
X89208416Y-97012952D01*
X89742952Y-96478416D01*
X89796836Y-96397771D01*
X89825084Y-96355495D01*
X89881658Y-96218913D01*
X89895211Y-96150779D01*
X89910500Y-96073920D01*
X89910500Y-96021591D01*
X89930185Y-95954552D01*
X89975076Y-95912757D01*
X89982323Y-95908798D01*
X89982331Y-95908796D01*
X90097546Y-95822546D01*
X90183796Y-95707331D01*
X90234091Y-95572483D01*
X90239772Y-95519644D01*
X90498000Y-95519644D01*
X90504401Y-95579172D01*
X90504403Y-95579179D01*
X90554645Y-95713886D01*
X90554649Y-95713893D01*
X90640809Y-95828987D01*
X90640812Y-95828990D01*
X90755906Y-95915150D01*
X90755913Y-95915154D01*
X90890620Y-95965396D01*
X90890627Y-95965398D01*
X90950155Y-95971799D01*
X90950172Y-95971800D01*
X91510000Y-95971800D01*
X91510000Y-94959800D01*
X90498000Y-94959800D01*
X90498000Y-95519644D01*
X90239772Y-95519644D01*
X90240500Y-95512873D01*
X90240499Y-93947128D01*
X90234091Y-93887517D01*
X90230465Y-93877796D01*
X90183797Y-93752671D01*
X90183796Y-93752669D01*
X90139933Y-93694076D01*
X90121393Y-93669310D01*
X90096977Y-93603847D01*
X90111828Y-93535574D01*
X90121394Y-93520689D01*
X90133403Y-93504647D01*
X90183796Y-93437331D01*
X90206646Y-93376065D01*
X90248514Y-93320135D01*
X90313978Y-93295716D01*
X90336703Y-93296179D01*
G37*
%TD.AperFunction*%
%TA.AperFunction,Conductor*%
G36*
X123633736Y-76965726D02*
G01*
X123923796Y-76983271D01*
X123938659Y-76985076D01*
X124220798Y-77036780D01*
X124235335Y-77040363D01*
X124509172Y-77125695D01*
X124523163Y-77131000D01*
X124784743Y-77248727D01*
X124797989Y-77255680D01*
X125043465Y-77404075D01*
X125055776Y-77412573D01*
X125281573Y-77589473D01*
X125292781Y-77599403D01*
X125495596Y-77802218D01*
X125505526Y-77813426D01*
X125625481Y-77966538D01*
X125682422Y-78039217D01*
X125690928Y-78051540D01*
X125839316Y-78297004D01*
X125846275Y-78310263D01*
X125963997Y-78571831D01*
X125969306Y-78585832D01*
X126054635Y-78859663D01*
X126058219Y-78874201D01*
X126109923Y-79156340D01*
X126111728Y-79171205D01*
X126129274Y-79461263D01*
X126129500Y-79468750D01*
X126129500Y-103841249D01*
X126129274Y-103848736D01*
X126111728Y-104138794D01*
X126109923Y-104153659D01*
X126058219Y-104435798D01*
X126054635Y-104450336D01*
X125969306Y-104724167D01*
X125963997Y-104738168D01*
X125846275Y-104999736D01*
X125839316Y-105012995D01*
X125690928Y-105258459D01*
X125682422Y-105270782D01*
X125505526Y-105496573D01*
X125495596Y-105507781D01*
X125292781Y-105710596D01*
X125281573Y-105720526D01*
X125055782Y-105897422D01*
X125043459Y-105905928D01*
X124797995Y-106054316D01*
X124784736Y-106061275D01*
X124523168Y-106178997D01*
X124509167Y-106184306D01*
X124235336Y-106269635D01*
X124220798Y-106273219D01*
X123938659Y-106324923D01*
X123923794Y-106326728D01*
X123633736Y-106344274D01*
X123626249Y-106344500D01*
X117811340Y-106344500D01*
X117744301Y-106324815D01*
X117698546Y-106272011D01*
X117688602Y-106202853D01*
X117717627Y-106139297D01*
X117723659Y-106132819D01*
X117739081Y-106117397D01*
X117764216Y-106092262D01*
X117860189Y-105939522D01*
X117919768Y-105769255D01*
X117919769Y-105769249D01*
X117939965Y-105590003D01*
X117939965Y-105589996D01*
X117919769Y-105410750D01*
X117919768Y-105410745D01*
X117910567Y-105384450D01*
X117860189Y-105240478D01*
X117764216Y-105087738D01*
X117636662Y-104960184D01*
X117581533Y-104925544D01*
X117483923Y-104864211D01*
X117313654Y-104804631D01*
X117313649Y-104804630D01*
X117134404Y-104784435D01*
X117134396Y-104784435D01*
X116955150Y-104804630D01*
X116955145Y-104804631D01*
X116784876Y-104864211D01*
X116632137Y-104960184D01*
X116626695Y-104964525D01*
X116625429Y-104962937D01*
X116572818Y-104991666D01*
X116546460Y-104994500D01*
X116119452Y-104994500D01*
X116052413Y-104974815D01*
X116006658Y-104922011D01*
X115996714Y-104852853D01*
X116025739Y-104789297D01*
X116031771Y-104782819D01*
X116424595Y-104389995D01*
X120804732Y-104389995D01*
X120804732Y-104390000D01*
X120823777Y-104644154D01*
X120880161Y-104891190D01*
X120880492Y-104892637D01*
X120973607Y-105129888D01*
X121101041Y-105350612D01*
X121259950Y-105549877D01*
X121446783Y-105723232D01*
X121657366Y-105866805D01*
X121657371Y-105866807D01*
X121657372Y-105866808D01*
X121657373Y-105866809D01*
X121779328Y-105925538D01*
X121886992Y-105977387D01*
X121886993Y-105977387D01*
X121886996Y-105977389D01*
X122130542Y-106052513D01*
X122382565Y-106090500D01*
X122637435Y-106090500D01*
X122889458Y-106052513D01*
X123133004Y-105977389D01*
X123362634Y-105866805D01*
X123573217Y-105723232D01*
X123760050Y-105549877D01*
X123918959Y-105350612D01*
X124046393Y-105129888D01*
X124139508Y-104892637D01*
X124196222Y-104644157D01*
X124215268Y-104390000D01*
X124211266Y-104336602D01*
X124200274Y-104189913D01*
X124196222Y-104135843D01*
X124139508Y-103887363D01*
X124046393Y-103650112D01*
X123918959Y-103429388D01*
X123760050Y-103230123D01*
X123573217Y-103056768D01*
X123362634Y-102913195D01*
X123362630Y-102913193D01*
X123362627Y-102913191D01*
X123362626Y-102913190D01*
X123133006Y-102802612D01*
X123133008Y-102802612D01*
X122889466Y-102727489D01*
X122889462Y-102727488D01*
X122889458Y-102727487D01*
X122768231Y-102709214D01*
X122637440Y-102689500D01*
X122637435Y-102689500D01*
X122382565Y-102689500D01*
X122382559Y-102689500D01*
X122225609Y-102713157D01*
X122130542Y-102727487D01*
X122130539Y-102727488D01*
X122130533Y-102727489D01*
X121886992Y-102802612D01*
X121657373Y-102913190D01*
X121657372Y-102913191D01*
X121446782Y-103056768D01*
X121259952Y-103230121D01*
X121259950Y-103230123D01*
X121101041Y-103429388D01*
X120973608Y-103650109D01*
X120880492Y-103887362D01*
X120880490Y-103887369D01*
X120823777Y-104135845D01*
X120804732Y-104389995D01*
X116424595Y-104389995D01*
X116904775Y-103909816D01*
X117952772Y-102861819D01*
X118014095Y-102828334D01*
X118040453Y-102825500D01*
X118841607Y-102825500D01*
X118841608Y-102825499D01*
X118962452Y-102801463D01*
X119076286Y-102754311D01*
X119178733Y-102685858D01*
X119265858Y-102598733D01*
X119334311Y-102496286D01*
X119381463Y-102382452D01*
X119405500Y-102261606D01*
X119405500Y-101919499D01*
X119425185Y-101852460D01*
X119477989Y-101806705D01*
X119529500Y-101795499D01*
X120582871Y-101795499D01*
X120582872Y-101795499D01*
X120642483Y-101789091D01*
X120777331Y-101738796D01*
X120892546Y-101652546D01*
X120978796Y-101537331D01*
X121023987Y-101416166D01*
X121065858Y-101360234D01*
X121131322Y-101335816D01*
X121140169Y-101335500D01*
X121245501Y-101335500D01*
X121312540Y-101355185D01*
X121358295Y-101407989D01*
X121369501Y-101459500D01*
X121369501Y-101607876D01*
X121375908Y-101667483D01*
X121426202Y-101802328D01*
X121426206Y-101802335D01*
X121512452Y-101917544D01*
X121512455Y-101917547D01*
X121627664Y-102003793D01*
X121627671Y-102003797D01*
X121762517Y-102054091D01*
X121762516Y-102054091D01*
X121769444Y-102054835D01*
X121822127Y-102060500D01*
X123617872Y-102060499D01*
X123677483Y-102054091D01*
X123812331Y-102003796D01*
X123927546Y-101917546D01*
X124013796Y-101802331D01*
X124064091Y-101667483D01*
X124070500Y-101607873D01*
X124070499Y-99812128D01*
X124064091Y-99752517D01*
X124063152Y-99750000D01*
X124013797Y-99617671D01*
X124013793Y-99617664D01*
X123927547Y-99502455D01*
X123927544Y-99502452D01*
X123812335Y-99416206D01*
X123812328Y-99416202D01*
X123680917Y-99367189D01*
X123624983Y-99325318D01*
X123600566Y-99259853D01*
X123615418Y-99191580D01*
X123636563Y-99163332D01*
X123758495Y-99041401D01*
X123894035Y-98847830D01*
X123993903Y-98633663D01*
X124055063Y-98405408D01*
X124075659Y-98170000D01*
X124055063Y-97934592D01*
X123993903Y-97706337D01*
X123894035Y-97492171D01*
X123893652Y-97491623D01*
X123758494Y-97298597D01*
X123591402Y-97131506D01*
X123591396Y-97131501D01*
X123405842Y-97001575D01*
X123362217Y-96946998D01*
X123355023Y-96877500D01*
X123386546Y-96815145D01*
X123405842Y-96798425D01*
X123428026Y-96782891D01*
X123591401Y-96668495D01*
X123758495Y-96501401D01*
X123894035Y-96307830D01*
X123993903Y-96093663D01*
X124055063Y-95865408D01*
X124075659Y-95630000D01*
X124055063Y-95394592D01*
X123994099Y-95167069D01*
X123993905Y-95166344D01*
X123993904Y-95166343D01*
X123993903Y-95166337D01*
X123894035Y-94952171D01*
X123893652Y-94951623D01*
X123758494Y-94758597D01*
X123591402Y-94591506D01*
X123591396Y-94591501D01*
X123405842Y-94461575D01*
X123362217Y-94406998D01*
X123355023Y-94337500D01*
X123386546Y-94275145D01*
X123405842Y-94258425D01*
X123538552Y-94165500D01*
X123591401Y-94128495D01*
X123758495Y-93961401D01*
X123894035Y-93767830D01*
X123993903Y-93553663D01*
X124055063Y-93325408D01*
X124075659Y-93090000D01*
X124074720Y-93079273D01*
X124065763Y-92976890D01*
X124055063Y-92854592D01*
X123993903Y-92626337D01*
X123894035Y-92412171D01*
X123893652Y-92411623D01*
X123758494Y-92218597D01*
X123591402Y-92051506D01*
X123591396Y-92051501D01*
X123405842Y-91921575D01*
X123362217Y-91866998D01*
X123355023Y-91797500D01*
X123386546Y-91735145D01*
X123405842Y-91718425D01*
X123461191Y-91679669D01*
X123591401Y-91588495D01*
X123758495Y-91421401D01*
X123894035Y-91227830D01*
X123993903Y-91013663D01*
X124055063Y-90785408D01*
X124075659Y-90550000D01*
X124055063Y-90314592D01*
X123993903Y-90086337D01*
X123894035Y-89872171D01*
X123879648Y-89851623D01*
X123758494Y-89678597D01*
X123591402Y-89511506D01*
X123591395Y-89511501D01*
X123574354Y-89499569D01*
X123552521Y-89484281D01*
X123397834Y-89375967D01*
X123397830Y-89375965D01*
X123330926Y-89344767D01*
X123183663Y-89276097D01*
X123183659Y-89276096D01*
X123183655Y-89276094D01*
X122955413Y-89214938D01*
X122955403Y-89214936D01*
X122720001Y-89194341D01*
X122719999Y-89194341D01*
X122484596Y-89214936D01*
X122484586Y-89214938D01*
X122256344Y-89276094D01*
X122256335Y-89276098D01*
X122042171Y-89375964D01*
X122042169Y-89375965D01*
X121848597Y-89511505D01*
X121681506Y-89678596D01*
X121631697Y-89749732D01*
X121566824Y-89842382D01*
X121560353Y-89851623D01*
X121505776Y-89895248D01*
X121458778Y-89904500D01*
X121176440Y-89904500D01*
X121109401Y-89884815D01*
X121063646Y-89832011D01*
X121060258Y-89823833D01*
X121018797Y-89712671D01*
X121018793Y-89712664D01*
X120932547Y-89597455D01*
X120932544Y-89597452D01*
X120817335Y-89511206D01*
X120817328Y-89511202D01*
X120682482Y-89460908D01*
X120682483Y-89460908D01*
X120622883Y-89454501D01*
X120622881Y-89454500D01*
X120622873Y-89454500D01*
X120622864Y-89454500D01*
X119377129Y-89454500D01*
X119377123Y-89454501D01*
X119317516Y-89460908D01*
X119182671Y-89511202D01*
X119182664Y-89511206D01*
X119067455Y-89597452D01*
X119067452Y-89597455D01*
X118981206Y-89712664D01*
X118981202Y-89712671D01*
X118941182Y-89819972D01*
X118899311Y-89875906D01*
X118833846Y-89900323D01*
X118765573Y-89885471D01*
X118716168Y-89836066D01*
X118708818Y-89819972D01*
X118668797Y-89712671D01*
X118668793Y-89712664D01*
X118582547Y-89597455D01*
X118582544Y-89597452D01*
X118467335Y-89511206D01*
X118467328Y-89511202D01*
X118332482Y-89460908D01*
X118332483Y-89460908D01*
X118272883Y-89454501D01*
X118272881Y-89454500D01*
X118272873Y-89454500D01*
X118272864Y-89454500D01*
X117027129Y-89454500D01*
X117027123Y-89454501D01*
X116967516Y-89460908D01*
X116832671Y-89511202D01*
X116832664Y-89511206D01*
X116717456Y-89597452D01*
X116717455Y-89597453D01*
X116717454Y-89597454D01*
X116655774Y-89679847D01*
X116599842Y-89721717D01*
X116568953Y-89727289D01*
X116569119Y-89728755D01*
X116382950Y-89749730D01*
X116382945Y-89749731D01*
X116212677Y-89809311D01*
X116157864Y-89843752D01*
X116090627Y-89862751D01*
X116023792Y-89842382D01*
X115978579Y-89789114D01*
X115968604Y-89725501D01*
X115970500Y-89707873D01*
X115970499Y-88871206D01*
X115979922Y-88823793D01*
X115998736Y-88778332D01*
X116022463Y-88721052D01*
X116022464Y-88721044D01*
X116022517Y-88720871D01*
X116022516Y-88720871D01*
X116022518Y-88720869D01*
X116034585Y-88660107D01*
X116034592Y-88660108D01*
X116034592Y-88660071D01*
X116046500Y-88600206D01*
X116046500Y-88600199D01*
X116046517Y-88600027D01*
X116046519Y-88600018D01*
X116046500Y-88536745D01*
X116046500Y-85694371D01*
X116046901Y-85686218D01*
X116046901Y-85555883D01*
X116046900Y-85555857D01*
X116046900Y-84344092D01*
X116066585Y-84277053D01*
X116111883Y-84235037D01*
X116231188Y-84170473D01*
X116424154Y-84020281D01*
X116589768Y-83840377D01*
X116723511Y-83635667D01*
X116821736Y-83411736D01*
X116881764Y-83174692D01*
X116901957Y-82931000D01*
X116881764Y-82687308D01*
X116821736Y-82450264D01*
X116723511Y-82226333D01*
X116679746Y-82159345D01*
X116589767Y-82021621D01*
X116424157Y-81841722D01*
X116424147Y-81841713D01*
X116231191Y-81691529D01*
X116231182Y-81691523D01*
X116211653Y-81680955D01*
X116162062Y-81631736D01*
X116146954Y-81563519D01*
X116171124Y-81497963D01*
X116226900Y-81455882D01*
X116270670Y-81447900D01*
X118002484Y-81447900D01*
X118069523Y-81467585D01*
X118090176Y-81484229D01*
X118169443Y-81563519D01*
X118876759Y-82271036D01*
X118876895Y-82271186D01*
X118881141Y-82275432D01*
X118881142Y-82275433D01*
X118909581Y-82303872D01*
X118943066Y-82365193D01*
X118945900Y-82391553D01*
X118945900Y-83953870D01*
X118945901Y-83953876D01*
X118952308Y-84013483D01*
X119002602Y-84148328D01*
X119002606Y-84148335D01*
X119088852Y-84263544D01*
X119088855Y-84263547D01*
X119204064Y-84349793D01*
X119204071Y-84349797D01*
X119338917Y-84400091D01*
X119338916Y-84400091D01*
X119345844Y-84400835D01*
X119398527Y-84406500D01*
X121444272Y-84406499D01*
X121503883Y-84400091D01*
X121638731Y-84349796D01*
X121753946Y-84263546D01*
X121840196Y-84148331D01*
X121890491Y-84013483D01*
X121896900Y-83953873D01*
X121896899Y-81908128D01*
X121890491Y-81848517D01*
X121887953Y-81841713D01*
X121840197Y-81713671D01*
X121840193Y-81713664D01*
X121753947Y-81598455D01*
X121753944Y-81598452D01*
X121638735Y-81512206D01*
X121638728Y-81512202D01*
X121503882Y-81461908D01*
X121503883Y-81461908D01*
X121444283Y-81455501D01*
X121444281Y-81455500D01*
X121444273Y-81455500D01*
X121444265Y-81455500D01*
X119881854Y-81455500D01*
X119814815Y-81435815D01*
X119794173Y-81419181D01*
X119761983Y-81386991D01*
X119761042Y-81386138D01*
X119646473Y-81271536D01*
X118803365Y-80428188D01*
X118803231Y-80428039D01*
X118753948Y-80378757D01*
X118753939Y-80378741D01*
X118753936Y-80378745D01*
X118753924Y-80378733D01*
X118711802Y-80336599D01*
X118711798Y-80336596D01*
X118711791Y-80336589D01*
X118711742Y-80336549D01*
X118711732Y-80336540D01*
X118658703Y-80301109D01*
X118658690Y-80301094D01*
X118658688Y-80301099D01*
X118658687Y-80301098D01*
X118609364Y-80268131D01*
X118609363Y-80268130D01*
X118609331Y-80268109D01*
X118609309Y-80268098D01*
X118551010Y-80243949D01*
X118550998Y-80243939D01*
X118550997Y-80243944D01*
X118495510Y-80220951D01*
X118495476Y-80220941D01*
X118437704Y-80209450D01*
X118437688Y-80209441D01*
X118437687Y-80209446D01*
X118374696Y-80196908D01*
X118374656Y-80196900D01*
X118374606Y-80196900D01*
X118316713Y-80196900D01*
X118245472Y-80196890D01*
X118245270Y-80196900D01*
X103566389Y-80196900D01*
X103445555Y-80220935D01*
X103445545Y-80220938D01*
X103331716Y-80268087D01*
X103331707Y-80268092D01*
X103229267Y-80336541D01*
X103229263Y-80336544D01*
X103142144Y-80423663D01*
X103142141Y-80423667D01*
X103073692Y-80526107D01*
X103073687Y-80526116D01*
X103026538Y-80639945D01*
X103026535Y-80639955D01*
X103002500Y-80760789D01*
X103002500Y-86300330D01*
X103002100Y-86308434D01*
X103002100Y-88282052D01*
X102982415Y-88349091D01*
X102932799Y-88392082D01*
X102933056Y-88392552D01*
X102930899Y-88393729D01*
X102929611Y-88394846D01*
X102926477Y-88396144D01*
X102925272Y-88396802D01*
X102925269Y-88396803D01*
X102925269Y-88396804D01*
X102821070Y-88474808D01*
X102810053Y-88483055D01*
X102767766Y-88539543D01*
X102711832Y-88581413D01*
X102642140Y-88586397D01*
X102580818Y-88552911D01*
X102547333Y-88491587D01*
X102544500Y-88465231D01*
X102544500Y-82154004D01*
X102544507Y-82087666D01*
X102544506Y-82087665D01*
X102544507Y-82087660D01*
X102544505Y-82087653D01*
X102544500Y-82087595D01*
X102542686Y-82078477D01*
X102532438Y-82026955D01*
X102520482Y-81966813D01*
X102520479Y-81966807D01*
X102520478Y-81966799D01*
X102520464Y-81966751D01*
X102495697Y-81906957D01*
X102495692Y-81906945D01*
X102473341Y-81852969D01*
X102473315Y-81852921D01*
X102473312Y-81852916D01*
X102473311Y-81852914D01*
X102438762Y-81801208D01*
X102404900Y-81750518D01*
X102404896Y-81750512D01*
X102404860Y-81750468D01*
X102362547Y-81708156D01*
X102362539Y-81708143D01*
X102362537Y-81708146D01*
X101470044Y-80815463D01*
X101469936Y-80815344D01*
X101421157Y-80766566D01*
X101421150Y-80766554D01*
X101421148Y-80766557D01*
X101378777Y-80724177D01*
X101378731Y-80724140D01*
X101328093Y-80690306D01*
X101328082Y-80690293D01*
X101328080Y-80690297D01*
X101276335Y-80655713D01*
X101276300Y-80655694D01*
X101217336Y-80631271D01*
X101217336Y-80631268D01*
X101217324Y-80631266D01*
X101162515Y-80608557D01*
X101162513Y-80608556D01*
X101162500Y-80608551D01*
X101162460Y-80608538D01*
X101101523Y-80596417D01*
X101101512Y-80596411D01*
X101101512Y-80596414D01*
X101041673Y-80584506D01*
X101041643Y-80584500D01*
X101041606Y-80584500D01*
X100984805Y-80584500D01*
X100984782Y-80584499D01*
X100912427Y-80584492D01*
X100912265Y-80584500D01*
X83137741Y-80584500D01*
X83137721Y-80584499D01*
X83131607Y-80584499D01*
X83008394Y-80584499D01*
X82907597Y-80604548D01*
X82907592Y-80604548D01*
X82887549Y-80608536D01*
X82887547Y-80608536D01*
X82840397Y-80628067D01*
X82773719Y-80655685D01*
X82773717Y-80655686D01*
X82671266Y-80724141D01*
X82528997Y-80866410D01*
X82528998Y-80866411D01*
X82448939Y-80946470D01*
X82448938Y-80946472D01*
X82380490Y-81048908D01*
X82380488Y-81048913D01*
X82351620Y-81118606D01*
X82351621Y-81118607D01*
X82339311Y-81148327D01*
X82339310Y-81148330D01*
X82333337Y-81162748D01*
X82311699Y-81271536D01*
X82311697Y-81271542D01*
X82309300Y-81283589D01*
X82309300Y-81915700D01*
X82289615Y-81982739D01*
X82236811Y-82028494D01*
X82185300Y-82039700D01*
X81911930Y-82039700D01*
X81911923Y-82039701D01*
X81852316Y-82046108D01*
X81717471Y-82096402D01*
X81717464Y-82096406D01*
X81602255Y-82182652D01*
X81602252Y-82182655D01*
X81516006Y-82297864D01*
X81516002Y-82297871D01*
X81465708Y-82432717D01*
X81459301Y-82492316D01*
X81459301Y-82492323D01*
X81459300Y-82492335D01*
X81459300Y-84538070D01*
X81459301Y-84538076D01*
X81465708Y-84597683D01*
X81516002Y-84732528D01*
X81516006Y-84732535D01*
X81602252Y-84847744D01*
X81602255Y-84847747D01*
X81717464Y-84933993D01*
X81717471Y-84933997D01*
X81852317Y-84984291D01*
X81852316Y-84984291D01*
X81859244Y-84985035D01*
X81911927Y-84990700D01*
X83957672Y-84990699D01*
X84017283Y-84984291D01*
X84152131Y-84933996D01*
X84267346Y-84847746D01*
X84353596Y-84732531D01*
X84403891Y-84597683D01*
X84410300Y-84538073D01*
X84410299Y-82492328D01*
X84405099Y-82443957D01*
X84403891Y-82432716D01*
X84353597Y-82297871D01*
X84353593Y-82297864D01*
X84267347Y-82182655D01*
X84267344Y-82182652D01*
X84152135Y-82096406D01*
X84152128Y-82096402D01*
X84096573Y-82075682D01*
X84040639Y-82033811D01*
X84016222Y-81968347D01*
X84031073Y-81900074D01*
X84080478Y-81850668D01*
X84139906Y-81835500D01*
X87541861Y-81835500D01*
X87608900Y-81855185D01*
X87654655Y-81907989D01*
X87664599Y-81977147D01*
X87635574Y-82040703D01*
X87576796Y-82078477D01*
X87572298Y-82079706D01*
X87571345Y-82079947D01*
X87340070Y-82159343D01*
X87340065Y-82159345D01*
X87125012Y-82275726D01*
X87125008Y-82275729D01*
X86932052Y-82425913D01*
X86932042Y-82425922D01*
X86766432Y-82605821D01*
X86632688Y-82810533D01*
X86534463Y-83034465D01*
X86474436Y-83271504D01*
X86474434Y-83271516D01*
X86454243Y-83515194D01*
X86454243Y-83515205D01*
X86474434Y-83758883D01*
X86474436Y-83758895D01*
X86534463Y-83995934D01*
X86632688Y-84219866D01*
X86766432Y-84424578D01*
X86932042Y-84604477D01*
X86932052Y-84604486D01*
X87125008Y-84754670D01*
X87125012Y-84754673D01*
X87300277Y-84849522D01*
X87340067Y-84871055D01*
X87340070Y-84871056D01*
X87571341Y-84950451D01*
X87571343Y-84950451D01*
X87571345Y-84950452D01*
X87812537Y-84990700D01*
X87812538Y-84990700D01*
X88057062Y-84990700D01*
X88057063Y-84990700D01*
X88298255Y-84950452D01*
X88364409Y-84927740D01*
X88434203Y-84924590D01*
X88492350Y-84957340D01*
X91453741Y-87918732D01*
X91453742Y-87918733D01*
X91505220Y-87970211D01*
X91540869Y-88005860D01*
X91540871Y-88005861D01*
X91610126Y-88052136D01*
X91643311Y-88074309D01*
X91643314Y-88074311D01*
X91757148Y-88121463D01*
X91877988Y-88145499D01*
X91877992Y-88145500D01*
X91877993Y-88145500D01*
X91877994Y-88145500D01*
X94439548Y-88145500D01*
X94506587Y-88165185D01*
X94527229Y-88181819D01*
X95227581Y-88882171D01*
X95261066Y-88943494D01*
X95263900Y-88969852D01*
X95263900Y-89747670D01*
X95263901Y-89747676D01*
X95270308Y-89807283D01*
X95311058Y-89916537D01*
X95316042Y-89986229D01*
X95282557Y-90047551D01*
X94918656Y-90411453D01*
X94601270Y-90728839D01*
X94601267Y-90728842D01*
X94576409Y-90753700D01*
X94514140Y-90815968D01*
X94490677Y-90851085D01*
X94490675Y-90851088D01*
X94445690Y-90918410D01*
X94445687Y-90918416D01*
X94420431Y-90979390D01*
X94398537Y-91032246D01*
X94398535Y-91032251D01*
X94394784Y-91051116D01*
X94394784Y-91051118D01*
X94375654Y-91147294D01*
X94375653Y-91147295D01*
X94374500Y-91153091D01*
X94374500Y-93753770D01*
X94354815Y-93820809D01*
X94302011Y-93866564D01*
X94232853Y-93876508D01*
X94169297Y-93847483D01*
X94162819Y-93841451D01*
X93058818Y-92737450D01*
X93025333Y-92676127D01*
X93022499Y-92649769D01*
X93022499Y-91703629D01*
X93022498Y-91703623D01*
X93022172Y-91700592D01*
X93016091Y-91644017D01*
X92997948Y-91595375D01*
X92992965Y-91525685D01*
X93014864Y-91477732D01*
X93078796Y-91392331D01*
X93129091Y-91257483D01*
X93135500Y-91197873D01*
X93135499Y-89302128D01*
X93129091Y-89242517D01*
X93128674Y-89241400D01*
X93078797Y-89107671D01*
X93078793Y-89107664D01*
X92992547Y-88992455D01*
X92992544Y-88992452D01*
X92877335Y-88906206D01*
X92877328Y-88906202D01*
X92742482Y-88855908D01*
X92742483Y-88855908D01*
X92682883Y-88849501D01*
X92682881Y-88849500D01*
X92682873Y-88849500D01*
X92682864Y-88849500D01*
X91437129Y-88849500D01*
X91437123Y-88849501D01*
X91377516Y-88855908D01*
X91242671Y-88906202D01*
X91242664Y-88906206D01*
X91127455Y-88992452D01*
X91127452Y-88992455D01*
X91041206Y-89107664D01*
X91041202Y-89107671D01*
X90990908Y-89242517D01*
X90984932Y-89298106D01*
X90984501Y-89302123D01*
X90984500Y-89302135D01*
X90984500Y-91137086D01*
X90964815Y-91204125D01*
X90912011Y-91249880D01*
X90895798Y-91255438D01*
X90755671Y-91307702D01*
X90755664Y-91307706D01*
X90640455Y-91393952D01*
X90640452Y-91393955D01*
X90554206Y-91509164D01*
X90554202Y-91509171D01*
X90514576Y-91615417D01*
X90472705Y-91671351D01*
X90412278Y-91695304D01*
X90365346Y-91700592D01*
X90296524Y-91688538D01*
X90245144Y-91641189D01*
X90235280Y-91620705D01*
X90183797Y-91482671D01*
X90183795Y-91482668D01*
X90180926Y-91478836D01*
X90144602Y-91430313D01*
X90131445Y-91412737D01*
X90107028Y-91347273D01*
X90114531Y-91295091D01*
X90128596Y-91257380D01*
X90128598Y-91257372D01*
X90134999Y-91197844D01*
X90135000Y-91197827D01*
X90135000Y-90500000D01*
X87985000Y-90500000D01*
X87985000Y-91101000D01*
X87965315Y-91168039D01*
X87912511Y-91213794D01*
X87861000Y-91225000D01*
X87650000Y-91225000D01*
X87650000Y-94856000D01*
X87630315Y-94923039D01*
X87577511Y-94968794D01*
X87526000Y-94980000D01*
X86320000Y-94980000D01*
X86320000Y-95385500D01*
X86300315Y-95452539D01*
X86247511Y-95498294D01*
X86196000Y-95509500D01*
X84188547Y-95509500D01*
X84147592Y-95502541D01*
X84039257Y-95464632D01*
X84039247Y-95464630D01*
X83866016Y-95445112D01*
X83801602Y-95418045D01*
X83762047Y-95360451D01*
X83755900Y-95321892D01*
X83755900Y-95075900D01*
X82620900Y-95075900D01*
X82620900Y-96109300D01*
X82639970Y-96109300D01*
X82707009Y-96128985D01*
X82752764Y-96181789D01*
X82762708Y-96250947D01*
X82733683Y-96314503D01*
X82727651Y-96320981D01*
X82137052Y-96911578D01*
X82137046Y-96911585D01*
X82090226Y-96981657D01*
X82090227Y-96981658D01*
X82069321Y-97012947D01*
X82054914Y-97034508D01*
X81998343Y-97171082D01*
X81998340Y-97171092D01*
X81985499Y-97235649D01*
X81953114Y-97297560D01*
X81892398Y-97332134D01*
X81877137Y-97334747D01*
X81850516Y-97337609D01*
X81715671Y-97387902D01*
X81715665Y-97387906D01*
X81657265Y-97431624D01*
X81591801Y-97456041D01*
X81523528Y-97441189D01*
X81508645Y-97431624D01*
X81461731Y-97396504D01*
X81461728Y-97396502D01*
X81326882Y-97346208D01*
X81326883Y-97346208D01*
X81267283Y-97339801D01*
X81267281Y-97339800D01*
X81267273Y-97339800D01*
X81267264Y-97339800D01*
X79701529Y-97339800D01*
X79701523Y-97339801D01*
X79641916Y-97346208D01*
X79507071Y-97396502D01*
X79507064Y-97396506D01*
X79391855Y-97482752D01*
X79391852Y-97482755D01*
X79305606Y-97597964D01*
X79305602Y-97597971D01*
X79255308Y-97732816D01*
X79255177Y-97733375D01*
X79254955Y-97733763D01*
X79252598Y-97740085D01*
X79251573Y-97739702D01*
X79220604Y-97794091D01*
X79158694Y-97826478D01*
X79089102Y-97820252D01*
X79033924Y-97777390D01*
X79010678Y-97711501D01*
X79010500Y-97704861D01*
X79010500Y-95657144D01*
X80393700Y-95657144D01*
X80400101Y-95716672D01*
X80400103Y-95716679D01*
X80450345Y-95851386D01*
X80450349Y-95851393D01*
X80536509Y-95966487D01*
X80536512Y-95966490D01*
X80651606Y-96052650D01*
X80651613Y-96052654D01*
X80786320Y-96102896D01*
X80786327Y-96102898D01*
X80845855Y-96109299D01*
X80845872Y-96109300D01*
X80893700Y-96109300D01*
X81325500Y-96109300D01*
X81373321Y-96109300D01*
X81373331Y-96109299D01*
X81413842Y-96104943D01*
X81440358Y-96104943D01*
X81480868Y-96109299D01*
X81480879Y-96109300D01*
X81528700Y-96109300D01*
X81960500Y-96109300D01*
X82008328Y-96109300D01*
X82008344Y-96109299D01*
X82061544Y-96103579D01*
X82088056Y-96103579D01*
X82141255Y-96109299D01*
X82141272Y-96109300D01*
X82189100Y-96109300D01*
X82189100Y-95075900D01*
X81960500Y-95075900D01*
X81960500Y-96109300D01*
X81528700Y-96109300D01*
X81528700Y-95075900D01*
X81325500Y-95075900D01*
X81325500Y-96109300D01*
X80893700Y-96109300D01*
X80893700Y-95075900D01*
X80393700Y-95075900D01*
X80393700Y-95657144D01*
X79010500Y-95657144D01*
X79010500Y-94062855D01*
X80393700Y-94062855D01*
X80393700Y-94644100D01*
X80893700Y-94644100D01*
X81325500Y-94644100D01*
X81528700Y-94644100D01*
X81960500Y-94644100D01*
X82189100Y-94644100D01*
X82620900Y-94644100D01*
X82824100Y-94644100D01*
X83255900Y-94644100D01*
X83755900Y-94644100D01*
X83755900Y-94062872D01*
X83755899Y-94062855D01*
X83749498Y-94003327D01*
X83749496Y-94003320D01*
X83699254Y-93868613D01*
X83699250Y-93868606D01*
X83613090Y-93753512D01*
X83613087Y-93753509D01*
X83497993Y-93667349D01*
X83497986Y-93667345D01*
X83363279Y-93617103D01*
X83363272Y-93617101D01*
X83303744Y-93610700D01*
X83255900Y-93610700D01*
X83255900Y-94644100D01*
X82824100Y-94644100D01*
X82824100Y-93610700D01*
X82776264Y-93610700D01*
X82735752Y-93615055D01*
X82709248Y-93615055D01*
X82668735Y-93610700D01*
X82620900Y-93610700D01*
X82620900Y-94644100D01*
X82189100Y-94644100D01*
X82189100Y-93610700D01*
X82141269Y-93610700D01*
X82088054Y-93616421D01*
X82061546Y-93616421D01*
X82008330Y-93610700D01*
X81960500Y-93610700D01*
X81960500Y-94644100D01*
X81528700Y-94644100D01*
X81528700Y-93610700D01*
X81480864Y-93610700D01*
X81440352Y-93615055D01*
X81413848Y-93615055D01*
X81373335Y-93610700D01*
X81325500Y-93610700D01*
X81325500Y-94644100D01*
X80893700Y-94644100D01*
X80893700Y-93610700D01*
X80845855Y-93610700D01*
X80786327Y-93617101D01*
X80786320Y-93617103D01*
X80651613Y-93667345D01*
X80651606Y-93667349D01*
X80536512Y-93753509D01*
X80536509Y-93753512D01*
X80450349Y-93868606D01*
X80450345Y-93868613D01*
X80400103Y-94003320D01*
X80400101Y-94003327D01*
X80393700Y-94062855D01*
X79010500Y-94062855D01*
X79010500Y-93242844D01*
X86320000Y-93242844D01*
X86326401Y-93302372D01*
X86326403Y-93302379D01*
X86376645Y-93437086D01*
X86376647Y-93437088D01*
X86439230Y-93520689D01*
X86463647Y-93586153D01*
X86448796Y-93654426D01*
X86439230Y-93669311D01*
X86376647Y-93752911D01*
X86376645Y-93752913D01*
X86326403Y-93887620D01*
X86326401Y-93887627D01*
X86320000Y-93947155D01*
X86320000Y-94480000D01*
X87150000Y-94480000D01*
X87150000Y-92710000D01*
X86320000Y-92710000D01*
X86320000Y-93242844D01*
X79010500Y-93242844D01*
X79010500Y-91814420D01*
X80359099Y-91814420D01*
X80387940Y-91959407D01*
X80387943Y-91959417D01*
X80444514Y-92095991D01*
X80444516Y-92095995D01*
X80470687Y-92135163D01*
X80470686Y-92135163D01*
X80526646Y-92218914D01*
X80526652Y-92218921D01*
X80920359Y-92612626D01*
X81050685Y-92742952D01*
X81069686Y-92755648D01*
X81069690Y-92755652D01*
X81069691Y-92755651D01*
X81173598Y-92825080D01*
X81173611Y-92825087D01*
X81222878Y-92845494D01*
X81222879Y-92845494D01*
X81310188Y-92881659D01*
X81425682Y-92904632D01*
X81445348Y-92908544D01*
X81455181Y-92910500D01*
X81455182Y-92910500D01*
X81455183Y-92910500D01*
X81577188Y-92910500D01*
X81618142Y-92917458D01*
X81640745Y-92925368D01*
X81640751Y-92925368D01*
X81640753Y-92925369D01*
X81819996Y-92945565D01*
X81820000Y-92945565D01*
X81820004Y-92945565D01*
X81999246Y-92925369D01*
X81999245Y-92925369D01*
X81999255Y-92925368D01*
X82021857Y-92917458D01*
X82062812Y-92910500D01*
X82303920Y-92910500D01*
X82401462Y-92891096D01*
X82448913Y-92881658D01*
X82585495Y-92825084D01*
X82651346Y-92781084D01*
X82651346Y-92781083D01*
X82651348Y-92781083D01*
X82679881Y-92762018D01*
X82708416Y-92742952D01*
X82987951Y-92463416D01*
X83070084Y-92340495D01*
X83126658Y-92203913D01*
X83142814Y-92122694D01*
X83155500Y-92058920D01*
X83155500Y-91864500D01*
X83175185Y-91797461D01*
X83227989Y-91751706D01*
X83279500Y-91740500D01*
X83303728Y-91740500D01*
X83303744Y-91740499D01*
X83363272Y-91734098D01*
X83363279Y-91734096D01*
X83497986Y-91683854D01*
X83497993Y-91683850D01*
X83613087Y-91597690D01*
X83613090Y-91597687D01*
X83699250Y-91482593D01*
X83699254Y-91482586D01*
X83749496Y-91347879D01*
X83749498Y-91347872D01*
X83755899Y-91288344D01*
X83755900Y-91288327D01*
X83755900Y-90707100D01*
X83279500Y-90707100D01*
X83212461Y-90687415D01*
X83166706Y-90634611D01*
X83155500Y-90583100D01*
X83155500Y-90417281D01*
X83154926Y-90411453D01*
X83167945Y-90342807D01*
X83216010Y-90292097D01*
X83278329Y-90275300D01*
X83755900Y-90275300D01*
X83755900Y-90266400D01*
X83775585Y-90199361D01*
X83828389Y-90153606D01*
X83879900Y-90142400D01*
X84409670Y-90142400D01*
X84476709Y-90162085D01*
X84497351Y-90178719D01*
X85696692Y-91378060D01*
X85719356Y-91414129D01*
X85721188Y-91413247D01*
X85724207Y-91419516D01*
X85763837Y-91482586D01*
X85820184Y-91572262D01*
X85947738Y-91699816D01*
X86082781Y-91784669D01*
X86100478Y-91795789D01*
X86236954Y-91843544D01*
X86293730Y-91884266D01*
X86319478Y-91949219D01*
X86320000Y-91960586D01*
X86320000Y-92210000D01*
X87150000Y-92210000D01*
X87150000Y-91496288D01*
X87169007Y-91430314D01*
X87175789Y-91419522D01*
X87232489Y-91257483D01*
X87235366Y-91249262D01*
X87235369Y-91249249D01*
X87255565Y-91070003D01*
X87255565Y-91069996D01*
X87235369Y-90890750D01*
X87235368Y-90890745D01*
X87217499Y-90839679D01*
X87175789Y-90720478D01*
X87079816Y-90567738D01*
X86952262Y-90440184D01*
X86799522Y-90344211D01*
X86799516Y-90344207D01*
X86793247Y-90341188D01*
X86794129Y-90339356D01*
X86758060Y-90316692D01*
X85743524Y-89302155D01*
X87985000Y-89302155D01*
X87985000Y-90000000D01*
X88810000Y-90000000D01*
X89310000Y-90000000D01*
X90135000Y-90000000D01*
X90135000Y-89302172D01*
X90134999Y-89302155D01*
X90128598Y-89242627D01*
X90128596Y-89242620D01*
X90078354Y-89107913D01*
X90078350Y-89107906D01*
X89992190Y-88992812D01*
X89992187Y-88992809D01*
X89877093Y-88906649D01*
X89877086Y-88906645D01*
X89742379Y-88856403D01*
X89742372Y-88856401D01*
X89682844Y-88850000D01*
X89310000Y-88850000D01*
X89310000Y-90000000D01*
X88810000Y-90000000D01*
X88810000Y-88850000D01*
X88437155Y-88850000D01*
X88377627Y-88856401D01*
X88377620Y-88856403D01*
X88242913Y-88906645D01*
X88242906Y-88906649D01*
X88127812Y-88992809D01*
X88127809Y-88992812D01*
X88041649Y-89107906D01*
X88041645Y-89107913D01*
X87991403Y-89242620D01*
X87991401Y-89242627D01*
X87985000Y-89302155D01*
X85743524Y-89302155D01*
X85250321Y-88808952D01*
X85250314Y-88808946D01*
X85167992Y-88753941D01*
X85167991Y-88753941D01*
X85127401Y-88726819D01*
X85127388Y-88726812D01*
X84990817Y-88670243D01*
X84990807Y-88670240D01*
X84845820Y-88641400D01*
X84845818Y-88641400D01*
X81913017Y-88641400D01*
X81765182Y-88641400D01*
X81765180Y-88641400D01*
X81620192Y-88670240D01*
X81620182Y-88670243D01*
X81483611Y-88726812D01*
X81483598Y-88726819D01*
X81360684Y-88808948D01*
X81360680Y-88808951D01*
X81161650Y-89007980D01*
X81142411Y-89036775D01*
X81123426Y-89065189D01*
X81079519Y-89130899D01*
X81079513Y-89130910D01*
X81065452Y-89164855D01*
X81021610Y-89219258D01*
X80955315Y-89241321D01*
X80950893Y-89241400D01*
X80845830Y-89241400D01*
X80845823Y-89241401D01*
X80786216Y-89247808D01*
X80651371Y-89298102D01*
X80651364Y-89298106D01*
X80536155Y-89384352D01*
X80536152Y-89384355D01*
X80449906Y-89499564D01*
X80449902Y-89499571D01*
X80399608Y-89634417D01*
X80393201Y-89694016D01*
X80393200Y-89694035D01*
X80393200Y-90236560D01*
X80388796Y-90266247D01*
X80389130Y-90266314D01*
X80359100Y-90417279D01*
X80359100Y-90417281D01*
X80359100Y-90417282D01*
X80359100Y-91814418D01*
X80359100Y-91814420D01*
X80359099Y-91814420D01*
X79010500Y-91814420D01*
X79010500Y-79468750D01*
X79010726Y-79461263D01*
X79028271Y-79171205D01*
X79030076Y-79156340D01*
X79081780Y-78874201D01*
X79085364Y-78859663D01*
X79162096Y-78613422D01*
X79170696Y-78585822D01*
X79175998Y-78571841D01*
X79293731Y-78310249D01*
X79300676Y-78297016D01*
X79449080Y-78051526D01*
X79457567Y-78039230D01*
X79634480Y-77813417D01*
X79644395Y-77802226D01*
X79847226Y-77599395D01*
X79858417Y-77589480D01*
X80084230Y-77412567D01*
X80096526Y-77404080D01*
X80342016Y-77255676D01*
X80355249Y-77248731D01*
X80616841Y-77130998D01*
X80630822Y-77125696D01*
X80904668Y-77040362D01*
X80919197Y-77036780D01*
X81201344Y-76985075D01*
X81216201Y-76983271D01*
X81506264Y-76965726D01*
X81513751Y-76965500D01*
X81575892Y-76965500D01*
X123564108Y-76965500D01*
X123626249Y-76965500D01*
X123633736Y-76965726D01*
G37*
%TD.AperFunction*%
%TA.AperFunction,Conductor*%
G36*
X105965626Y-98896023D02*
G01*
X106021559Y-98937895D01*
X106045512Y-98998321D01*
X106054630Y-99079250D01*
X106054631Y-99079254D01*
X106114211Y-99249523D01*
X106193285Y-99375368D01*
X106210184Y-99402262D01*
X106337738Y-99529816D01*
X106418926Y-99580830D01*
X106488927Y-99624815D01*
X106490478Y-99625789D01*
X106583112Y-99658203D01*
X106660745Y-99685368D01*
X106660750Y-99685369D01*
X106839996Y-99705565D01*
X106840000Y-99705565D01*
X106840004Y-99705565D01*
X107019249Y-99685369D01*
X107019252Y-99685368D01*
X107019255Y-99685368D01*
X107189522Y-99625789D01*
X107191073Y-99624815D01*
X107259307Y-99581940D01*
X107326544Y-99562939D01*
X107393379Y-99583306D01*
X107438594Y-99636574D01*
X107439842Y-99639484D01*
X107447595Y-99658203D01*
X107455062Y-99727672D01*
X107447596Y-99753099D01*
X107440509Y-99770210D01*
X107440508Y-99770211D01*
X107433295Y-99825000D01*
X107469095Y-99825000D01*
X107536134Y-99844685D01*
X107567470Y-99873513D01*
X107597432Y-99912560D01*
X107597434Y-99912561D01*
X107597436Y-99912564D01*
X107622277Y-99931625D01*
X107663479Y-99988054D01*
X107667633Y-100057800D01*
X107633420Y-100118720D01*
X107622280Y-100128371D01*
X107601457Y-100144350D01*
X107597432Y-100147439D01*
X107567470Y-100186487D01*
X107511042Y-100227689D01*
X107469095Y-100235000D01*
X107433295Y-100235000D01*
X107440507Y-100289781D01*
X107447596Y-100306895D01*
X107455063Y-100376365D01*
X107447597Y-100401795D01*
X107440020Y-100420087D01*
X107424500Y-100537978D01*
X107424500Y-100822022D01*
X107440019Y-100939907D01*
X107440022Y-100939918D01*
X107447325Y-100957550D01*
X107454792Y-101027020D01*
X107447325Y-101052450D01*
X107440022Y-101070081D01*
X107440020Y-101070086D01*
X107424500Y-101187978D01*
X107424500Y-101472022D01*
X107440019Y-101589907D01*
X107440022Y-101589918D01*
X107447325Y-101607550D01*
X107454792Y-101677020D01*
X107447325Y-101702450D01*
X107440022Y-101720081D01*
X107440020Y-101720086D01*
X107424500Y-101837978D01*
X107424500Y-102122022D01*
X107440019Y-102239907D01*
X107440022Y-102239918D01*
X107447325Y-102257550D01*
X107454792Y-102327020D01*
X107447325Y-102352450D01*
X107440022Y-102370081D01*
X107440020Y-102370086D01*
X107424500Y-102487978D01*
X107424500Y-102772022D01*
X107440019Y-102889907D01*
X107440022Y-102889918D01*
X107447325Y-102907550D01*
X107454792Y-102977020D01*
X107447325Y-103002450D01*
X107440022Y-103020081D01*
X107440020Y-103020086D01*
X107424500Y-103137978D01*
X107424500Y-103422022D01*
X107440019Y-103539907D01*
X107440022Y-103539918D01*
X107447325Y-103557550D01*
X107454792Y-103627020D01*
X107447325Y-103652450D01*
X107440022Y-103670081D01*
X107440020Y-103670086D01*
X107424500Y-103787978D01*
X107424500Y-104072017D01*
X107424525Y-104072384D01*
X107424500Y-104072491D01*
X107424501Y-104076079D01*
X107423698Y-104076079D01*
X107409271Y-104140568D01*
X107359575Y-104189681D01*
X107300791Y-104204500D01*
X106835453Y-104204500D01*
X106768414Y-104184815D01*
X106747772Y-104168181D01*
X105809712Y-103230121D01*
X104849312Y-102269722D01*
X104815828Y-102208400D01*
X104820812Y-102138708D01*
X104862684Y-102082775D01*
X104896039Y-102065000D01*
X104935202Y-102051297D01*
X104979520Y-102035790D01*
X105002256Y-102021504D01*
X105132262Y-101939816D01*
X105259816Y-101812262D01*
X105355789Y-101659522D01*
X105415368Y-101489255D01*
X105418721Y-101459500D01*
X105435565Y-101310003D01*
X105435565Y-101309996D01*
X105415369Y-101130750D01*
X105415368Y-101130745D01*
X105371368Y-101005000D01*
X105355789Y-100960478D01*
X105342868Y-100939915D01*
X105268791Y-100822022D01*
X105259816Y-100807738D01*
X105132262Y-100680184D01*
X105107484Y-100664615D01*
X104979523Y-100584211D01*
X104809254Y-100524631D01*
X104809249Y-100524630D01*
X104630004Y-100504435D01*
X104630003Y-100504435D01*
X104630001Y-100504435D01*
X104630000Y-100504435D01*
X104605394Y-100507207D01*
X104559187Y-100512413D01*
X104490365Y-100500357D01*
X104438986Y-100453007D01*
X104421363Y-100385396D01*
X104443091Y-100318991D01*
X104457610Y-100301526D01*
X105834613Y-98924522D01*
X105895934Y-98891039D01*
X105965626Y-98896023D01*
G37*
%TD.AperFunction*%
%TA.AperFunction,Conductor*%
G36*
X110829334Y-99547769D02*
G01*
X110885267Y-99589641D01*
X110909684Y-99655105D01*
X110910000Y-99663951D01*
X110910000Y-99690000D01*
X112116000Y-99690000D01*
X112183039Y-99709685D01*
X112228794Y-99762489D01*
X112240000Y-99814000D01*
X112240000Y-101175000D01*
X112263780Y-101198780D01*
X112297265Y-101260103D01*
X112292281Y-101329795D01*
X112263780Y-101374142D01*
X112210184Y-101427737D01*
X112114210Y-101580478D01*
X112054630Y-101750750D01*
X112049326Y-101797825D01*
X112022258Y-101862239D01*
X112013787Y-101871621D01*
X111267229Y-102618181D01*
X111205906Y-102651666D01*
X111179548Y-102654500D01*
X111009139Y-102654500D01*
X110942100Y-102634815D01*
X110896345Y-102582011D01*
X110885919Y-102544383D01*
X110875369Y-102450750D01*
X110875368Y-102450745D01*
X110872466Y-102442452D01*
X110815789Y-102280478D01*
X110815372Y-102279815D01*
X110761229Y-102193647D01*
X110719816Y-102127738D01*
X110592262Y-102000184D01*
X110508031Y-101947258D01*
X110439523Y-101904211D01*
X110269254Y-101844631D01*
X110269249Y-101844630D01*
X110090004Y-101824435D01*
X110089997Y-101824435D01*
X110037230Y-101830380D01*
X109968408Y-101818325D01*
X109917029Y-101770976D01*
X109900408Y-101723345D01*
X109899979Y-101720085D01*
X109892675Y-101702454D01*
X109885206Y-101632986D01*
X109892676Y-101607545D01*
X109894836Y-101602331D01*
X109899979Y-101589915D01*
X109915500Y-101472021D01*
X109915499Y-101187980D01*
X109899979Y-101070085D01*
X109892675Y-101052454D01*
X109885206Y-100982986D01*
X109892676Y-100957545D01*
X109892944Y-100956898D01*
X109899979Y-100939915D01*
X109915500Y-100822021D01*
X109915500Y-100722844D01*
X110910000Y-100722844D01*
X110916401Y-100782372D01*
X110916403Y-100782379D01*
X110966645Y-100917086D01*
X110966649Y-100917093D01*
X111052809Y-101032187D01*
X111052812Y-101032190D01*
X111167906Y-101118350D01*
X111167913Y-101118354D01*
X111302620Y-101168596D01*
X111302627Y-101168598D01*
X111362155Y-101174999D01*
X111362172Y-101175000D01*
X111740000Y-101175000D01*
X111740000Y-100190000D01*
X110910000Y-100190000D01*
X110910000Y-100722844D01*
X109915500Y-100722844D01*
X109915499Y-100537980D01*
X109912133Y-100512413D01*
X109899980Y-100420092D01*
X109899979Y-100420087D01*
X109899979Y-100420085D01*
X109892404Y-100401799D01*
X109884935Y-100332331D01*
X109892405Y-100306890D01*
X109899492Y-100289781D01*
X109914999Y-100171997D01*
X109915000Y-100171983D01*
X109915000Y-100129500D01*
X109934685Y-100062461D01*
X109987489Y-100016706D01*
X110039000Y-100005500D01*
X110071608Y-100005500D01*
X110071608Y-100005499D01*
X110135978Y-99992696D01*
X110135979Y-99992696D01*
X110155150Y-99988882D01*
X110192452Y-99981463D01*
X110225792Y-99967652D01*
X110306286Y-99934312D01*
X110359532Y-99898733D01*
X110408733Y-99865858D01*
X110495858Y-99778733D01*
X110495859Y-99778730D01*
X110502925Y-99771665D01*
X110502927Y-99771661D01*
X110698319Y-99576269D01*
X110759642Y-99542785D01*
X110829334Y-99547769D01*
G37*
%TD.AperFunction*%
%TA.AperFunction,Conductor*%
G36*
X83997213Y-100549800D02*
G01*
X85236000Y-100549800D01*
X85303039Y-100569485D01*
X85348794Y-100622289D01*
X85360000Y-100673800D01*
X85360000Y-100925800D01*
X85340315Y-100992839D01*
X85287511Y-101038594D01*
X85236000Y-101049800D01*
X83866162Y-101049800D01*
X83832787Y-101040000D01*
X82594000Y-101040000D01*
X82526961Y-101020315D01*
X82481206Y-100967511D01*
X82470000Y-100916000D01*
X82470000Y-100664000D01*
X82489685Y-100596961D01*
X82542489Y-100551206D01*
X82594000Y-100540000D01*
X83963838Y-100540000D01*
X83997213Y-100549800D01*
G37*
%TD.AperFunction*%
%TA.AperFunction,Conductor*%
G36*
X87114152Y-99266537D02*
G01*
X87120364Y-99270898D01*
X87177664Y-99313793D01*
X87177671Y-99313797D01*
X87312517Y-99364091D01*
X87312516Y-99364091D01*
X87319444Y-99364835D01*
X87372127Y-99370500D01*
X88567872Y-99370499D01*
X88627483Y-99364091D01*
X88697101Y-99338124D01*
X88766792Y-99333140D01*
X88828116Y-99366624D01*
X88861601Y-99427947D01*
X88863233Y-99443128D01*
X88863655Y-99443081D01*
X88884630Y-99629249D01*
X88884633Y-99629262D01*
X88907652Y-99695045D01*
X88911214Y-99764824D01*
X88876486Y-99825451D01*
X88814492Y-99857679D01*
X88790611Y-99860000D01*
X88477155Y-99860000D01*
X88417627Y-99866401D01*
X88417620Y-99866403D01*
X88282913Y-99916645D01*
X88282912Y-99916646D01*
X88274725Y-99922775D01*
X88209260Y-99947190D01*
X88140987Y-99932337D01*
X88126106Y-99922773D01*
X88117331Y-99916204D01*
X88117327Y-99916202D01*
X87982482Y-99865908D01*
X87982483Y-99865908D01*
X87922883Y-99859501D01*
X87922881Y-99859500D01*
X87922873Y-99859500D01*
X87922864Y-99859500D01*
X86977129Y-99859500D01*
X86977123Y-99859501D01*
X86917516Y-99865908D01*
X86782671Y-99916202D01*
X86782664Y-99916206D01*
X86667457Y-100002451D01*
X86667447Y-100002460D01*
X86661787Y-100010022D01*
X86605852Y-100051892D01*
X86548640Y-100058928D01*
X86476119Y-100050757D01*
X86411705Y-100023691D01*
X86372149Y-99966096D01*
X86366713Y-99940793D01*
X86365598Y-99930427D01*
X86365596Y-99930420D01*
X86315354Y-99795713D01*
X86315352Y-99795710D01*
X86290774Y-99762878D01*
X86266356Y-99697414D01*
X86281207Y-99629140D01*
X86290767Y-99614265D01*
X86315796Y-99580831D01*
X86315796Y-99580828D01*
X86315798Y-99580827D01*
X86348582Y-99492926D01*
X86357714Y-99468441D01*
X86399584Y-99412508D01*
X86465048Y-99388090D01*
X86487776Y-99388553D01*
X86537494Y-99394155D01*
X86549999Y-99395565D01*
X86550000Y-99395565D01*
X86550004Y-99395565D01*
X86729249Y-99375369D01*
X86729252Y-99375368D01*
X86729255Y-99375368D01*
X86899522Y-99315789D01*
X86902693Y-99313797D01*
X86980080Y-99265171D01*
X87047317Y-99246170D01*
X87114152Y-99266537D01*
G37*
%TD.AperFunction*%
%TD*%
M02*
